<svg viewBox="0 0 219.99999 64.000002" xmlns="http://www.w3.org/2000/svg"><g fill="#1a4ea6"><path d="M41.47 39.56H31.8l4-18.82L25.5 39.56h-5.92L17.6 20.1l-4.2 19.46H9.5l5.87-27.66h11.1l1.36 15.6 8.37-15.6h11.2zM54.66 39.56h-8.84l3.96-18.73h8.93zm5.18-24.44q0 1-.43 1.75-.38.74-1.08 1.26-.65.52-1.53.78t-1.8.28q-1.73 0-2.9-.83t-1.2-2.62q0-.95.4-1.7.4-.78 1.05-1.26.7-.52 1.57-.78.9-.27 1.87-.27 1.7 0 2.87.82t1.17 2.57zM76.18 19.92q.13-.66.13-1.8 0-.64-.08-1.25-.08-.66-.3-1.13-.22-.53-.66-.8-.43-.3-1.13-.3-.78 0-1.44.35t-1.18.9q-.48.53-.8 1.27-.25.7-.25 1.48 0 1.14.57 1.75.6.6 1.57 1t2.2.65 2.5.6q1.1.32 2.2.8t1.9 1.3q.88.8 1.4 2.1.52 1.26.52 3.17 0 2.75-1.1 4.62t-3 3.05-4.57 1.7q-2.6.5-5.7.5-3.14 0-5.14-.38-1.95-.43-3.1-.9-1.34-.58-2-1.32l1.5-5.97h7.66q-.05.4-.1 1.1-.03.64-.03 1.04 0 .52.13 1.1t.4 1.03q.3.48.82.8t1.3.3q.88 0 1.53-.4.7-.4 1.14-.96.48-.6.7-1.3.26-.75.26-1.44 0-.96-.48-1.62-.43-.65-1.22-1.1-.78-.46-1.83-.77l-2.1-.7q-1.03-.3-2.2-.73-1.14-.43-2.1-1.22t-1.6-1.96q-.62-1.23-.62-3.1 0-2.8 1.4-4.66 1.43-1.92 3.56-3.1Q69 12.47 71.57 12q2.57-.53 4.88-.53 3.05 0 5.23.74 2.22.7 3.35 1.66l-1.6 6.06zM87.76 22.44q2.23-1.1 4.53-1.56 2.35-.53 5.22-.53 2.8 0 4.62.44t2.92 1.25 1.52 1.96.44 2.58q0 .83-.13 1.8-.1.95-.23 1.6l-2.05 9.6h-7l-.8-2.8h-.26q-1.4 1.52-3.26 2.35-1.83.78-3.66.78-1.05 0-2.05-.3t-1.8-.9q-.78-.66-1.26-1.62-.48-1-.48-2.4 0-2.26 1.22-3.57 1.26-1.34 3.27-2 2.05-.7 4.57-.86 2.57-.18 5.14-.18.1-.43.22-1.22.13-.82.13-1.43 0-.78-.42-1.43-.4-.7-1.7-.7-1.53 0-2.27.92-.7.86-.9 2.12h-6.36zm10.02 7.67H97q-1.26 0-2.18.36-.87.3-1.44.83-.52.5-.78 1.16t-.26 1.3q0 1.06.52 1.58.57.52 1.3.52.92 0 1.8-.65.9-.64 1.13-1.73zM121.95 25.75l4.57-4.92h5l-7.87 8.1 5.62 10.63h-9.24l-3.05-5.75-5.75 5.76h-5l9.1-8.88-5.2-9.85h9.2zM154.22 39.56h-10.2l-4.83-20-4.28 20H131l5.88-27.66h10.4l4.6 20.26 4.3-20.26h4zM168.32 30.8q-.17.97-.26 1.84-.04.87-.04 1.57 0 .4.04.88t.17.9q.18.4.44.7.3.27.83.27.4 0 .87-.26.52-.27 1-.75.52-.48.96-1.18.48-.7.74-1.56h7.14l-1.12 4.67q-.87.56-2 .96t-2.4.65q-1.26.22-2.57.3-1.3.13-2.47.13-2.18 0-4.05-.38t-3.27-1.35-2.2-2.53q-.8-1.6-.8-3.96 0-2.13.66-4.18.7-2.05 2.26-3.62 1.6-1.6 4.27-2.57 2.7-.95 6.7-.95 4.36 0 6.53 1.35 2.23 1.35 2.23 4.23 0 1.18-.35 2.57-.34 1.35-1.04 2.3zm5.8-5.18q0-1.35-.44-1.82t-1.05-.48q-.7 0-1.3.48-.57.43-1.05 1.2-.48.76-.87 1.76-.38.96-.64 2.05h4.96q.1-.52.18-1.08.08-.48.13-1.05.08-.57.08-1.05zM184.4 20.83q1.6-.35 2.83-.78t2.22-1.1q1.05-.65 1.96-1.6.97-.96 2.06-2.36h4.5l-1.28 5.83h3.4l-.56 2.92h-3.45l-1.78 8.5q-.23 1-.36 1.78t-.13 1.22q0 .87.62 1.1.65.2 2.4.2l-.66 3q-.3.1-.96.15l-1.4.08q-.73.1-1.56.1-.78.03-1.4.03-1.08 0-2.13-.16-1.03-.13-1.86-.57-.83-.48-1.35-1.35-.5-.87-.5-2.35 0-.52.05-1.3.1-.8.3-1.75l1.84-8.67h-3.4z"/></g><path d="M130.57 43.46h4.46v.8h-3.5v2.1h3.36v.8h-3.38v2.55h3.6v.82h-4.55zM141.06 47.32v3.2h-.87v-3.17q0-.75-.3-1.13-.3-.37-.88-.37-.7 0-1.1.45-.42.45-.42 1.22v3h-.88v-5.3h.88v.82q.3-.48.73-.7.43-.25.98-.25.92 0 1.4.56.46.56.46 1.66zM142.8 45.22h.87v5.4q0 1-.38 1.45-.4.46-1.25.46h-.33v-.74h.23q.5 0 .67-.24.18-.23.18-.95zm0-2.06h.87v1.1h-.87zM147.54 45.83q-.7 0-1.1.55-.4.54-.4 1.5 0 .94.4 1.5.4.53 1.1.53.7 0 1.1-.53t.4-1.5q0-.94-.4-1.5-.4-.54-1.1-.54zm0-.74q1.14 0 1.78.73.65.74.65 2.04t-.65 2.04q-.64.75-1.78.75-1.14 0-1.78-.74-.65-.73-.65-2.03 0-1.3.66-2.04.64-.74 1.78-.74zM153.6 51q-.36.95-.7 1.24-.36.3-.94.3h-.7v-.74h.5q.37 0 .57-.17t.44-.8l.16-.4-2.15-5.2h.93l1.66 4.13 1.66-4.14h.92zM161.08 43.72v1.5h1.8v.68h-1.8v2.87q0 .65.18.83.18.2.72.2h.9v.72h-.9q-1 0-1.4-.38-.37-.38-.37-1.37V45.9h-.63v-.68h.64v-1.5zM166.07 45.83q-.7 0-1.1.55-.4.54-.4 1.5 0 .94.4 1.5.4.53 1.1.53.7 0 1.1-.53t.4-1.5q0-.94-.4-1.5-.4-.54-1.1-.54zm0-.74q1.14 0 1.78.73.65.74.65 2.04t-.65 2.04q-.64.75-1.78.75-1.14 0-1.78-.74-.66-.73-.66-2.03 0-1.3.65-2.04.63-.74 1.77-.74zM176.83 45.42v.82q-.37-.2-.74-.3-.38-.1-.76-.1-.84 0-1.3.53-.48.53-.48 1.5t.47 1.5q.47.55 1.3.55.4 0 .76-.1t.73-.3v.8q-.36.16-.76.25-.38.08-.82.08-1.2 0-1.9-.75t-.7-2.03q0-1.3.7-2.03.72-.75 1.95-.75.4 0 .8.08.37.08.73.24zM180.4 45.83q-.7 0-1.1.55-.4.54-.4 1.5 0 .94.4 1.5.4.53 1.1.53.7 0 1.1-.53t.4-1.5q0-.94-.4-1.5-.4-.54-1.1-.54zm0-.74q1.14 0 1.8.73.63.74.63 2.04t-.64 2.04q-.66.75-1.8.75-1.14 0-1.78-.74-.65-.73-.65-2.03 0-1.3.65-2.04.64-.74 1.78-.74zM188.67 47.32v3.2h-.87v-3.17q0-.75-.3-1.13-.28-.37-.87-.37-.7 0-1.1.45-.42.45-.42 1.22v3h-.86v-5.3h.87v.82q.32-.48.75-.7.42-.25.97-.25.92 0 1.38.56.47.56.47 1.66zM194.82 47.32v3.2h-.87v-3.17q0-.75-.3-1.13-.3-.37-.87-.37-.7 0-1.12.45-.4.45-.4 1.22v3h-.88v-5.3h.88v.82q.3-.48.73-.7.42-.25.97-.25.9 0 1.38.56.47.56.47 1.66zM201.1 47.65v.43h-4q.05.9.53 1.37.5.47 1.35.47.5 0 .97-.13.48-.13.94-.38v.83q-.48.2-.97.3t-1 .1q-1.27 0-2-.73-.75-.74-.75-2 0-1.3.7-2.06.7-.77 1.9-.77 1.07 0 1.7.68.6.7.6 1.87zm-.88-.25q0-.72-.4-1.14-.4-.43-1.03-.43-.74 0-1.18.4-.43.42-.5 1.17zM206.33 45.42v.82q-.37-.2-.74-.3-.38-.1-.76-.1-.85 0-1.3.53-.48.53-.48 1.5t.47 1.5q.46.55 1.3.55.4 0 .76-.1t.73-.3v.8q-.37.16-.76.25-.4.08-.82.08-1.2 0-1.9-.75t-.7-2.03q0-1.3.7-2.03.7-.75 1.95-.75.4 0 .8.08.37.08.73.24zM208.7 43.72v1.5h1.8v.68h-1.8v2.87q0 .65.18.83.18.2.73.2h.9v.72h-.9q-1 0-1.38-.38-.38-.38-.38-1.37V45.9h-.64v-.68h.64v-1.5z"/></svg>