<?xml version="1.0" encoding="UTF-8" standalone="no"?>
<svg xmlns:dc="http://purl.org/dc/elements/1.1/" xmlns:cc="http://creativecommons.org/ns#" xmlns:rdf="http://www.w3.org/1999/02/22-rdf-syntax-ns#" xmlns:svg="http://www.w3.org/2000/svg" xmlns="http://www.w3.org/2000/svg" viewBox="0 0 1771.8 489" height="489" width="1771.8" version="1.1" id="svg2">
  <metadata id="metadata8">
    <rdf:RDF>
      <cc:Work rdf:about="">
        <dc:format>image/svg+xml</dc:format>
        <dc:type rdf:resource="http://purl.org/dc/dcmitype/StillImage" />
        <dc:title></dc:title>
      </cc:Work>
    </rdf:RDF>
  </metadata>
  <defs id="defs6" />
  <g transform="translate(2.4414063e-5,0)" id="g4144">
    <path id="path4148" d="M 0,244.5 0,0 l 885.9,0 885.9,0 0,244.5 0,244.5 -885.9,0 L 0,489 0,244.5 Z" style="fill:#fdfdfd" />
    <path id="path4146" d="m 1030.2,488.66937 c -2.9687,-0.45591 -7.1083,-1.95447 -9.4856,-3.43386 -3.2217,-2.00487 -3.1754,-1.76793 -1.0068,-5.15652 2.4509,-3.82995 2.435,-3.81858 4.1553,-2.95179 2.6728,1.34664 7.214,2.86887 9.9853,3.3471 4.3437,0.74961 9.2533,0.11469 13.0221,-1.68399 3.7031,-1.7673 5.7738,-5.25543 4.9457,-8.33079 -0.7556,-2.80611 -2.3644,-3.60408 -9.8303,-4.87596 -7.8792,-1.34226 -9.9857,-2.61621 -9.9857,-6.03912 0,-1.33785 0.1149,-1.57794 1.3068,-2.73063 0.7187,-0.6951 2.2026,-1.73631 3.2975,-2.31381 1.0948,-0.5775 1.9918,-1.12377 1.9932,-1.21395 0,-0.0901 -0.9675,-0.33027 -2.1531,-0.53358 -2.9993,-0.51429 -5.6682,-1.90908 -7.8677,-4.11165 -3.0575,-3.06177 -4.3767,-6.28014 -4.3767,-10.67745 0,-10.3824 6.4454,-19.07697 16.2082,-21.8643 1.4982,-0.42771 3.4857,-0.69297 5.9918,-0.79962 4.6436,-0.19761 7.2885,0.2949 10.6066,1.97508 l 2.3566,1.19331 0.8936,-0.95892 c 0.4915,-0.5274 1.371,-1.53267 1.9545,-2.23392 0.5836,-0.70125 1.2238,-1.275 1.4228,-1.275 0.3916,0 4.9659,4.57722 4.9659,4.96902 0,0.13083 -1.0271,1.29336 -2.2825,2.58339 -1.7409,1.7889 -2.2292,2.47032 -2.0578,2.87154 0.8619,2.01804 1.0771,3.69729 0.9327,7.27605 -0.1774,4.39323 -0.8587,7.13415 -2.608,10.49178 -2.923,5.61045 -6.6151,8.57676 -14.7632,11.86119 -3.8756,1.56222 -5.4699,3.32247 -4.24,4.68147 0.5173,0.57162 0.7717,0.59715 4.0209,0.4032 6.6972,-0.39972 10.8211,1.39326 12.6906,5.5176 0.9656,2.13012 1.091,7.40313 0.2426,10.19637 -1.8796,6.18828 -8.4802,11.32932 -17.0248,13.26024 -3.1381,0.70914 -10.3549,1.01142 -13.3105,0.55752 z m 16.0016,-41.75787 c 2.1772,-0.99768 5.2988,-4.08759 6.8814,-6.8115 1.6647,-2.86524 2.3641,-5.35278 2.4134,-8.58285 0.038,-2.4885 -0.039,-2.8908 -0.8591,-4.5 -1.5669,-3.07383 -4.4183,-4.49043 -8.5603,-4.2528 -3.9627,0.22734 -7.4142,2.31891 -9.8527,5.97063 -1.7594,2.63466 -2.4243,5.05377 -2.4243,8.81988 0,5.23569 1.3353,8.21973 4.3149,9.64293 2.116,1.01073 5.5193,0.89022 8.0867,-0.28629 z M 187.23506,486.675 c 0.0193,-1.11375 0.12054,-2.90235 0.225,-3.9747 l 0.18994,-1.94967 3.29214,-0.3609 c 8.86224,-0.97149 13.85036,-4.51845 15.48202,-11.00895 0.77433,-3.08022 8.57938,-44.74896 8.44884,-45.10578 -0.0977,-0.26715 -1.03395,-0.375 -3.2551,-0.375 -2.90307,0 -3.1179,-0.0408 -3.1179,-0.59157 0,-0.9873 1.25449,-6.43242 1.57435,-6.83343 0.36614,-0.45903 15.38295,-0.54858 15.66426,-0.0934 0.23022,0.37248 -9.2735,52.36179 -10.06657,55.06842 -1.95637,6.67668 -5.74553,11.40042 -11.32877,14.12295 -3.6903,1.79946 -10.09627,3.12411 -15.11827,3.12621 l -2.025,0 0.0351,-2.025 z m -64.80165,1.18743 c -0.16444,-0.30726 -0.39069,-1.57062 -0.50277,-2.80746 l -0.20378,-2.24877 1.7455,-0.85401 c 2.41778,-1.1829 5.22475,-4.10328 6.56876,-6.83415 1.01766,-2.06778 1.26958,-3.32475 5.44717,-27.17919 3.58739,-20.48436 4.30609,-25.05807 3.97093,-25.27041 -0.22507,-0.14259 -1.785,-0.26133 -3.46651,-0.26385 -1.68152,-0.003 -3.11928,-0.10584 -3.19504,-0.22959 -0.0758,-0.12375 0.085,-1.5075 0.3573,-3.075 l 0.49503,-2.85 3.57132,-0.15 3.57131,-0.15 0.7007,-2.64255 c 1.60191,-6.0414 3.91045,-10.31199 7.30567,-13.51488 3.61963,-3.41457 7.80258,-4.99257 13.23422,-4.99257 3.31752,0 5.66774,0.4107 6.57588,1.14912 l 0.61601,0.50088 -0.73559,3.10803 c -0.40458,1.70943 -0.8706,3.24306 -1.03562,3.40806 -0.20002,0.20004 -0.83392,0.11607 -1.90196,-0.25194 -0.98927,-0.34089 -2.46246,-0.55431 -3.85194,-0.55806 -4.04591,-0.0108 -6.745,1.90785 -8.85342,6.29391 -1.09219,2.27205 -2.40146,6.85668 -2.09823,7.34733 0.11517,0.18636 2.3744,0.30267 5.87877,0.30267 4.2832,0 5.72427,0.0928 5.82327,0.375 0.0724,0.20625 -0.0331,1.59 -0.23441,3.075 l -0.36598,2.7 -5.91083,0.15 c -3.3421,0.0848 -6.03429,0.28038 -6.19491,0.45 -0.15624,0.165 -2.13514,11.4375 -4.39754,25.05 -2.32954,14.01645 -4.42286,25.73598 -4.82688,27.02352 -0.39238,1.25043 -1.23049,3.07293 -1.86247,4.05 -2.88905,4.46661 -8.80164,8.15661 -14.81617,9.24663 -0.90223,0.16353 -1.16449,0.0969 -1.40779,-0.35772 z M 81.930789,469.05738 c -3.78867,-0.86412 -6.806946,-3.43794 -8.107335,-6.91356 -0.875229,-2.33925 -1.326189,-5.63658 -1.106949,-8.09382 0.234576,-2.62914 6.106119,-36.35637 6.489171,-37.275 0.274221,-0.65763 0.397602,-0.675 4.797309,-0.675 3.671775,0 4.5471,0.0814 4.683066,0.43575 0.09197,0.2397 -1.219518,7.90095 -2.914416,17.025 -2.62131,14.11122 -3.083844,17.05977 -3.096441,19.73925 -0.01686,3.58635 0.442503,4.86318 2.353194,6.54078 1.368783,1.2018 3.033981,1.66536 6.021612,1.67625 4.22061,0.0153 7.804938,-1.62699 11.45719,-5.24976 3.47291,-3.44487 3.52931,-3.62715 7.04437,-22.76727 1.68176,-9.1575 3.18468,-16.81875 3.33983,-17.025 0.4145,-0.55104 9.1668,-0.53304 9.37875,0.0192 0.21517,0.56076 -9.09663,51.20565 -9.50549,51.69831 -0.40973,0.49368 -8.65887,0.59319 -9.1418,0.11025 -0.19621,-0.1962 -0.14458,-1.21131 0.15197,-2.98803 0.24703,-1.47996 0.34662,-2.79339 0.22131,-2.9187 -0.12531,-0.12531 -0.56827,0.20718 -0.98436,0.73884 -0.96778,1.2366 -4.072712,3.45516 -5.981768,4.27413 -3.978918,1.70694 -11.325696,2.50893 -15.099213,1.64829 z m 169.912181,0.14625 c -8.04784,-1.18302 -13.00754,-5.63817 -15.19984,-13.65363 -0.5756,-2.1045 -0.65656,-3.15723 -0.65754,-8.55 -9e-4,-5.69946 0.0565,-6.3633 0.786,-9.06174 2.41514,-8.93412 8.29417,-16.26063 15.97841,-19.9125 4.40557,-2.0937 6.96995,-2.63442 12.6,-2.65674 3.72299,-0.0147 5.23753,0.10104 6.75,0.51609 4.73599,1.29966 7.74587,3.46254 9.34835,6.71763 0.8114,1.6482 0.99078,2.3976 1.09483,4.5738 0.15296,3.1992 -0.26159,5.3028 -1.59211,8.07912 -2.5398,5.29971 -9.34783,9.47478 -17.43829,10.69422 -5.64042,0.85017 -11.56052,0.38886 -15.48745,-1.20678 -1.13328,-0.4605 -1.94764,-0.6408 -2.11925,-0.46917 -0.56208,0.56208 -0.60974,5.53086 -0.0761,7.92963 1.21148,5.44533 4.88579,8.46777 11.26999,9.27054 3.52705,0.44349 6.35344,-0.14493 10.33423,-2.15145 1.64132,-0.82731 3.03875,-1.44966 3.1054,-1.38303 0.19194,0.19194 -0.5512,7.7418 -0.83039,8.43624 -0.19058,0.47406 -0.93173,0.81882 -3.05543,1.42131 -5.21651,1.47993 -10.74168,2.0046 -14.81085,1.40646 z m 12.50009,-31.4535 c 5.96349,-1.58445 9.01667,-4.48293 9.04653,-8.58807 0.015,-2.06046 -0.50744,-3.30303 -1.87119,-4.45053 -1.46545,-1.23309 -2.86309,-1.56192 -6.6184,-1.55709 -3.65803,0.005 -5.19431,0.35391 -8.25,1.87542 -2.41637,1.20315 -5.76885,4.84206 -7.43272,8.06778 -1.65547,3.20943 -1.74821,3.88866 -0.59228,4.3377 3.40657,1.32339 11.32512,1.482 15.71806,0.31479 z m 38.81765,31.43472 c -10.50539,-1.64007 -15.758,-9.88515 -14.59757,-22.91406 0.79515,-8.92764 3.03614,-14.96811 7.72924,-20.83377 4.6168,-5.77029 10.8403,-9.18258 18.21658,-9.98799 5.55894,-0.60699 9.25341,0.44619 12.45984,3.55185 0.90807,0.87951 1.74996,1.59912 1.87089,1.59912 0.32994,0 0.36213,-0.15516 2.64567,-12.75 1.16673,-6.435 2.18988,-12.00375 2.2737,-12.375 0.14943,-0.66192 0.23661,-0.675 4.49667,-0.675 3.93975,0 4.3437,0.0489 4.33809,0.525 -0.003,0.28875 -2.81988,16.77309 -6.25887,36.63186 -4.31364,24.90981 -6.38172,36.18861 -6.66882,36.37041 -0.59988,0.37992 -8.28636,0.34452 -8.52354,-0.0392 -0.10605,-0.1716 -0.0246,-1.25235 0.18066,-2.40165 0.20538,-1.14933 0.29694,-2.16618 0.20346,-2.25969 -0.0935,-0.0935 -1.02651,0.52239 -2.07336,1.36857 -2.18565,1.76673 -4.71741,3.05511 -7.30335,3.71652 -2.33319,0.59679 -6.71856,0.82758 -8.98929,0.47307 z M 313.65,461.06808 c 2.99979,-1.12161 6.50412,-4.575 8.56374,-8.43924 1.59867,-2.99946 2.33049,-5.75304 3.73497,-14.05359 l 1.36512,-8.06793 -0.77568,-1.53072 c -1.05036,-2.07279 -2.94936,-4.06692 -4.77612,-5.01534 -1.2768,-0.66288 -1.88562,-0.78204 -3.91338,-0.76584 -7.00635,0.056 -13.1403,4.34166 -16.64742,11.63127 -1.82995,3.80355 -2.43487,6.51954 -2.61106,11.72331 -0.21712,6.41289 0.74939,10.00563 3.37864,12.55911 2.75322,2.67393 7.59663,3.48615 11.68119,1.95897 z m 47.41071,8.09811 c -7.74396,-1.12815 -12.75231,-5.69955 -14.91759,-13.61619 -0.57558,-2.1045 -0.65655,-3.15723 -0.65754,-8.55 0,-5.73723 0.0531,-6.35136 0.80694,-9.15 1.83852,-6.82578 5.95509,-13.0059 11.42493,-17.15202 2.3628,-1.791 6.55089,-3.77433 9.78255,-4.63263 3.42495,-0.90966 11.08512,-1.00758 14.1,-0.18024 4.73598,1.29966 7.74588,3.46254 9.34836,6.71763 0.81138,1.6482 0.99078,2.3976 1.09482,4.5738 0.15561,3.25449 -0.2871,5.43099 -1.66482,8.18487 -2.66007,5.31717 -9.31524,9.37509 -17.36559,10.58847 -5.64042,0.85017 -11.5605,0.38886 -15.48744,-1.20678 -1.29549,-0.52641 -1.93455,-0.65376 -2.15793,-0.43008 -0.18999,0.1902 -0.3123,1.78686 -0.30471,3.97737 0.0102,2.97852 0.13224,3.98205 0.65493,5.39205 1.77234,4.7811 5.54679,7.35777 11.54478,7.88115 3.11298,0.27165 6.01254,-0.40077 9.67182,-2.24286 1.64133,-0.82626 3.03876,-1.44774 3.10542,-1.38111 0.19194,0.19194 -0.55122,7.7418 -0.8304,8.43624 -0.19059,0.47406 -0.93171,0.81882 -3.05541,1.42131 -5.3502,1.51785 -10.72491,2.00535 -15.09312,1.36902 z m 12.78234,-31.41606 c 5.96349,-1.58445 9.01668,-4.48293 9.04653,-8.58807 0.015,-2.06046 -0.50742,-3.30303 -1.87119,-4.45053 -1.46544,-1.23309 -2.86308,-1.56192 -6.61839,-1.55709 -5.3445,0.007 -8.40432,1.26105 -12.03381,4.93251 -1.8345,1.85571 -2.5881,2.91804 -3.83034,5.39946 -1.13613,2.26944 -1.46238,3.19062 -1.22946,3.47127 0.26814,0.32313 1.71891,0.78243 4.64361,1.47015 0.33,0.0776 2.625,0.094 5.1,0.0363 3.29898,-0.0768 5.112,-0.26736 6.79305,-0.71403 z M 547.65,469.29072 c -4.41804,-0.58596 -8.23404,-2.84667 -10.45626,-6.19461 -1.84041,-2.77269 -2.65995,-5.74821 -2.82468,-10.25544 -0.30024,-8.21544 1.53966,-15.50139 5.68485,-22.51164 3.54144,-5.98926 7.62573,-9.98829 12.69609,-12.43113 3.91008,-1.88379 6.05865,-2.40249 10.80453,-2.60829 7.53072,-0.32658 15.45324,1.26456 18.38163,3.69168 l 0.68616,0.56871 -3.34332,15.75 c -3.23964,15.26172 -3.34329,15.86625 -3.34314,19.5 1.5e-4,3.89577 0.579,8.14632 1.54299,11.33016 0.39555,1.30644 0.45936,1.91163 0.22611,2.14488 -0.20151,0.20151 -1.87995,0.32496 -4.41846,0.32496 -4.75989,0 -4.72866,0.0165 -5.54511,-2.925 -0.52149,-1.87872 -0.95121,-2.2566 -1.63254,-1.43565 -0.77655,0.9357 -3.74871,2.65359 -6.03381,3.48756 -3.95436,1.44315 -8.76744,2.04894 -12.42504,1.56381 z m 9.45,-8.27115 c 2.47602,-0.90357 6.28056,-4.86027 8.14389,-8.46957 1.91268,-3.70491 2.39544,-5.39157 4.8942,-17.1 1.80186,-8.44299 2.11461,-10.30335 1.81563,-10.8 -0.52596,-0.87366 -3.0255,-1.60848 -6.21468,-1.82706 -6.23994,-0.42768 -10.65999,1.62321 -14.81043,6.87204 -4.13577,5.23026 -6.12894,10.71303 -6.7101,18.45783 -0.52788,7.03461 0.78558,10.89612 4.32516,12.7158 2.36244,1.21449 5.49075,1.26969 8.55633,0.15096 z m 45.04689,8.15748 c -5.6757,-0.7362 -9.50709,-3.48987 -10.73562,-7.71585 -0.6372,-2.19192 -0.42603,-6.39843 0.61305,-12.2112 0.69198,-3.87108 10.20675,-52.24398 10.57734,-53.775 0.16092,-0.66483 0.23523,-0.675 4.93086,-0.675 2.62212,0 4.76748,0.10356 4.76748,0.23016 0,0.12657 -2.22237,11.33739 -4.9386,24.91287 -5.53962,27.68658 -6.51945,33.11979 -6.55665,36.35697 -0.0407,3.54369 1.30434,5.33796 4.51677,6.02517 0.95067,0.20337 1.8453,0.47199 1.98807,0.59691 0.29241,0.25581 -0.33006,5.23671 -0.75645,6.05292 -0.30306,0.58017 -1.18095,0.62043 -4.40625,0.20205 z m 31.91382,-0.0108 c -5.08248,-0.74043 -8.54067,-2.93607 -10.10562,-6.41619 -1.03893,-2.31036 -1.0893,-6.37245 -0.14691,-11.85 0.73119,-4.25004 10.57443,-54.5358 10.8786,-55.575 0.13773,-0.47058 0.6318,-0.525 4.76574,-0.525 2.53662,0 4.68141,0.11217 4.76613,0.24927 0.0847,0.13713 -2.18784,11.91588 -5.05017,26.175 -5.35452,26.67435 -6.67572,34.25928 -6.33675,36.37902 0.45381,2.83794 2.10744,4.42962 5.04696,4.85784 0.78579,0.11445 1.50204,0.32676 1.59165,0.47181 0.19086,0.30879 -0.43641,4.90611 -0.80391,5.89206 -0.28194,0.75648 -1.25832,0.82881 -4.60572,0.34119 z m 62.97663,0.0132 c -0.21852,-0.35358 -9.73626,-70.34595 -9.73695,-71.60451 0,-0.67263 0.0168,-0.675 4.92939,-0.675 4.43679,0 4.94508,0.0525 5.08266,0.525 0.0841,0.28875 1.39194,10.92 2.90631,23.625 1.5144,12.705 2.80695,23.1585 2.87235,23.22999 0.0654,0.0715 0.28539,-0.035 0.48891,-0.23664 0.20349,-0.20163 5.63499,-10.85763 12.06999,-23.67999 l 11.7,-23.31336 1.57431,-0.0907 c 1.40241,-0.0808 1.6059,-0.0153 1.86381,0.6 0.15921,0.37986 1.79565,10.88316 3.63651,23.34066 1.84086,12.4575 3.48276,22.785 3.64869,22.95 0.20112,0.20001 0.34521,0.20001 0.43224,0 0.0718,-0.165 5.02668,-10.7625 11.01081,-23.55 l 10.88031,-23.25 5.15166,-0.0821 c 4.45509,-0.071 5.15166,-0.0201 5.15166,0.3759 0,0.453 -34.01295,71.05767 -34.57971,71.78118 -0.34518,0.44067 -2.80275,0.50787 -3.06483,0.0838 -0.099,-0.16014 -1.92576,-10.52139 -4.05948,-23.025 -2.13375,-12.50361 -3.95571,-23.04717 -4.04883,-23.43012 -0.0931,-0.38298 -0.31392,-0.64812 -0.49071,-0.58917 -0.17676,0.0589 -5.74167,10.69974 -12.36645,23.6463 l -12.04503,23.53917 -1.3953,0.0903 c -0.83457,0.054 -1.48251,-0.0508 -1.61232,-0.26082 z m 80.95716,0.0183 c -8.02317,-1.17306 -13.11645,-5.82513 -15.10635,-13.79772 -0.89931,-3.60321 -1.11771,-10.50507 -0.45945,-14.52042 1.70097,-10.37583 8.05461,-18.96912 17.12316,-23.15904 3.80928,-1.76001 6.81945,-2.34438 12.14814,-2.35833 5.08005,-0.0132 6.71976,0.26577 9.87234,1.68045 3.42576,1.53729 5.69034,3.88755 6.73104,6.98577 0.61959,1.84458 0.65043,6.01695 0.0608,8.23215 -1.41624,5.32092 -5.65344,9.50742 -12.16422,12.01866 -6.6954,2.58243 -16.26084,2.78559 -21.96786,0.46662 -1.11375,-0.45255 -1.95609,-0.64191 -2.12115,-0.47685 -0.44451,0.44451 -0.60549,5.13309 -0.24276,7.06989 0.35142,1.87644 1.7088,4.97193 2.64744,6.0375 1.20795,1.37127 3.50667,2.83728 5.33379,3.40161 4.75515,1.46871 8.82756,1.03821 13.78476,-1.45728 1.64133,-0.82626 3.04104,-1.44546 3.11049,-1.37604 0.24834,0.24834 -0.64236,8.27382 -0.96522,8.69691 -0.45984,0.60258 -4.94112,1.839 -8.67471,2.39337 -3.28479,0.48774 -6.49518,0.5451 -9.11028,0.16275 z m 12.55173,-31.4484 c 4.25685,-1.13097 6.8967,-2.80101 8.19333,-5.18334 1.00437,-1.84533 1.17255,-4.62378 0.3726,-6.15525 -1.27269,-2.43651 -3.30435,-3.26229 -8.01216,-3.2565 -2.79708,0.003 -3.82521,0.13314 -5.43258,0.68535 -3.5958,1.23531 -6.45159,3.44559 -8.71224,6.74298 -1.36518,1.99128 -2.95461,5.2185 -2.95494,5.99988 0,1.87899 10.95699,2.65179 16.54599,1.16688 z m 63.40614,31.45455 c -0.10065,-0.1629 0.2214,-1.55865 0.71568,-3.10167 2.36298,-7.37676 3.16791,-11.36379 8.88342,-44.0022 2.55714,-14.6025 4.71243,-26.71875 4.78953,-26.925 0.21708,-0.58074 8.859,-0.53442 8.859,0.0475 0,0.23238 -0.8775,5.84727 -1.95,12.47754 -1.0725,6.63027 -1.95,12.26475 -1.95,12.52104 0,0.29043 0.60273,-0.10404 1.59981,-1.04703 0.87987,-0.83217 2.31345,-1.87467 3.18567,-2.31666 4.66947,-2.36619 11.90454,-2.1477 16.89867,0.51027 2.24193,1.19322 5.69493,4.56732 7.07901,6.91728 3.59787,6.10863 4.38291,15.66432 1.92669,23.45274 -2.99127,9.48507 -10.56162,17.48583 -19.16133,20.25078 -8.44551,2.71536 -15.88137,1.58874 -19.10061,-2.89392 -0.51129,-0.71199 -1.02357,-1.2945 -1.13841,-1.2945 -0.11484,0 -1.0707,1.04433 -2.12415,2.32077 -2.9724,3.60156 -2.60085,3.37923 -5.64765,3.37923 -1.47525,0 -2.76465,-0.13326 -2.86533,-0.29613 z m 25.73667,-7.9506 c 2.71245,-0.7065 5.1348,-2.09769 7.44168,-4.27389 2.64243,-2.49273 4.43385,-4.97265 5.94252,-8.22633 1.6824,-3.62841 2.21106,-6.0681 2.20002,-10.15305 -0.0237,-8.73213 -3.19692,-13.61838 -9.85215,-15.17016 -5.49987,-1.28238 -9.38445,0.27048 -12.68805,5.0721 -0.94092,1.36758 -1.12641,2.13024 -3.46497,14.24649 -1.88184,9.75009 -2.40513,12.99471 -2.19525,13.61184 0.47892,1.40817 2.55876,3.45873 4.4838,4.42068 1.56975,0.78441 2.17455,0.91905 4.12824,0.91905 1.25898,0 3.06087,-0.20103 4.00416,-0.44673 z m 42.86385,7.92573 c -4.65189,-0.91545 -7.96122,-4.11033 -9.20538,-8.88699 -0.9711,-3.72822 -0.69546,-6.32889 2.72715,-25.73181 1.74606,-9.8985 3.23904,-18.10146 3.3177,-18.22875 0.24207,-0.39165 9.34077,-0.28203 9.47283,0.11412 0.0634,0.19008 -1.1436,7.17633 -2.68215,15.525 -3.70023,20.07888 -3.83097,20.97192 -3.42708,23.4093 0.4389,2.64873 1.49397,4.12032 3.76896,5.25681 1.55151,0.77505 2.09898,0.8868 4.35,0.88776 4.4388,0.003 8.11491,-1.63686 11.71977,-5.22444 3.4815,-3.46479 3.51516,-3.57339 7.0794,-22.84419 1.70652,-9.22659 3.18342,-16.90617 3.28203,-17.06574 0.10293,-0.1665 2.15256,-0.29007 4.81158,-0.29007 l 4.6323,0 -0.005,0.825 c -0.0126,1.90983 -9.24633,51.15996 -9.63846,51.40845 -0.22338,0.14154 -2.33412,0.25944 -4.69056,0.26196 -3.59739,0.004 -4.31304,-0.07 -4.46298,-0.4608 -0.0983,-0.25596 0.0505,-1.61895 0.33051,-3.02889 0.28002,-1.40991 0.42876,-2.64384 0.33057,-2.74203 -0.0982,-0.0982 -0.88392,0.51441 -1.74609,1.36131 -3.08298,3.02844 -7.11378,4.80264 -12.36759,5.4438 -3.08349,0.37632 -5.71878,0.37983 -7.59711,0.0102 z m 159.17151,-0.0887 c -3.7162,-1.38654 -5.7583,-5.33817 -4.707,-9.10824 0.5116,-1.83447 2.9563,-4.38006 4.6611,-4.8534 2.6237,-0.72849 5.1286,-0.22929 7.0341,1.40178 3.8943,3.33333 3.3541,9.34713 -1.0726,11.94135 -1.638,0.95991 -4.2645,1.23453 -5.9156,0.61851 z M 5.8186539,468.17649 c -0.090124,-0.23487 9.0379011,-16.37112 20.4919151,-36.225 L 46.965,396.15 l 1.268352,-0.0923 c 1.094016,-0.0796 1.303215,0.003 1.522005,0.6 0.565368,1.54302 13.934967,70.97418 13.756353,71.43966 -0.169923,0.4428 -0.792072,0.50208 -5.227296,0.49803 -2.768928,-0.003 -5.209689,-0.11577 -5.423916,-0.25167 -0.245598,-0.15579 -0.773892,-2.83272 -1.429917,-7.2456 -0.572229,-3.84918 -1.189734,-7.17843 -1.372233,-7.39833 C 49.791732,453.37857 47.296527,453.3 37.359762,453.3 c -11.404328,0 -12.402223,0.0409 -12.822331,0.525 -0.250559,0.28875 -2.112403,3.495 -4.137431,7.125 -2.025028,3.63 -3.886872,6.83625 -4.137431,7.125 -0.39923,0.46008 -1.063058,0.525 -5.368481,0.525 -3.953705,0 -4.9446488,-0.0827 -5.0754341,-0.42351 z m 43.1925471,-22.3137 c 0.167274,-0.27066 -3.925188,-29.17677 -4.16469,-29.41629 -0.08608,-0.0861 -0.271728,-0.0305 -0.412548,0.12351 -0.300951,0.3291 -15.215023,28.233 -15.502592,29.00499 -0.183813,0.49344 0.409192,0.525 9.868826,0.525 5.535417,0 10.130367,-0.10674 10.211004,-0.23721 z m 349.136709,22.47318 c -0.32574,-0.20646 0.26544,-4.00752 3.11385,-20.02041 1.93374,-10.87107 3.58272,-20.72913 3.66435,-21.90681 0.0817,-1.17768 -0.0216,-3.47268 -0.22926,-5.1 -0.6288,-4.92531 -1.05636,-4.30143 3.58725,-5.23422 2.21877,-0.44568 4.19061,-0.75027 4.38192,-0.67689 0.19128,0.0734 0.57948,1.51023 0.86265,3.19293 0.28317,1.68267 0.57282,3.23991 0.64368,3.46047 0.0834,0.25956 0.83775,-0.24858 2.13819,-1.44018 2.22711,-2.04075 5.66337,-3.89109 8.78946,-4.73292 2.96451,-0.7983 10.03221,-0.7119 12.36993,0.15123 3.63543,1.34226 5.93541,3.6657 7.19745,7.27083 0.59487,1.69932 0.68172,2.52846 0.6756,6.45 -0.007,4.34148 -0.11097,5.09178 -2.95848,21.3 -1.62333,9.24 -3.08796,16.96875 -3.25473,17.175 -0.45513,0.56283 -9.18861,0.53136 -9.40551,-0.0339 -0.0863,-0.22488 0.99285,-6.80613 2.39808,-14.625 3.27345,-18.21369 3.47502,-19.4913 3.47646,-22.03665 0.003,-4.03959 -1.28031,-6.43572 -4.11645,-7.69029 -1.7778,-0.78639 -4.80957,-1.02138 -7.08462,-0.54906 -3.66048,0.7599 -10.09821,4.85004 -10.56018,6.70926 -0.0889,0.35784 -1.632,9.07446 -3.42903,19.37022 -2.11065,12.09264 -3.40737,18.80835 -3.66294,18.97038 -0.51921,0.32925 -8.07747,0.32571 -8.59767,-0.004 z m 83.70468,0.003 c -0.3189,-0.20217 0.85086,-7.23084 5.91879,-35.56407 3.47394,-19.42164 6.3945,-35.43867 6.49014,-35.59344 0.10569,-0.171 8.82972,-0.28134 22.24494,-0.28134 l 22.07103,0 -0.20646,1.725 c -0.11355,0.94875 -0.43473,2.8725 -0.71373,4.275 l -0.5073,2.55 -16.99032,0.0775 c -13.10163,0.0597 -17.0565,0.16272 -17.27961,0.45 -0.42039,0.54138 -3.51675,18.6336 -3.2901,19.22427 0.17382,0.453 1.29561,0.49827 12.35061,0.49827 l 12.15942,0 0,0.80163 c 0,0.69585 -0.63015,4.61376 -1.06527,6.62337 l -0.14616,0.675 -12.2193,0.005 c -6.7206,0.003 -12.39327,0.11499 -12.60591,0.2499 -0.24207,0.1536 -1.50294,6.5661 -3.3723,17.15103 -1.82076,10.30968 -3.13302,16.99929 -3.36336,17.14551 -0.50388,0.31989 -8.96853,0.309 -9.47511,-0.0123 z m 333.35838,-0.1824 c -0.18291,-0.47664 8.4396,-50.25552 8.9001,-51.38145 0.26835,-0.65616 0.39717,-0.675 4.61478,-0.675 2.38632,0 4.40808,0.11217 4.4928,0.24927 0.0847,0.13713 -0.11106,1.71954 -0.43512,3.51654 -0.32406,1.79697 -0.55416,3.37047 -0.51135,3.49665 0.0428,0.12621 1.2255,-0.88248 2.62821,-2.24151 2.63163,-2.5497 5.15523,-4.11219 8.39961,-5.20062 2.72709,-0.91491 10.48671,-0.71679 10.50771,0.26826 0.0201,0.94167 -2.28666,8.61141 -2.58993,8.61141 -0.1899,0 -1.13784,-0.37125 -2.10654,-0.825 -1.5147,-0.70953 -2.14134,-0.825 -4.47681,-0.825 -2.52477,0 -2.87253,0.0776 -4.95,1.10496 -4.28406,2.11854 -8.11644,6.85443 -9.54477,11.79504 -0.33393,1.155 -1.7811,8.7825 -3.21594,16.95 -1.43484,8.1675 -2.74119,15.01875 -2.90301,15.225 -0.46302,0.59022 -8.5812,0.52704 -8.80974,-0.0686 z m 152.68026,-0.0514 c -0.10446,-0.27225 1.4025,-9.47814 3.34881,-20.45754 l 3.53877,-19.96257 -0.204,-4.21746 c -0.11223,-2.3196 -0.23121,-4.75698 -0.26442,-5.41641 l -0.0604,-1.19892 4.05,-0.80304 c 3.51036,-0.69603 4.09527,-0.7449 4.38975,-0.36693 0.18684,0.23985 0.50973,1.54572 0.71748,2.90196 0.65181,4.25505 0.54816,4.19112 3.04584,1.87866 3.5532,-3.28974 7.48893,-4.83495 13.14693,-5.16165 5.87501,-0.33924 9.71961,0.85437 12.47991,3.87453 2.5238,2.76147 3.6845,7.1334 3.277,12.3429 -0.3295,4.21227 -6.0412,36.52341 -6.5087,36.81978 -0.6672,0.423 -8.8277,0.32208 -9.16691,-0.11334 -0.19701,-0.25284 0.61661,-5.40738 2.49781,-15.825 1.5345,-8.4975 2.9387,-16.76649 3.1205,-18.37551 0.8427,-7.45752 -1.918,-11.02449 -8.53278,-11.02449 -4.4703,0 -12.25863,4.25493 -13.05792,7.13382 -0.17046,0.61389 -1.74096,9.35118 -3.49005,19.41618 -1.74909,10.065 -3.31791,18.46875 -3.48624,18.675 -0.21822,0.26736 -1.50387,0.375 -4.47876,0.375 -3.60084,0 -4.19871,-0.0678 -4.36263,-0.49497 z M 1199.4,455.07792 c -16.8108,-0.89379 -33.2814,-6.15501 -47.875,-15.29274 -13.3067,-8.33193 -28.5203,-22.70079 -41.0051,-38.72829 -2.2503,-2.88894 -2.4399,-3.65298 -1.4483,-5.83656 0.8666,-1.90821 3.0606,-3.11427 5.6731,-3.11865 1.4231,-0.003 1.9371,0.34467 5.4553,3.68361 8.6345,8.19459 20.7189,17.31189 30,22.6341 14.8279,8.50299 29.3426,13.38546 45.9,15.43977 4.8273,0.59895 18.9196,0.50658 24.15,-0.15828 20.2034,-2.56812 40.0625,-10.28616 59.55,-23.14347 7.4502,-4.91544 17.4504,-12.53604 23.9924,-18.28326 24.8345,-21.81753 47.2106,-50.35593 66.8461,-85.25514 7.72,-13.72107 14.0725,-26.11169 27.3617,-53.36901 13.1194,-26.90904 19.8692,-40.00566 25.8909,-50.23582 0.918,-1.55969 1.6026,-2.94344 1.5213,-3.075 -0.2721,-0.44031 -12.1429,-0.27247 -14.9146,0.21088 -9.0293,1.57457 -15.5366,6.77473 -19.7959,15.81946 -0.6813,1.44676 -1.3948,2.63048 -1.5854,2.63048 -0.6213,0 -2.5635,-2.43314 -3.4427,-4.31299 -1.2544,-2.68197 -1.6589,-5.76381 -1.2225,-9.31487 1.3502,-10.98654 8.8938,-16.83457 24.6487,-19.10847 1.5774,-0.22767 6.65,-0.38579 13.2999,-0.41459 l 10.7499,-0.0466 4.3586,-7.62626 C 1483.2297,98.176065 1533.055,45.284646 1587.4273,19.031573 1608.0909,9.0543891 1628.5464,3.1821759 1651.8,0.5519637 c 5.1725,-0.58506445 16.7487,-0.5042786 21,0.14655081 13.0071,1.99125959 24.4303,6.87915669 33.8901,14.50124549 13.0734,10.533717 21.6598,26.022277 23.7267,42.799114 0.5856,4.753536 0.2121,14.17854 -0.7411,18.698931 -4.2441,20.127603 -17.7858,36.132675 -39.0493,46.152515 l -3.3237,1.56617 -4.1611,5.81676 c -25.5046,35.65203 -51.268,81.23382 -77.5206,137.1526 -3.2056,6.82787 -4.5144,10.62839 -5.8466,16.97734 -2.4725,11.78364 -1.4504,18.66153 3.1474,21.17796 1.4171,0.77562 1.9393,0.89196 4.0282,0.89766 3.068,0.008 5.5165,-0.81027 9.0404,-3.02256 4.878,-3.06252 10.2338,-8.13496 16.3776,-15.51117 5.0452,-6.05712 8.8468,-11.28638 20.1919,-27.77467 1.6791,-2.44028 3.3677,-4.56073 3.8812,-4.87387 1.3131,-0.80078 2.554,-0.70479 3.7452,0.28971 1.2877,1.075 1.3127,2.08253 0.1019,4.10375 -0.4942,0.825 -1.8123,3.12 -2.9291,5.1 -2.6478,4.69429 -8.1319,13.01511 -11.8413,17.96608 -12.1179,16.17401 -23.9743,26.61566 -33.9178,29.87078 -5.929,1.94091 -12.4442,1.26501 -17.5793,-1.8237 -2.0198,-1.21491 -5.8843,-5.22624 -7.2669,-7.54302 -2.0776,-3.48128 -3.2518,-8.1802 -3.5598,-14.24514 -0.1026,-2.02125 -0.2926,-3.675 -0.4221,-3.675 -0.1296,0 -1.9614,2.46132 -4.0707,5.46959 -4.5761,6.52649 -7.3083,9.84055 -10.8318,13.13857 -4.6132,4.31808 -9.6534,7.20714 -14.4383,8.27595 -1.7436,0.38949 -3.125,0.45918 -6.45,0.32532 -4.7764,-0.19224 -6.7876,-0.6411 -10.0811,-2.24979 -5.0162,-2.45013 -8.7889,-8.08431 -9.728,-14.52765 -0.1137,-0.7799 -0.3189,-1.48735 -0.456,-1.57212 -0.1372,-0.0848 -1.2431,0.6784 -2.4577,1.69592 -9.0913,7.61632 -18.0803,12.16105 -26.9243,13.61269 -3.8051,0.62457 -10.504,0.46044 -13.534,-0.33159 -9.2686,-2.4228 -14.5952,-9.03243 -16.6713,-20.68689 -0.7355,-4.1291 -0.7426,-14.16156 -0.014,-19.2 2.7353,-18.90455 10.8419,-35.18554 25.9356,-52.08829 12.9244,-14.4735 25.3597,-22.76615 38.255,-25.51081 4.3341,-0.92246 11.5988,-0.91675 15.0444,0.0118 4.8495,1.30694 8.6683,3.70281 11.1579,7.00015 1.4096,1.86708 3.0723,5.06739 3.823,7.35858 0.2832,0.86431 0.6294,1.64225 0.7694,1.72875 0.14,0.0865 0.9059,-0.40715 1.7021,-1.09702 4.8623,-4.2131 10.8677,-6.43723 18.2659,-6.76481 4.7574,-0.21066 6.8495,0.0286 6.6578,0.76149 -0.073,0.27742 -2.0664,3.54094 -4.4309,7.25226 -16.5087,25.91277 -28.7724,49.11748 -36.3248,68.73221 -4.0096,10.41354 -5.4751,16.39778 -5.3179,21.71565 0.084,2.82999 0.2121,3.54456 0.9023,5.01711 1.6911,3.60831 5.0276,4.13763 10.286,1.63188 5.9583,-2.83923 13.9812,-10.80778 23.4579,-23.29899 6.5608,-8.64783 7.8286,-10.70759 13.664,-22.2 10.368,-20.41882 19.414,-37.44039 39.5394,-74.4 19.7827,-36.33022 30.5229,-56.57494 30.1905,-56.90741 -0.097,-0.0965 -2.103,-0.29167 -4.459,-0.43382 -27.9089,-1.68389 -47.2421,-11.52126 -55.6736,-28.328535 -1.9095,-3.806397 -4.1313,-11.335854 -3.9019,-13.223295 0.097,-0.798333 0.1684,-0.733209 1.0441,0.952296 6.8184,13.123854 22.7451,24.180014 41.0478,28.494934 5.9698,1.40743 9.4803,1.78883 16.2,1.76009 6.664,-0.0285 13.5627,-0.71592 14.7351,-1.46826 0.3493,-0.22418 2.0335,-2.20499 3.7426,-4.4018 4.3205,-5.55327 12.5555,-15.380323 17.6769,-21.094198 5.0198,-5.600517 15.8567,-16.639137 21.4454,-21.844581 2.145,-1.997916 4.022,-3.831555 4.1711,-4.074756 0.3922,-0.639747 -0.2896,-7.598679 -1.1661,-11.901513 -3.9465,-19.374051 -17.1662,-32.380674 -37.4502,-36.846751 -5.8836,-1.295432 -8.5661,-1.533736 -17.0049,-1.510643 -8.4238,0.02305 -12.9224,0.397386 -21.5999,1.79735 -42.8445,6.912198 -81.7125,31.920316 -118.9497,76.533604 -17.8199,21.349778 -36.4598,48.519578 -58.6989,85.560138 -3.1083,5.17707 -5.6514,9.52172 -5.6514,9.65479 0,0.49572 1.4501,0.66509 5.6916,0.66474 11.3103,-9e-4 19.5521,-3.90011 24.4279,-11.55678 1.0607,-1.6656 2.6185,-5.20111 3.0406,-6.9006 0.1127,-0.45375 0.3202,-0.825 0.4612,-0.825 0.4016,0 2.5988,3.38455 3.7311,5.74718 2.1645,4.51667 2.4731,9.2378 0.9083,13.89908 -1.0161,3.02712 -2.3175,5.00282 -4.7841,7.26302 -3.3378,3.05847 -8.4376,5.35038 -14.9954,6.73912 -3.9376,0.83386 -11.6414,0.87522 -18.9312,0.10164 -2.8051,-0.29766 -5.622,-0.55444 -6.2601,-0.57062 l -1.16,-0.0294 -1.795,3.15 c -5.2505,9.21372 -12.8713,23.85247 -23.1145,44.4 -6.2924,12.6225 -13.184,26.19 -15.3145,30.15 -18.9217,35.16909 -41.1573,68.00886 -64.266,94.91436 -19.5265,22.73484 -42.9253,44.19903 -59.8399,54.89256 -21.1627,13.3791 -43.3181,21.82521 -64.2001,24.47436 -3.569,0.45279 -13.2349,1.10202 -15.1499,1.0176 -0.4951,-0.0219 -2.8575,-0.14376 -5.25,-0.27096 z m 300.5884,-154.4913 c 9.4029,-2.62071 18.2771,-11.6176 26.8314,-27.20223 5.6735,-10.33625 13.2453,-29.3297 15.9231,-39.94217 1.9047,-7.54836 2.8584,-14.075 2.8554,-19.54038 0,-7.15846 -1.599,-11.56994 -4.9316,-13.63934 -1.2537,-0.7785 -1.7662,-0.90173 -4.173,-1.00333 -3.4968,-0.14763 -6.0636,0.4341 -9.699,2.19808 -6.0937,2.95683 -11.3695,7.90503 -18.6557,17.49718 -13.9226,18.32891 -22.2673,36.24924 -25.1229,53.9519 -0.7252,4.49598 -0.9017,14.62793 -0.3092,17.76083 1.1095,5.86724 4.1663,9.57098 8.6996,10.54094 1.8376,0.39318 6.031,0.0895 8.5819,-0.62148 z M 220.05,408.153 c -1.71066,-0.5997 -3.62206,-2.78826 -4.00839,-4.58964 -0.57251,-2.66955 0.54774,-5.40039 2.85654,-6.96336 0.94246,-0.63801 1.4504,-0.75 3.40178,-0.75 1.99564,0 2.45466,0.10638 3.53039,0.81828 1.85779,1.22943 2.92548,3.25083 2.89543,5.48172 -0.0287,2.12931 -0.54456,3.24546 -2.18509,4.72758 -1.84335,1.66536 -4.10859,2.11047 -6.49066,1.27542 z M 77.322636,350.98167 C 51.758808,349.14789 29.16377,335.10372 14.172639,311.73009 11.598004,307.71582 7.1080326,298.75546 5.5888653,294.6 -1.8160307,274.34497 -1.826001,254.74043 5.5606635,239.14703 10.163769,229.42978 18.506531,221.00757 28.47288,216.01661 c 24.0999,-12.06877 61.389024,-8.77834 106.5141,9.39891 1.89033,0.76146 3.59306,1.38448 3.78384,1.38448 0.20051,0 0.50449,-0.981 0.72046,-2.325 0.96913,-6.0312 4.46364,-11.97786 10.80872,-18.39337 7.4232,-7.50559 16.88926,-13.98954 29.72459,-20.36038 21.34511,-10.59468 46.21797,-17.15978 67.92228,-17.92785 5.31225,-0.18799 5.40867,-0.20326 6.15,-0.97408 0.41422,-0.4307 2.98063,-3.34365 5.70313,-6.47323 12.61581,-14.50217 27.69764,-28.50337 41.7,-38.71214 15.85716,-11.56106 31.29876,-19.76413 52.35,-27.809991 15.55737,-5.946081 30.25326,-9.644409 43.65,-10.984839 5.56767,-0.557079 16.84923,0.560793 23.55,2.333532 7.11861,1.883277 10.04577,3.536547 8.83803,4.99176 -0.52008,0.626682 -1.67661,0.539775 -4.18917,-0.314799 -4.13949,-1.407936 -6.88689,-1.783086 -13.04886,-1.781805 -6.38775,0.0012 -8.45484,0.361506 -13.71654,2.39001 -12.99696,5.010627 -26.99043,17.826712 -41.91924,38.392182 -7.91133,10.89844 -23.472,35.19751 -29.56683,46.17065 -1.1466,2.06437 -1.14822,2.07212 -0.53148,2.55 0.3402,0.26364 1.65975,1.28513 2.93232,2.26997 5.12178,3.96378 10.69317,10.775 13.69146,16.73829 3.77064,7.49944 6.04758,16.01429 6.8685,25.68543 1.18893,14.00659 -3.68679,28.59343 -13.45743,40.26098 -10.39353,12.41141 -26.16216,21.07878 -43.02775,23.65065 -2.71435,0.41392 -3.7295,0.69028 -4.02624,1.09609 -0.54742,0.74865 -0.52197,8.93774 0.0444,14.27381 1.91904,18.08136 7.35297,33.53625 15.4367,43.90413 1.94001,2.4882 2.05314,2.69472 1.23666,2.25777 C 303.46852,346.02405 288.646,331.7955 284.10477,326.1 c -7.25263,-9.09609 -11.8018,-18.4584 -13.04843,-26.85398 -0.27418,-1.84649 -0.47126,-4.95686 -0.45477,-7.17734 0.016,-2.15528 0.0222,-4.05368 0.0138,-4.21868 -0.01,-0.19029 -2.67587,-0.31319 -7.29031,-0.33607 -19.43575,-0.0964 -37.10251,-4.25424 -55.3526,-13.02725 l -4.87761,-2.34471 -1.02457,1.25401 c -0.56352,0.68971 -2.91427,3.5924 -5.22389,6.45042 -22.22627,27.50369 -45.79484,47.97785 -68.38269,59.40449 -13.91078,7.0371 -26.79754,10.79592 -40.212498,11.72919 -5.00874,0.34842 -6.090852,0.3486 -10.928499,0.003 z M 97.65,333.63213 c 9.91123,-1.70736 19.29725,-4.89216 30.75,-10.43382 12.13305,-5.87085 22.97093,-12.80979 33.15,-21.22422 4.74023,-3.91846 13.53561,-12.72009 16.66226,-16.67409 6.38457,-8.07401 10.08682,-15.94305 9.82838,-20.89 l -0.0906,-1.73514 -2.1,-1.76319 C 175.53428,252.25045 154.12072,241.49358 132.61057,234.16743 100.33406,223.17436 70.180944,219.69231 49.5,224.5699 c -10.073517,2.37584 -18.339603,6.64805 -24.784764,12.80966 -11.458349,10.95425 -15.331662,25.98051 -11.051896,42.87508 2.169929,8.5659 7.081109,18.02078 13.498764,25.98749 2.793713,3.46806 8.251744,8.81925 11.91019,11.67708 11.910993,9.30438 24.222648,14.43345 39.077706,16.27989 3.777024,0.46947 15.454368,0.12993 19.5,-0.56697 z M 271.42056,276.225 c 0.16171,-0.20625 0.52468,-1.9275 0.80661,-3.825 3.97759,-26.77153 14.09989,-53.64937 32.36241,-85.93226 0.74121,-1.31024 1.28661,-2.54129 1.21203,-2.73567 -0.18117,-0.47214 -4.19949,-2.32515 -7.01738,-3.23601 -5.82744,-1.88367 -10.58804,-2.40919 -22.0061,-2.42925 l -9.57188,-0.0168 -7.92719,12.15 c -11.66795,17.88345 -31.05324,46.81153 -46.08896,68.77715 -2.11013,3.08268 -2.35929,3.58157 -1.97724,3.95907 0.6553,0.64748 9.55113,4.42909 14.86302,6.31826 10.56918,3.75891 21.27673,6.15818 31.32412,7.01887 4.83375,0.41407 13.68191,0.38356 14.02056,-0.0483 z m 25.07658,-3.3556 c 20.62812,-5.81988 30.88992,-14.10463 35.54439,-28.6963 1.81731,-5.69728 3.0594,-13.27963 3.05727,-18.66347 -0.004,-10.26475 -4.38279,-20.37002 -12.58671,-29.0476 -2.3805,-2.51793 -2.70723,-2.76497 -3.12411,-2.36203 -0.25605,0.2475 -1.97118,3.6225 -3.81135,7.5 -10.98609,23.14918 -17.11466,41.27977 -22.02551,65.1597 -1.22051,5.93496 -1.3659,7.1403 -0.86127,7.1403 0.0849,0 1.79822,-0.46377 3.80729,-1.0306 z M 196.71772,251.175 c 5.4869,-7.47467 10.17869,-14.69931 21.38195,-32.925 11.54443,-18.78071 17.90921,-28.36934 24.04073,-36.21771 1.45333,-1.86026 2.64628,-3.53641 2.651,-3.72477 0.0151,-0.60409 -1.35174,-0.71306 -5.10153,-0.40669 -6.46725,0.52838 -11.99661,1.62974 -20.50703,4.08463 -27.37196,7.89566 -58.26837,24.47542 -73.23284,39.2985 -3.6218,3.58759 -5.36831,5.67907 -5.16706,6.18768 0.0823,0.2081 3.03361,1.64549 6.55838,3.19422 12.16848,5.3466 29.16988,13.9398 41.80868,21.13179 2.475,1.40837 4.65758,2.57005 4.85018,2.58151 0.1926,0.0115 1.41549,-1.43041 2.71754,-3.20416 z m 117.70292,-81.75 c 2.57859,-9.5635 2.68722,-16.24277 0.33231,-20.43596 -5.21376,-9.28378 -21.83163,-3.15193 -35.21554,12.99423 -1.29171,1.5583 -2.30137,2.9758 -2.24368,3.15 0.0648,0.19559 2.10603,0.39384 5.33701,0.51834 9.64954,0.37184 18.29146,1.60516 25.9018,3.69654 2.1354,0.58682 3.94665,1.13105 4.02501,1.2094 0.0784,0.0784 0.45225,0.14245 0.83088,0.14245 0.55602,0 0.75459,-0.24528 1.03221,-1.275 z m 702.00216,158.31774 c -6.1684,-1.11645 -10.3633,-5.13195 -11.9221,-11.41212 -0.7219,-2.90844 -0.7184,-10.39056 0.01,-14.08062 1.291,-6.57135 3.1816,-12.72763 6.2648,-20.4 2.4162,-6.0125 4.539,-10.44744 8.6158,-18 12.4846,-23.12849 16.4857,-29.78227 36.7106,-61.05 23.1385,-35.77224 30.5254,-47.59958 39.3471,-63 10.2218,-17.84452 17.6422,-32.9886 20.653,-42.15 5.3123,-16.164504 1.8166,-28.917066 -10.1548,-37.045446 -4.8148,-3.269133 -10.9583,-5.785647 -19.7074,-8.072586 -11.0334,-2.884023 -21.9868,-4.812627 -34.5863,-6.089724 -4.9758,-0.504351 -23.5598,-0.502029 -28.35,0.0035 -34.36459,3.626922 -55.27219,18.97455 -60.87127,44.683743 -1.13757,5.223243 -1.3788,7.896327 -1.37361,15.220473 0.007,10.09975 1.06827,17.5036 3.63324,25.35 1.36899,4.18784 5.31795,12.06215 7.82343,15.6 3.07275,4.33892 9.64806,10.76272 13.88823,13.56824 5.66829,3.75043 10.81911,6.1085 16.86798,7.72222 13.7256,3.66177 28.205,2.29668 41.2211,-3.88625 11.0243,-5.23684 17.5689,-11.95856 28.7161,-29.49355 1.8399,-2.89425 1.9765,-2.10584 0.7403,4.27413 -1.1539,5.9557 -3.6898,11.99966 -7.244,17.26521 -3.6966,5.4764 -10.5594,11.58656 -17.4579,15.54322 -15.891,9.11427 -40.0234,11.82782 -61.80303,6.94937 C 960.1563,173.13115 940.014,157.73371 932.31138,137.1 c -3.74526,-10.03277 -4.48389,-21.13028 -2.28273,-34.29658 3.16764,-18.947222 12.74784,-34.669874 28.07709,-46.079102 25.3221,-18.846687 66.66276,-26.888506 116.49426,-22.661106 32.7493,2.778252 66.1241,11.2302 79.9274,20.241069 5.6872,3.712695 6.6515,6.232428 4.2889,11.207412 -0.5925,1.247592 -30.0701,51.109087 -65.5058,110.803327 -49.4959,83.37971 -64.7688,109.33459 -65.8966,111.98498 -3.7526,8.81961 -5.1497,17.71785 -3.2614,20.77317 2.8025,4.53453 10.0863,1.30191 24.0475,-10.67252 14.9063,-12.78501 29.8909,-28.89597 44.2915,-47.6207 9.4303,-12.26198 16.8685,-22.85718 30.4772,-43.41268 31.3305,-47.32379 34.7347,-52.35128 43.8202,-64.71727 13.507,-18.3837 24.7063,-31.58167 38.5906,-45.477354 10.5047,-10.513395 17.5308,-16.757724 27.5187,-24.457035 15.788,-12.170316 26.7921,-18.141804 43.9018,-23.823735 14.9529,-4.965696 29.7871,-7.916631 47.4,-9.429201 7.3214,-0.628746 17.2499,-0.947886 17.0018,-0.546504 -0.1066,0.172539 -0.9719,0.405231 -1.9228,0.517095 -3.4458,0.405351 -12.0341,2.261463 -16.6492,3.598236 -26.2999,7.61775 -53.3851,24.968952 -81.4812,52.198122 -25.4379,24.653016 -47.5635,51.141676 -85.4668,102.320376 -26.5344,35.82806 -30.1172,40.64183 -35.8628,48.18472 -33.2698,43.67707 -54.5747,65.4059 -74.6438,76.12907 -9.8181,5.24595 -20.351,7.39956 -28.7524,5.87895 z m 155.7816,-12.84789 c -6.8371,-1.75041 -11.0014,-7.36362 -12.5989,-16.98231 -0.6873,-4.13871 -0.683,-12.17084 0.01,-16.36254 1.582,-9.58571 5.3218,-18.38086 13.7282,-32.2855 7.0036,-11.58435 8.4677,-14.07053 10.2258,-17.36468 3.574,-6.69685 6.0516,-13.66035 6.9912,-19.64982 0.6897,-4.39669 0.4694,-11.65997 -0.4731,-15.6 -0.3552,-1.485 -0.7194,-3.02351 -0.8094,-3.4189 -0.1572,-0.69078 -0.112,-0.71279 1.1548,-0.56263 2.6547,0.31467 11.3839,4.54232 16.9183,8.19374 4.0192,2.65167 7.7166,6.21819 8.1376,7.84947 0.1297,0.50242 -1.0168,2.52429 -4.7631,8.4 -24.962,39.15033 -36.8576,66.69518 -35.0734,81.21384 0.4735,3.85278 1.0393,5.30484 2.6434,6.78342 3.6941,3.40515 8.4552,3.36504 14.5756,-0.12282 9.2775,-5.28701 22.2555,-19.80006 35.1296,-39.28497 2.6325,-3.98431 3.5207,-5.59035 3.9209,-7.09004 2.453,-9.19116 8.8222,-20.08955 17.5391,-30.01111 4.8725,-5.5458 15.7526,-16.12448 20.7792,-20.20361 3.0774,-2.49729 9.0492,-6.20455 13.6111,-8.44971 13.5698,-6.6784 23.9716,-7.35592 29.1289,-1.89731 2.7331,2.89284 3.7319,5.84993 3.9352,11.65063 0.1813,5.17226 -0.2782,7.49833 -2.2819,11.55 -4.1067,8.30435 -11.7234,15.18436 -26.7322,24.14659 -11.6137,6.93493 -32.3662,21.10688 -34.3584,23.46352 -1.187,1.40415 -2.7309,4.79303 -3.4258,7.51966 -1.3129,5.1522 -1.3962,14.01153 -0.1809,19.25172 0.9786,4.2199 3.0481,7.26051 6.0031,8.82036 1.3719,0.7242 1.8178,0.79815 4.812,0.79815 4.0151,0 6.1317,-0.58425 11.4,-3.14664 9.327,-4.53652 19.9626,-12.8393 32.25,-25.17641 6.1384,-6.16314 7.5779,-7.77513 8.732,-9.77833 28.9765,-50.29191 69.3454,-118.57781 88.5463,-149.78015 l 5.2192,-8.48152 17.9763,-13.941795 c 9.8869,-7.667985 18.0822,-13.942548 18.2118,-13.943475 0.3878,-0.0027 -0.047,0.687315 -11.3905,18.086994 C 1382.0177,175.28833 1358.2685,214.7882 1339.398,252.6 c -11.4259,22.89479 -13.2599,27.89015 -14.0053,38.14807 -0.4228,5.81783 -0.026,9.77666 1.2316,12.28034 0.6576,1.3092 2.4165,2.90664 3.4325,3.11727 0.4095,0.0849 1.0506,0.21654 1.4248,0.29256 1.0703,0.21747 4.4187,-0.5958 6.6863,-1.62396 10.1444,-4.59969 27.6835,-21.87262 38.3371,-37.75528 2.5741,-3.83749 4.8086,-8.17599 5.2562,-10.20547 0.1573,-0.71306 0.5216,-1.55681 0.8095,-1.875 1.1386,-1.25806 3.902,-0.2976 4.8473,1.6847 l 0.509,1.06733 -1.4628,2.75972 c -4.9159,9.27469 -13.2322,21.54627 -20.0661,29.60972 -8.8979,10.49877 -16.1898,16.80483 -23.7468,20.53626 -4.8049,2.37252 -7.0823,2.97534 -11.25,2.97777 -5.8513,0.003 -10.0562,-1.69737 -13.9882,-5.65782 -2.0331,-2.04786 -2.6947,-2.97513 -3.9817,-5.58105 -2.3186,-4.69444 -3.606,-10.78877 -3.6387,-17.22516 l -0.01,-1.8 -1.9859,2.25 c -1.0923,1.2375 -3.8257,4.0725 -6.0743,6.3 -17.0177,16.85799 -35.2024,24.47349 -48.5811,20.34507 -12.4753,-3.84966 -22.1524,-17.7381 -23.3209,-33.47007 -0.1134,-1.52625 -0.3186,-2.775 -0.4562,-2.775 -0.1375,0 -0.432,0.30375 -0.6545,0.675 -0.2225,0.37125 -0.9229,1.5525 -1.5565,2.625 -3.682,6.23249 -13.5457,16.98081 -20.5528,22.39593 -8.4573,6.53583 -16.2965,10.76358 -23.55,12.70059 -3.0322,0.80973 -8.6256,1.06674 -10.8457,0.49833 z m 89.8661,-59.00217 c 13.8133,-7.9138 27.0259,-20.17024 35.7313,-33.14531 5.6198,-8.37631 8.2673,-15.87831 6.2982,-17.84737 -2.7432,-2.74321 -11.6439,3.18718 -24.6023,16.39206 -5.6561,5.76364 -7.6487,8.29429 -12.1464,15.42557 -3.4149,5.41455 -8.617,16.48869 -9.6099,20.45737 -0.153,0.61139 -0.095,0.825 0.2222,0.825 0.2358,0 2.0839,-0.9483 4.1069,-2.10732 z M 1683,313.92021 c -8.4251,-1.0008 -13.5753,-2.9604 -17.2205,-6.55221 -4.7036,-4.63476 -6.7511,-11.1724 -6.3945,-20.418 0.2644,-6.85644 1.6045,-13.01965 5.1531,-23.7 4.3332,-13.04183 9.4973,-25.06305 19.2397,-44.78783 3.2022,-6.48331 5.8222,-11.86895 5.8222,-11.96809 0,-0.42598 -6.3625,0.21461 -9.063,0.91249 -7.6599,1.97947 -13.3571,6.84095 -16.8987,14.41965 -0.7386,1.58058 -1.4655,2.87378 -1.6154,2.87378 -0.5518,0 -3.5454,-3.64066 -4.3578,-5.29968 -0.4609,-0.94121 -0.9811,-2.54726 -1.1561,-3.56899 -1.1865,-6.92624 4.949,-15.79778 14.1741,-20.49521 5.9239,-3.0164 9.6732,-3.72602 19.8738,-3.76144 l 7.1069,-0.0247 24.0256,-36.9 c 13.2141,-20.295 24.2251,-36.94372 24.4689,-36.99716 0.4143,-0.0908 20.1563,2.47105 21.694,2.81513 0.427,0.0955 0.6421,0.31389 0.5488,0.55703 -0.084,0.21993 -10.7617,16.41542 -23.7273,35.98998 -12.9656,19.57456 -23.5738,35.78176 -23.5738,36.01601 0,0.50586 2.585,1.52992 5.55,2.19862 2.9883,0.67398 9.461,0.64617 12.75,-0.0548 11.1312,-2.37224 21.0613,-10.0502 24.8887,-19.24406 1.3223,-3.17633 1.8263,-5.32182 2.0237,-8.61535 0.097,-1.61402 0.2773,-2.99725 0.4012,-3.07384 0.3154,-0.19489 1.8718,2.30608 3.0918,4.968 3.6085,7.87329 2.2141,15.09296 -4.3862,22.71132 -6.6451,7.6701 -18.0534,13.83951 -29.0482,15.70891 -3.9192,0.66636 -4.3673,0.66848 -19.0845,0.0902 -7.3029,-0.28695 -6.3881,-0.83553 -9.9431,5.96307 -12.3701,23.65689 -21.9724,48.53265 -24.1708,62.61693 -1.5904,10.18962 -0.2806,16.93942 3.8368,19.77197 2.163,1.48803 3.8448,1.88776 7.8406,1.86364 4.2337,-0.0256 7.7433,-0.58401 11.7776,-1.8741 12.7502,-4.07719 23.0989,-14.13668 34.6808,-33.71151 3.9347,-6.65007 4.1967,-6.99752 5.8173,-7.71438 1.2476,-0.55187 1.4809,-0.57276 2.1573,-0.19315 1.0463,0.58731 1.5097,1.6404 1.4994,3.40753 -0.012,2.0943 -0.4306,3.07429 -3.1301,7.33085 -14.2216,22.42504 -31.8845,40.01011 -46.1223,45.91891 -4.9475,2.05326 -8.0741,2.73102 -13.13,2.84613 -2.3925,0.0545 -4.8225,0.0429 -5.4,-0.0258 z M 394.1442,313.1766 c -9.78714,-1.43571 -15.98019,-6.79977 -18.38013,-15.91984 -3.21633,-12.2225 -0.62805,-23.1435 8.98386,-37.90676 4.17036,-6.40541 9.01344,-12.55004 21.25692,-26.9697 2.08734,-2.45834 3.79515,-4.60131 3.79515,-4.76215 0,-0.17721 -0.67971,-0.22043 -1.725,-0.10968 -3.95817,0.41938 -16.80936,0.56447 -20.175,0.22778 -5.95434,-0.59568 -9.85131,-1.7404 -11.6376,-3.41855 -0.87276,-0.81991 -1.18659,-0.63826 -3.3624,1.94622 -4.12959,4.90521 -7.07367,11.84315 -9.15405,21.57214 l -0.48885,2.28607 -4.33176,3.93893 c -4.28901,3.90004 -5.52534,4.63909 -5.52534,3.30291 0,-1.57408 1.34184,-9.72563 2.09286,-12.71397 2.22015,-8.83392 5.81301,-15.09218 12.86802,-22.41441 2.22627,-2.31058 3.0645,-3.37898 2.94768,-3.75715 -0.0898,-0.29064 -0.53163,-1.40594 -0.9819,-2.47844 -2.11638,-5.04089 -0.29904,-12.21574 4.65528,-18.37931 6.65931,-8.2847 16.84404,-12.86442 24.18801,-10.8765 3.65832,0.99026 7.2948,4.0628 9.06099,7.65581 0.68901,1.4017 0.81084,2.03374 0.80952,4.2 -0.003,3.97267 -1.46271,6.91692 -5.99475,12.08676 -1.23513,1.40898 -2.24571,2.72195 -2.24571,2.91772 0,0.63679 11.04354,-0.13629 17.68218,-1.2378 9.16995,-1.52154 14.32767,-3.76235 21.87777,-9.50499 2.08452,-1.58549 4.73439,-3.59798 5.88858,-4.4722 1.15419,-0.87422 2.30439,-1.58949 2.55603,-1.58949 0.41544,0 4.30548,4.85589 4.68744,5.85128 0.0971,0.25303 -1.00911,1.64819 -2.79942,3.53068 -8.8581,9.31415 -22.66341,25.88872 -32.01153,38.43283 -22.93227,30.77246 -30.97956,50.57861 -23.64123,58.18613 0.61059,0.633 1.72566,1.46598 2.47791,1.85103 1.5669,0.80208 5.31981,1.64805 7.31097,1.64805 3.94512,0 15.57945,-6.19518 25.19733,-13.41732 5.7639,-4.32815 9.95664,-8.03744 16.69365,-14.76874 7.01499,-7.00905 11.04597,-11.61863 16.36293,-18.71163 6.61728,-8.82768 8.97864,-13.37496 18.56601,-35.75231 2.68632,-6.27 5.64183,-13.00312 6.56781,-14.9625 0.92595,-1.95937 1.68357,-3.70001 1.68357,-3.86808 0,-0.48817 -5.8485,-0.0424 -8.47266,0.64574 -8.22069,2.15581 -13.39245,6.39109 -17.09592,14.0003 -1.68456,3.46112 -1.66986,3.43933 -2.18919,3.24004 -0.94125,-0.36119 -3.15033,-3.78848 -3.81,-5.9111 -0.82092,-2.64136 -0.87066,-7.34205 -0.11139,-10.52502 1.59105,-6.66986 6.33084,-11.4446 13.82916,-13.93115 5.55549,-1.84228 10.79049,-2.50032 19.72905,-2.47994 l 6.22905,0.0142 1.26018,-2.01125 c 0.69309,-1.10617 3.37302,-5.18373 5.95539,-9.06123 24.57615,-36.90196 50.62581,-65.86916 77.22633,-85.875576 9.93033,-7.468668 19.40874,-13.340067 29.96664,-18.562809 C 626.49027,67.39971 639.48,63.347769 654.3,61.29675 c 5.48286,-0.758802 19.66521,-0.756474 25.05,0.0041 5.24004,0.740142 10.35057,1.82835 14.5383,3.095706 25.87326,7.830162 45.61485,26.779518 50.46444,48.439284 0.59541,2.65921 0.69405,3.90302 0.6753,8.51415 -0.0198,4.86276 -0.10149,5.69633 -0.82131,8.37858 -3.45867,12.88781 -14.28978,22.14132 -30.76584,26.28466 -18.12954,4.55915 -44.33637,2.99247 -61.02495,-3.64815 -15.80067,-6.28731 -25.29543,-17.04139 -28.70757,-32.51509 -0.64335,-2.91749 -0.76848,-4.48436 -0.33681,-4.21758 0.14937,0.0923 0.90984,1.25653 1.68993,2.58716 2.00538,3.42066 4.73115,6.72575 9.26388,11.23283 8.77281,8.72315 17.92158,14.04689 28.93059,16.8349 6.19836,1.56972 9.67713,1.89598 21.04404,1.97361 10.71243,0.0732 12.98847,-0.12652 18.3,-1.60561 7.64709,-2.12947 14.42475,-6.85539 18.43344,-12.85326 5.20983,-7.79498 6.6351,-18.45193 3.88488,-29.04788 C 721.50657,91.609407 711.67509,79.983213 698.85,73.927128 693.34185,71.326149 687.16317,69.637146 680.71959,68.970993 676.53264,68.538138 668.3076,68.772765 663.9,69.450789 c -37.61334,5.786106 -80.18448,38.776981 -124.07739,96.154871 -7.9569,10.40147 -18.18801,24.68948 -18.24177,25.47508 -0.0581,0.84991 3.07947,1.02522 8.73027,0.48778 5.3976,-0.51334 8.58669,-1.18865 11.31831,-2.3967 5.57301,-2.46464 9.84507,-7.42032 12.14259,-14.0856 0.54717,-1.58742 1.11648,-2.88622 1.26516,-2.88622 0.37896,0 2.28528,3.046 3.28185,5.24387 1.3857,3.05609 1.8777,5.38895 1.86777,8.85613 -0.0313,10.93811 -6.07281,17.26842 -18.66822,19.56076 -2.91126,0.52983 -4.60134,0.62863 -10.51857,0.61486 -4.2117,-0.01 -8.9088,-0.20949 -11.66703,-0.49601 -6.20835,-0.64492 -5.90322,-0.67417 -6.73221,0.64539 -2.2881,3.64215 -16.38174,30.05113 -27.89751,52.275 l -7.38396,14.25 -0.89583,4.5 c -1.34148,6.73868 -1.61286,9.38674 -1.44333,14.08393 0.11823,3.27566 0.29769,4.62831 0.80451,6.06427 1.24608,3.53038 3.70515,6.05548 7.02582,7.21447 2.39418,0.83562 8.8539,0.74973 12.03954,-0.16005 4.99869,-1.42758 11.73027,-5.25307 17.85,-10.14397 3.49671,-2.79456 11.81136,-11.16938 15.5799,-15.69261 3.582,-4.29937 7.14669,-9.05783 10.02942,-13.38822 1.8366,-2.7589 2.07504,-3.30189 2.73735,-6.23294 2.98113,-13.19331 10.31295,-25.76504 22.04817,-37.80555 14.03586,-14.40104 29.06634,-24.18351 40.65765,-26.46171 3.20397,-0.62973 8.67225,-0.61131 11.54751,0.0389 5.86395,1.32604 9.65472,4.91695 10.93806,10.36141 0.68202,2.89331 0.60201,7.55495 -0.17271,10.06547 -2.8332,9.18111 -12.21387,18.4701 -31.16535,30.86079 -2.5575,1.67213 -8.7675,5.58317 -13.8,8.69122 -11.40393,7.043 -16.90464,10.73366 -17.8215,11.95719 -1.74465,2.32816 -3.13902,6.46877 -3.80448,11.29741 -0.60375,4.38099 -0.53451,14.34862 0.11763,16.93061 1.19676,4.7383 3.78777,8.09965 7.33434,9.51505 1.51713,0.60546 2.24598,0.68856 6.07401,0.69246 3.84573,0.004 4.69779,-0.0923 7.35,-0.82962 3.40086,-0.94548 8.05704,-3.07434 11.30205,-5.16746 9.1575,-5.90678 19.31841,-16.6542 29.04093,-30.71724 1.53093,-2.2144 5.2524,-7.23852 8.26995,-11.16471 14.07645,-18.31517 19.80195,-27.87886 22.07754,-36.87761 1.35504,-5.35846 -0.003,-10.8001 -4.29759,-17.23148 -0.98514,-1.47498 -1.15551,-1.93375 -0.94359,-2.54072 0.55299,-1.58382 3.20319,-2.70548 8.20071,-3.47084 3.95382,-0.60553 15.85851,-1.19992 16.24722,-0.81122 0.20166,0.20166 0.15144,1.52797 -0.15189,4.01201 -0.74895,6.13337 -0.86898,8.06077 -0.50202,8.06077 0.18129,0 1.70823,-1.0625 3.39318,-2.3611 8.2971,-6.39471 16.28769,-10.59158 24.06351,-12.6388 4.88769,-1.28683 7.64343,-1.59017 12.98274,-1.42905 4.02504,0.12145 5.06943,0.25719 7.11726,0.92501 6.47346,2.11107 10.45752,6.50572 12.15162,13.40394 1.29627,5.27835 1.10961,13.58775 -0.48522,21.6 -1.90533,9.57202 -4.93803,17.51043 -13.00815,34.05 -6.77217,13.87949 -9.48552,20.22508 -11.5254,26.95408 -1.09179,3.60143 -2.58408,10.44709 -2.58117,11.84075 0.006,2.7831 2.15712,5.54727 4.60284,5.91402 2.50119,0.37509 6.69654,-1.3242 11.14548,-4.51434 9.4539,-6.77898 22.59135,-20.83751 40.18023,-42.99732 4.5864,-5.77831 5.42907,-6.44563 7.06863,-5.59778 1.9347,1.00047 2.40885,3.95694 0.97614,6.08665 -1.22217,1.81674 -12.87039,15.73464 -17.50152,20.91173 -14.66046,16.38876 -25.96368,26.38238 -34.3053,30.33068 -3.37995,1.59981 -4.68801,1.90494 -8.20584,1.91421 -7.07307,0.0186 -12.69738,-2.5722 -15.68244,-7.224 -1.73661,-2.7063 -2.44524,-5.56392 -2.60808,-10.51757 -0.21381,-6.50503 0.58737,-12.19441 2.76714,-19.64987 1.77897,-6.08466 3.78234,-11.05661 9.82584,-24.38571 7.44564,-16.42153 10.06695,-24.02495 11.79588,-34.21553 0.86097,-5.07463 0.95964,-9.34921 0.26946,-11.67332 -1.27923,-4.30763 -6.10155,-6.09563 -12.5094,-4.6382 -10.32822,2.34911 -21.35547,11.91578 -34.40508,29.84814 -3.43404,4.71895 -5.11806,7.9938 -17.56779,34.16338 -13.62684,28.64398 -23.12667,47.97231 -23.68323,48.18588 -1.34832,0.51741 -3.75222,-1.39728 -5.10438,-4.06566 -0.951,-1.87668 -0.97974,-3.58455 -0.15537,-9.22877 0.6156,-4.21497 2.89017,-17.68815 3.19347,-18.91645 0.10143,-0.41071 0.0291,-0.675 -0.18474,-0.675 -0.19329,0 -1.99968,1.51875 -4.01424,3.375 -18.19131,16.76178 -32.98725,26.25813 -42.801,27.47049 -4.67925,0.57807 -11.04057,-0.54249 -15.80571,-2.78424 -9.6099,-4.52091 -16.75008,-14.7078 -18.81201,-26.83912 -0.26436,-1.55532 -0.48066,-3.2686 -0.48066,-3.80729 0,-0.53869 -0.12627,-1.05747 -0.28062,-1.15286 -0.15435,-0.0954 -1.40112,1.21289 -2.77062,2.90729 -15.06726,18.64167 -30.55884,30.23538 -43.41306,32.48976 -7.23315,1.26858 -16.52997,-0.30549 -22.45926,-3.80265 -2.24904,-1.32648 -5.66562,-4.74141 -7.08174,-7.07823 -3.35658,-5.53899 -4.48902,-13.05023 -3.30348,-21.91115 0.27105,-2.02565 0.40827,-3.76751 0.30498,-3.8708 -0.10329,-0.10329 -0.48171,0.18586 -0.84096,0.64256 -15.63654,19.87865 -31.25943,31.73249 -47.2878,35.87951 -6.10452,1.57941 -13.56957,2.17035 -18.42324,1.45833 z m 178.79346,-61.40141 c 20.00682,-13.67844 35.18751,-29.45713 38.73378,-40.25962 0.73152,-2.2283 0.81387,-4.78704 0.19272,-5.98821 -1.43433,-2.77369 -6.60858,-1.54904 -12.76416,3.02103 -3.02784,2.24795 -9.34434,8.3206 -12.58761,12.10161 -5.52072,6.43615 -15.05079,22.43741 -18.42561,30.93719 C 567.48906,253.09265 567,254.62241 567,254.98666 l 0,0.66228 1.125,-0.67628 c 0.61875,-0.37195 2.78445,-1.81081 4.81266,-3.19747 z M 388.53705,208.725 c 2.66751,-3.35836 3.46602,-6.74975 1.88253,-7.99534 -1.0473,-0.82379 -2.75178,-1.13383 -3.25965,-0.59293 -0.71169,0.75799 -1.95993,4.39864 -1.95993,5.71642 0,2.16447 0.94416,4.44685 1.83951,4.44685 0.1356,0 0.80949,-0.70875 1.49754,-1.575 z m 460.20366,96.49326 c -9.83325,-1.64841 -18.29673,-7.54912 -21.79587,-15.19598 -1.18026,-2.57929 -1.72632,-5.22792 -1.71933,-8.33956 0.0213,-9.53014 6.3999,-18.00649 17.99898,-23.91856 l 2.77449,-1.41416 2.59005,2.85 c 7.25445,7.98253 20.10885,20.19841 31.83597,30.25456 3.17625,2.72368 5.775,5.13406 5.775,5.35641 0,0.89843 -8.41131,5.48759 -13.5954,7.41758 -8.3076,3.09285 -16.85844,4.16412 -23.86389,2.98971 z m -41.39379,-13.6011 c -2.10387,-2.90429 -4.54752,-8.60443 -5.43609,-12.68039 -0.59274,-2.71887 -0.85653,-7.65783 -0.58764,-11.00266 0.8301,-10.32667 5.18451,-20.96629 12.72159,-31.08411 10.24524,-13.75325 24.41862,-23.74685 40.02987,-28.2249 3.79893,-1.08971 4.28607,-0.83899 1.40013,0.72062 -3.90984,2.11294 -6.43878,3.94848 -9.56748,6.94422 -7.02522,6.7267 -10.28067,15.13984 -8.892,22.97996 0.73059,4.12477 2.81334,8.87821 5.28435,12.06039 0.72099,0.92847 1.26849,1.81527 1.21671,1.97064 -0.0518,0.15538 -2.04543,1.11237 -4.43028,2.12665 -12.23898,5.20526 -19.36278,9.59341 -24.78978,15.27015 -2.82582,2.95586 -4.65984,5.95307 -5.63094,9.20227 -0.70488,2.35849 -0.92934,7.2175 -0.46983,10.17135 0.20979,1.34844 0.30654,2.52658 0.21504,2.61808 -0.0915,0.0915 -0.57015,-0.39102 -1.06365,-1.07227 z m 87.21576,-9.88853 C 887.43969,276.30205 879.61575,269.41597 872.54601,262.35109 867.59829,257.40679 862.2,251.45768 862.2,250.94943 c 0,-0.19695 1.58625,-0.94073 3.525,-1.65285 17.71749,-6.50778 26.9781,-13.559 30.4653,-23.19694 0.70005,-1.93477 0.91746,-3.11655 1.03443,-5.62267 0.23295,-4.99236 -0.84135,-7.8764 -4.08618,-10.96952 -1.03293,-0.98463 -1.49844,-1.60745 -1.20144,-1.60745 0.94839,0 6.56127,1.81113 9.16824,2.95835 14.91627,6.56402 23.50209,19.19342 23.58435,34.69165 0.0123,2.31 -0.0759,4.8231 -0.19602,5.58467 l -0.21834,1.38468 -1.56267,0.18772 c -0.85947,0.10324 -7.70517,0.20234 -15.21267,0.22023 -7.5075,0.0179 -13.98678,0.12622 -14.39841,0.24076 -1.2945,0.36019 -1.10805,1.15728 0.3546,1.51601 4.5447,1.11464 6.82902,2.13687 8.76693,3.92318 4.47747,4.12719 4.54002,11.9826 0.15642,19.64414 -1.3143,2.29713 -4.01982,5.84861 -4.45548,5.84861 -0.13677,0 -1.6494,-1.06712 -3.36138,-2.37137 z M 857.6316,245.57209 c -11.0205,-13.43359 -10.03962,-28.57199 2.23494,-34.49321 1.57764,-0.76106 3.78519,-1.54551 5.0958,-1.81081 2.94267,-0.59566 7.98285,-0.60579 10.22967,-0.0206 5.75652,1.49938 8.89389,5.60176 8.90442,11.64328 0.018,10.3623 -9.54291,21.89963 -21.52263,25.9715 -2.88159,0.97946 -3.1344,0.91346 -4.9422,-1.2902 z m 370.0232,-66.51761 c -5.1454,-0.737 -13.2677,-3.3426 -16.3404,-5.24191 -6.1549,-3.80449 -6.6839,-8.77613 -1.4542,-13.66677 5.0444,-4.71735 14.2295,-8.41967 24.1313,-9.72682 4.4822,-0.5917 12.6577,-0.42032 16.1085,0.33769 3.1045,0.68192 6.162,1.7328 6.0906,2.09333 -0.033,0.165 -1.8885,0.59973 -4.1241,0.96606 -15.6684,2.56758 -22.9429,5.95893 -22.238,10.36731 0.1049,0.65607 0.9144,2.76196 1.7989,4.67974 2.774,6.01493 3.1332,7.75365 1.8976,9.18587 -0.3731,0.43246 -1.2118,0.90639 -1.875,1.05957 -1.3652,0.31529 -1.4219,0.31452 -3.9952,-0.0541 z" style="fill:#454545" />
  </g>
</svg>
