<?xml version="1.0" encoding="UTF-8" standalone="no"?>
<!-- Generator: Adobe Illustrator 13.0.0, SVG Export Plug-In . SVG Version: 6.00 Build 14948)  -->

<svg
   xmlns:svg="http://www.w3.org/2000/svg"
   xmlns="http://www.w3.org/2000/svg"
   xmlns:sodipodi="http://sodipodi.sourceforge.net/DTD/sodipodi-0.dtd"
   xmlns:inkscape="http://www.inkscape.org/namespaces/inkscape"
   version="1.1"
   id="svg2"
   x="0px"
   y="0px"
   width="1569.9823"
   height="1135.3805"
   viewBox="1229.76 -75.637 1569.9823 1135.3805"
   enable-background="new 1229.76 -75.637 2267.717 1814.174"
   xml:space="preserve"
   inkscape:version="0.91+devel r"
   sodipodi:docname="ffms-plain.svg"><g
     id="g5088"
     transform="translate(-387.68732,-159.62808)" /><g
     id="g5291"
     transform="matrix(0.70450957,0,0,0.70450957,292.6318,-39.880436)"><g
       transform="translate(-15.488365,-70.015556)"
       style="fill:#dedede;fill-opacity:1;stroke:#ffffff;stroke-width:3.59999967;stroke-miterlimit:4;stroke-dasharray:none;stroke-opacity:1"
       id="g5117"><path
         style="fill:#dedede;fill-opacity:1;stroke:#ffffff;stroke-width:3.59999967;stroke-miterlimit:4;stroke-dasharray:none;stroke-opacity:1"
         d="m 3067.1453,704.70727 c 5.1637,-2.86319 -0.26,-16.73872 1.5314,-11.04407 14.2324,2.05553 18.9112,-10.5051 14.5617,-5.80791 11.1269,-0.58776 1.8902,-6.0176 8.84,-10.70155 2.1827,-9.63999 10.5093,4.79439 11.7607,-2.53463 -3.9023,-8.20282 2.018,-3.57171 1.5315,-10.21875 5.8313,-7.29014 -8.796,-12.69931 -4.5617,-9.77216 -1.4777,-0.27735 5.4593,-13.71142 -2.1234,-9.7928 -9.3095,1.23919 -15.3099,-9.16507 -9.8391,-9.33658 -0.5727,9.1074 -11.198,-2.70469 -3.7047,-6.09906 -0.27,-9.82687 -8.676,-10.20224 -5.4888,-20.79697 -9.296,-6.10533 -11.5659,-24.34504 -9.1193,-19.94735 -8.2678,0.34871 -11.3687,0.25236 -17.6931,-9.09357 -0.9145,-8.82936 -0.9118,-12.41922 -6.3785,-1.36085 0.3722,7.45285 -12.9068,5.97374 -8.4553,8.24717 -11.8958,10.58775 -3.3575,-11.67743 -13.0996,-10.53741 1.5715,-10.89166 10.9193,-13.38195 6.6759,-24.56682 8.2225,-7.8872 -1.847,-10.62882 10.4769,-9.88587 -0.9577,-9.43049 4.6973,-12.24687 -2.2054,-18.36963 -10.6087,-1.91324 -8.1,-11.90308 -13.0122,-20.45599 5.9397,-5.99018 -0.4375,-16.30064 -11.2841,-13.68537 2.0331,-14.22503 4.6897,-14.30957 14.7147,-19.83645 5.9042,-16.41852 32.4007,6.02999 34.4339,-13.32274 9.5293,-20.0167 19.2307,15.54772 31.6185,3.94832 14.3034,-3.51444 15.0345,12.02369 20.458,19.1957 11.7128,1.76277 20.2144,5.57138 29.0785,10.28065 5.5054,11.46586 17.5291,8.37738 27.2714,11.00413 9.2185,4.87221 18.4338,12.15398 19.6797,24.73146 -3.8172,10.76901 -4.3338,22.28447 3.0028,31.77179 -5.9951,9.01965 0.1306,21.19529 8.194,30.04872 5.9389,8.94047 14.6769,19.70511 12.7886,31.83131 3.282,11.20796 -10.9501,17.7322 -9.6071,29.38903 2.6423,8.67229 -6.4624,19.44792 -2.315,27.9969 -1.7314,10.73991 -6.0781,19.37666 -5.9381,30.92585 1.8007,9.84267 -14.0197,13.07841 -5.4374,22.30041 -4.6919,8.11815 -8.2943,16.31776 -9.2761,27.57416 -4.9331,10.56216 -9.5152,22.03458 -13.0169,31.57252 -8.8348,7.37468 -13.1165,20.11879 -21.9626,29.03204 4.3253,9.09269 -12.4826,36.58271 -8.6527,31.88962 -12.2703,-0.96227 -22.5155,0.97889 -28.0795,-7.655 -7.5369,-6.51389 -28.7861,-4.00008 -26.9861,-16.4267 1.7187,-11.48194 12.1728,-21.48557 7.0606,-33.27203 -5.3677,-3.02597 -23.4463,18.57061 -27.2629,3.16278 6.5059,-11.81229 16.5068,-27.29353 3.0222,-37.14934 -8.6514,-9.01168 -12.8922,-4.21609 -24.3148,-11.87975 1.1167,-10.79664 0.7361,-16.81305 -6.7726,-22.73691 -2.616,-8.84156 9.1692,-4.54049 13.7369,-8.6855 6.0344,-0.78196 22.4144,0.41827 16.1491,-9.9308 z"
         id="polygon128"
         inkscape:connector-curvature="0" /><path
         style="fill:#dedede;fill-opacity:1;stroke:#ffffff;stroke-width:3.59999967;stroke-miterlimit:4;stroke-dasharray:none;stroke-opacity:1"
         d="m 2819.4047,627.32181 c -12.7647,-4.77608 0.732,-8.0228 -8.2903,-17.09773 -4.4628,-6.8048 10.1598,-14.27416 7.0931,-23.77268 12.7551,6.06673 8.7651,-3.01783 6.4008,-10.25497 0.5638,-4.82408 23.7427,0.19914 31.5371,-8.28013 12.9657,-1.75045 32.3519,-6.84585 39.2108,-20.20055 10.6046,-11.88141 6.4821,-29.77172 15.0274,-41.40616 7.3414,-12.28731 14.0098,-20.68085 21.0715,-27.28527 15.47,-5.4593 28.9204,5.92229 42.7593,2.35232 16.3909,7.22828 23.6537,17.42315 35.1093,-3.18756 10.6597,-17.2967 6.8724,15.51939 7.8668,11.14454 16.4076,-0.58332 13.2515,17.97399 11.1142,15.45536 1.3751,9.96601 4.6187,15.31666 11.3136,20.89436 11.1007,1.67909 -0.9764,9.201 2.0386,16.18053 -10.7328,-1.91308 -3.6954,2.72358 -10.0459,11.93448 5.3045,9.13948 -9.481,14.36295 -5.0716,22.49849 6.5265,0.78017 1.04,21.28819 11.8712,9.32191 3.4876,4.531 10.0211,-1.5621 7.6291,-9.46359 12.0926,-12.21431 -0.1305,-0.6685 8.9822,4.83175 5.2719,12.55124 20.8178,13.27375 15.1124,8.47 4.5614,2.7317 -1.0719,15.356 10.7428,19.53241 -7.6779,11.77313 8.7085,11.03777 3.0449,21.24492 -4.1024,4.72355 3.6729,13.53433 5.7355,4.85789 3.2073,1.99086 1.6301,12.56504 9.4223,8.51127 9.5247,0.17222 9.129,10.47083 2.9533,11.01059 4.7794,2.80815 7.2064,4.11769 4.1495,9.78041 -3.8232,4.8907 -4.5292,6.40595 -2.3201,12.67451 -3.7531,0.25088 -10.4096,-7.67872 -12.1738,1.31684 -5.9559,4.01214 1.8371,9.24352 -9.6562,10.2756 0.6201,6.65709 -5.3897,3.11303 -13.7002,7.5846 7.1839,3.94572 0.668,11.36566 -0.3622,8.88681 1.7709,12.50642 -30.6506,14.45307 -23.4618,11.21279 -5.6637,-0.60994 -12.6618,6.93924 -2.7556,9.39894 -0.041,8.13578 -0.5476,25.17373 -12.2374,13.63962 -9.4959,9.39318 -23.8585,8.44655 -29.0054,-4.1241 -15.9477,4.87695 -12.4673,-12.43037 -23.7919,-12.27482 -8.0527,-0.58784 -13.035,12.66822 -15.4466,-0.71572 -5.4016,-1.12305 -11.1015,-6.27725 -19.9685,-6.3728 -4.4262,8.10952 -1.4184,11.68901 -9.7023,9.93464 -5.8096,-3.1674 -6.2128,-15.68592 -12.5994,-6.09051 -4.7631,6.23669 -25.0515,2.64735 -18.6567,3.81845 -7.931,-14.96006 -2.2741,12.09511 -12.5631,3.77122 -6.9213,3.47244 -10.4152,-2.70593 -14.9932,4.18663 -7.0209,5.34705 -10.0262,-13.10915 -12.6222,-2.35215 5.9563,1.90998 -6.8586,-4.30397 -7.2949,1.28153 -11.2987,-2.3327 -12.5417,-2.41725 -3.7556,-10.60985 4.7804,-7.12613 -5.1071,-5.66419 -2.9574,-11.80794 -2.7818,-3.17651 -2.4256,-17.59094 -8.2618,-14.64793 10.6725,-7.26642 -10.2102,-13.80869 -14.255,-4.00001 -7.6485,-8.10442 -14.6641,-7.92561 -22.8887,-14.93404 -1.8152,-8.63679 11.0758,-8.28021 8.8029,-13.94687 -11.6955,-2.31503 4.8024,-15.8599 -1.7515,-13.07891 11.3536,-0.14306 -0.1679,-14.82284 2.343,-10.2215 6.0411,-1.55488 1.9554,-5.31734 9.2577,-9.87762 z"
         id="polygon131"
         inkscape:connector-curvature="0" /><path
         style="fill:#dedede;fill-opacity:1;stroke:#ffffff;stroke-width:3.59999967;stroke-miterlimit:4;stroke-dasharray:none;stroke-opacity:1"
         d="m 2736.3136,735.82569 c 11.7475,-7.2491 1.0142,14.63846 13.9065,9.70613 -5.0038,7.58894 21.3092,7.02858 16.6988,3.94408 8.6825,-3.52533 -0.014,13.46575 9.0422,11.36594 1.7617,13.99046 15.9305,-5.74403 20.7654,4.74509 9.6008,3.40861 18.1688,13.873 15.9486,11.06993 3.6168,2.06446 12.8112,4.43336 15.4087,-3.12263 7.7097,-8.24916 13.7257,7.22794 18.6612,-2.98717 6.0024,-5.60072 1.7868,-15.57991 14.0945,-13.1963 4.5586,-6.68811 9.3266,-12.15961 7.7423,-20.29997 -3.6986,-4.14859 9.007,-9.82373 9.466,-8.41862 3.9202,-2.84793 18.6154,3.44194 15.9431,-5.00137 1.9152,-12.61521 8.3345,7.94797 16.1015,-0.14446 7.1906,5.53888 12.2485,-14.64764 15.8047,-4.62908 3.3132,13.70253 14.4172,4.71708 13.0308,3.58552 1.2985,-12.91982 13.4076,-2.02031 19.8951,-1.77488 3.4876,2.33873 6.7035,15.43722 13.42,1.52178 18.6109,3.33957 10.1034,3.45499 1.4363,14.39968 0.5484,12.34491 -9.8896,17.8223 -8.1778,28.48504 5.183,10.27375 27.7856,-3.70467 17.6019,7.85169 -19.1114,10.04727 53.0963,23.20212 20.7329,15.52145 14.5929,-2.86397 8.0906,24.46019 -1.4559,23.61546 -9.8375,2.52088 -23.5288,8.95454 -32.7716,2.00632 -16.2264,0.47112 -7.5349,18.11837 -22.0271,22.91128 -13.8309,1.94375 -25.3737,10.64169 -36.5011,17.94253 -8.4454,9.25598 -22.8087,7.0052 -30.3212,1.87816 -10.9994,6.53311 -18.6871,18.48766 -29.5072,17.11724 -6.1879,12.29949 5.1529,28.27464 -12.2848,26.83351 -4.9245,15.28442 -22.12,-2.60859 -33.5064,1.97437 -9.2713,0.0154 -14.6043,13.87475 -23.9015,7.61122 -5.8933,-6.97894 -21.4563,-1.65218 -22.9992,-12.06332 -3.0938,-5.76848 -6.3958,-15.33621 -14.3054,-9.27102 -7.5563,-1.96956 -9.4134,-8.91324 -4.2091,-15.51313 -3.4287,-6.27163 9.049,-3.69108 -2.1041,-7.73272 -4.7645,-4.99577 -17.8752,-6.54769 -12.2563,-6.86477 -10.9609,-7.06993 -0.2257,-10.02473 -5.9299,-18.27849 -2.879,-8.38091 -5.512,-17.46495 -15.1335,-18.73908 -0.3117,-7.27914 -5.0251,-19.51568 -4.6314,-17.1202 5.7076,-7.54245 -13.3738,-2.51482 -3.7643,-11.437 2.639,-5.77 20.3288,-17.49979 7.1802,-14.33981 -13.738,5.5164 -14.2108,-16.94914 -3.8377,-19.18578 -5.1818,-5.59453 -13.8454,-9.35261 -7.4778,-17.49984 9.275,-0.95502 17.6499,-11.83356 26.786,-3.08667 4.8875,-3.33953 15.3848,1.20709 17.4366,-3.38011 z"
         id="polygon133"
         inkscape:connector-curvature="0" /><path
         style="fill:#dedede;fill-opacity:1;stroke:#ffffff;stroke-width:3.59999967;stroke-miterlimit:4;stroke-dasharray:none;stroke-opacity:1"
         d="m 2747.5154,716.92556 c 6.6477,-6.94333 25.5245,-3.21276 22.0066,1.13424 13.1323,5.52238 8.4131,-1.10514 10.4098,-10.36032 4.8562,5.9984 11.8686,-14.38153 7.1889,-13.53467 4.8545,2.98145 10.3927,-12.58188 12.5402,-5.83038 -0.6142,-2.31063 -11.5466,-16.65589 -0.9491,-13.87488 7.4785,5.67915 14.9033,4.11542 21.2477,12.49982 6.2184,5.60911 18.1239,-11.50322 21.9808,3.93858 -12.9833,3.9577 -1.0729,8.83663 1.3613,15.49708 0.6149,4.92121 5.3952,17.67907 6.6117,11.8116 -2.9196,6.78374 -14.0751,10.94284 -0.7102,11.03902 3.1683,1.1615 10.7503,7.70099 12.1917,0.30628 -4.5899,-3.45224 4.8665,-4.9649 6.5291,2.82853 -1.279,5.35042 4.5201,16.73969 -4.2916,19.22017 -0.8711,9.78044 -17.6365,3.13078 -12.0546,14.40491 -7.5052,9.31506 -10.4255,7.4479 -18.6338,5.86844 -7.701,1.51164 -9.1942,10.74655 -17.4141,5.83129 -7.1573,-2.85667 -17.1635,-11.64707 -14.7318,-10.92256 -4.0735,-2.63511 -9.4355,-6.59288 -15.4608,-2.33334 -8.4129,6.66511 -18.809,-6.8916 -13.8791,-6.81983 1.6901,-15.21141 -5.3414,-2.45104 -13.4755,-7.25313 -7.9858,0.6419 -17.4892,-13.49015 -14.3008,-8.47459 -2.5876,-5.56072 -0.3709,-10.88629 2.6822,-17.18163 6.4944,-4.13927 -5.5007,-3.83353 1.1514,-7.79463 z"
         id="polygon135"
         inkscape:connector-curvature="0" /><path
         style="fill:#dedede;fill-opacity:1;stroke:#ffffff;stroke-width:3.59999967;stroke-miterlimit:4;stroke-dasharray:none;stroke-opacity:1"
         d="m 2614.424,605.57481 c -1.2577,-7.53186 -4.5507,-22.0365 -1.403,-19.60255 -4.7777,-3.89441 7.2307,-10.4431 -7.0147,-11.80519 -0.2387,-8.49287 8.8212,-10.06418 13.2321,-18.60484 17.1044,12.59842 19.5967,4.06193 38.1062,1.04447 14.4835,-1.68137 24.1391,-20.17297 33.336,-10.32938 11.0058,8.28335 28.3264,11.28385 32.0566,25.08002 12.8172,2.08322 24.4023,7.56722 39.8898,6.57341 14.5723,1.01519 29.933,3.86651 43.9321,1.07413 8.4169,0.64452 19.763,-11.43267 18.9096,2.24361 8.3452,11.34073 -10.4841,0.67986 -8.0085,12.56424 -5.7768,8.9904 -11.343,15.55589 -0.9991,23.72774 -13.9537,3.62173 10.971,8.70994 -1.5044,12.6681 2.544,8.37787 -9.5313,3.63521 -2.3292,11.44938 7.3182,3.59104 -26.3041,16.70618 -12.8932,11.55805 1.7509,4.46146 14.8712,7.75427 7.8313,11.77033 -7.8913,-0.0966 -3.9541,13.83017 -12.1092,8.6745 -4.1501,5.74334 4.2402,20.77214 4.6263,16.32973 -4.2011,8.33156 -17.0457,10.02347 -14.5709,6.23799 -3.3106,20.59666 -7.0752,3.731 -6.3411,16.77724 5.8615,12.17059 -15.766,11.10379 -12.5356,6.65615 -5.8474,-6.84516 -19.6587,7.95829 -19.8951,0.94727 -1.3686,4.12502 -0.6491,14.75105 -9.2114,14.38245 -6.5555,6.45558 -36.6718,0.0602 -28.8355,1.04311 -7.6182,5.55235 -20.26,2.24251 -19.0506,15.24323 -6.3921,-0.0459 -13.0825,-12.87244 -23.1133,-5.54581 -7.1298,7.90216 -21.1615,5.20577 -27.5104,12.89139 -11.2889,14.17386 -13.8612,4.32504 -4.9386,-6.5186 6.0609,-9.07352 0.3937,-6.15806 -2.558,-13.46452 5.1433,0.42199 2.6499,-18.25118 2.7254,-12.43587 0.7042,-1.4887 -10.3755,-12.13534 -4.9954,-12.46427 -3.744,7.73958 -8.5356,-3.89609 1.4981,-2.40342 -0.7764,-6.08225 -1.8247,-18.70948 1.1795,-16.00473 2.7149,-4.51729 -8.1859,-10.11581 -4.1632,-10.60527 -3.6556,-6.20445 -10.815,-3.80115 -9.4728,-13.41271 -7.8702,-9.38512 -2.6921,-9.72385 -3.8377,-19.581 1.1299,-7.36038 -2.9971,-15.1897 -1.7744,-15.92442 11.2373,-1.50501 10.1715,-23.80474 4.6905,-19.21832 -1.0147,-3.67218 -2.7566,-7.1933 -2.9482,-11.01564 z"
         id="polygon137"
         inkscape:connector-curvature="0" /><path
         style="fill:#dedede;fill-opacity:1;stroke:#ffffff;stroke-width:3.59999967;stroke-miterlimit:4;stroke-dasharray:none;stroke-opacity:1"
         d="m 2285.2255,495.08101 c 13.5457,-5.21085 8.6519,-28.78316 23.5471,-14.77152 17.8384,7.12534 28.4813,-15.48012 46.6229,-10.19832 17.5945,3.78954 2.9727,-26.14754 23.0309,-17.41857 13.6254,-2.38644 22.1737,5.06943 34.8863,-1.70042 12.7537,-2.82256 19.5949,3.52146 28.0053,-1.0498 5.9831,-11.63392 13.8243,-24.56035 29.6742,-14.12428 12.0746,6.88337 21.3002,-10.16677 29.7235,-16.08451 6.4907,5.05205 11.0253,1.39369 18.7027,7.29721 10.2171,-3.42792 18.3966,18.12106 24.6385,8.93901 12.2221,-14.88155 16.4788,7.98606 25.8645,7.42695 8.6585,17.03637 20.6442,12.08569 33.4069,21.16331 -5.7241,15.69706 12.7096,20.85288 12.4221,37.2227 -0.5707,13.10927 -5.4008,20.71281 -0.5629,36.42358 -5.782,1.15389 -17.7938,65.56607 -7.6044,31.04507 -6.3235,7.4798 16.0054,7.21795 2.16,13.46452 4.3266,2.96148 6.3196,6.70679 3.8006,15.51451 -1.4437,8.35935 7.5692,20.00772 1.8524,24.06887 10.0277,12.41664 -8.134,10.61824 -1.3353,16.59822 4.9969,9.18377 -25.7205,22.78678 -11.1448,12.73411 -8.2584,2.02173 -11.4936,6.43116 -20.9359,3.62379 7.2384,14.94464 -15.0116,-3.49011 -10.9217,4.98351 -10.6077,-5.786 -4.0214,11.98942 -16.1802,7.47963 -6.0602,-7.67349 -7.5334,-10.44339 -17.9919,-12.12293 -5.1049,2.1477 -23.9515,6.0829 -16.6804,-2.72353 1.3412,-2.81025 6.086,-16.89764 4.3232,-15.17567 -0.1967,-8.53406 -8.9362,-4.65169 -11.9028,-12.96658 -3.1266,-5.87811 -14.7495,-14.16733 -1.2788,-19.84075 7.2207,0.73176 -1.4505,-13.10841 5.3962,-17.39095 11.755,5.26283 9.8468,-14.16117 0.7244,-9.38656 -5.9211,-11.33523 -2.3165,-15.42874 6.5353,-12.55653 -1.4273,-4.8729 4.9378,-10.57165 -3.1052,-11.58754 -2.193,-7.02455 -11.4731,-8.59347 -15.1679,-14.59795 -9.7103,1.3282 -20.0798,-3.81386 -27.7071,-8.76895 -4.8364,-4.60088 -32.45,18.45501 -25.924,8.34667 -7.896,2.5961 -17.4074,-3.16868 -20.6791,4.65935 -7.1268,5.95188 6.1768,7.2684 0.4906,8.97848 -3.0646,3.38699 2.2819,11.0445 -6.0198,7.82947 -8.0806,-2.33957 -2.0275,16.16877 -10.4493,12.73687 -7.2175,6.22774 -9.4059,5.08389 -19.4274,7.49797 -5.72,1.70485 -24.6357,11.36674 -23.6635,1.45501 8.1287,-6.51136 -7.1082,-9.99524 0.3942,-13.13915 -0.2571,-5.35286 -9.7306,-16.88508 2.3201,-12.67176 11.8297,-2.4214 -1.3158,-18.14622 -2.558,-12.64288 -15.5359,-9.22606 -4.2724,11.7304 -18.217,7.06651 -6.0575,11.10559 -11.9853,-0.22544 -20.8247,6.16453 -10.9431,0.93919 -35.6342,9.55873 -29.0517,4.018 -3.1824,8.30976 1.6605,3.71929 -1.8936,14.72404 -4.8251,3.69475 -5.6285,10.25311 -4.6901,19.64749 -7.8226,1.11999 -17.0836,14.02712 -12.1555,-3.77575 -2.7581,-11.82735 -11.2332,-21.76889 -3.9202,-35.14921 -10.7615,-8.63744 -9.1891,-21.38552 0.3168,-29.1363 10.5525,-5.85916 0.015,-22.05089 3.1545,-32.12897 z"
         id="polygon139"
         inkscape:connector-curvature="0" /><path
         style="fill:#dedede;fill-opacity:1;stroke:#ffffff;stroke-width:3.59999967;stroke-miterlimit:4;stroke-dasharray:none;stroke-opacity:1"
         d="m 2300.1082,578.92225 c 3.3889,-3.02556 6.4235,-11.58999 3.1039,-13.35122 0.751,-10.47503 14.2413,-6.09904 23.9072,-9.31645 9.6256,-3.49492 19.8097,3.85267 23.4724,-3.73759 9.9694,2.07585 17.3592,-10.98274 14.597,-10.03551 7.3344,3.20225 11.4254,21.30485 13.5352,13.78456 -7.8554,-5.27379 -15.4677,4.19769 -5.6076,8.6236 -2.9807,12.40848 -5.7791,2.37935 1.3256,11.84599 -9.1708,11.7518 10.1524,8.30249 14.3737,16.63051 7.6523,2.84351 4.3598,22.42722 5.8372,15.48792 2.8943,10.19082 -13.4588,5.50871 -12.453,15.20593 -3.1445,7.44423 -0.016,21.14824 -8.0491,15.1007 -11.432,-2.54659 -6.0439,-16.71999 -21.32,-9.97883 -7.6174,3.44403 -21.4998,-2.15538 -18.582,-5.9857 -0.1041,3.53742 -2.0771,18.10443 -5.9831,11.50165 -9.6038,4.1448 0.381,20.52364 -16.1489,15.56187 -14.9663,6.51268 -17.495,-17.41537 -11.4578,-12.89519 -6.1797,-13.91639 11.9975,-4.21866 5.7574,-12.84931 -10.3677,-5.45976 -13.3051,-20.49399 -10.0678,-14.09165 0.7856,-9.29378 13.0509,-6.43495 1.8753,-16.3765 0.4048,-5.97331 -2.9818,-13.42982 1.8844,-15.12478 z"
         id="polygon141"
         inkscape:connector-curvature="0" /><path
         style="fill:#dedede;fill-opacity:1;stroke:#ffffff;stroke-width:3.59999967;stroke-miterlimit:4;stroke-dasharray:none;stroke-opacity:1"
         d="m 2304.0014,646.71345 c -8.8626,6.78792 25.1057,8.38088 17.8381,-3.00396 2.4706,-7.41436 8.4052,-8.54251 9.6673,-9.46147 5.0076,-11.3072 -0.5586,-14.11827 10.8804,-9.88771 2.2941,12.18599 19.5358,-2.3277 24.4859,6.05475 -5.0381,9.33568 18.7318,12.33384 11.3968,7.58996 5.1875,-8.81402 1.8545,-16.7995 9.5466,-21.73828 15.2086,-1.03554 1.5297,-18.46052 7.8621,-16.49848 0.7912,-5.94297 -16.6848,-6.53601 -11.0033,-14.52503 7.3039,-6.41085 16.5205,-2.6085 23.0817,-8.75473 6.701,5.59787 17.8304,-18.86879 14.106,-12.12272 -2.0129,-9.00593 10.224,1.02925 10.0986,-6.0493 -5.8481,-3.1206 5.2674,-6.15263 -0.073,-8.18297 -5.7363,-4.45394 8.666,-19.30701 9.4139,-10.67473 7.5541,2.21112 14.5611,-4.8208 24.9783,-4.69168 10.5001,-13.03502 14.7796,-0.27174 25.2137,3.08621 11.046,-0.29572 15.3266,4.04973 23.2413,8.40719 3.3855,8.6383 11.4664,15.53046 10.6699,11.35034 -2.86,18.36227 -7.0974,-9.6366 -10.0504,11.11009 -3.2518,8.91247 8.859,7.14605 10.7015,15.02803 -2.76,7.18274 -14.2912,2.29635 -12.0771,12.34576 6.6758,12.66924 -12.5921,7.08056 -8.7396,20.90655 9.6734,4.35358 8.6732,12.20741 15.5943,16.24858 5.7539,-1.58329 -6.1357,19.15392 -1.0141,15.40084 5.2183,4.42731 -7.3917,7.5557 5.3332,12.33334 -9.8325,-0.67477 -15.2459,8.40763 -16.0844,17.71258 -2.5534,5.14044 -10.5744,10.78439 -7.9555,18.44758 10.2254,1.32476 16.4793,7.75117 10.6969,14.20088 7.1709,2.34845 -0.1206,20.31143 -5.5658,12.7277 -7.9652,-3.17205 -14.7205,4.46956 -22.3389,0.56901 2.8769,-8.05116 -17.7502,-5.35728 -12.2284,-3.97801 -13.9511,-8.08484 -5.1608,8.71716 -8.0514,7.80838 -4.3336,4.24152 -11.1516,16.38799 -1.8478,19.62915 -3.9583,9.18502 -6.4848,13.40821 -4.7267,15.57457 3.475,0.38485 12.5996,14.11381 4.5754,11.79005 -13.0213,-5.59377 -16.5826,4.4496 -16.5842,7.48513 -9.8888,-0.38668 -18.7666,8.64806 -24.3971,-1.84136 6.2622,-11.26618 -27.6129,14.88747 -14.278,4.99451 -19.1409,-6.8703 -10.8165,-10.38917 -19.4371,-20.85606 -9.3077,-8.8766 -8.4955,-21.34281 -22.9456,-26.90707 -9.0219,3.2244 -26.3361,4.87642 -34.8076,-5.33199 -10.8359,1.34434 -16.3264,-4.98342 -29.5364,-6.38242 -12.3798,-5.57791 3.6101,-16.7685 -13.0078,-19.5943 -4.4078,-8.55804 6.2704,-26.89889 -11.073,-22.28574 4.9456,-10.74844 4.9076,-22.53461 3.7323,-35.08589 -11.8946,-6.60075 -2.7808,-18.49784 -11.1871,-28.16563 -3.8984,-14.95903 10.0703,-16.15585 17.9763,-21.22301 6.2344,-0.92964 12.0663,-10.59723 17.5659,0.10705 -3.6697,4.61005 -11.6719,7.69721 -3.5939,15.71795 -11.6237,1.78616 19.0157,10.88988 4.9886,11.82307 -10.0661,-0.77085 -0.7782,20.71704 -1.8841,15.55073 5.1576,2.45408 -1.3541,1.53649 0.8437,3.24256 z"
         id="polygon143"
         inkscape:connector-curvature="0" /><path
         style="fill:#009ee0;fill-opacity:1;stroke:#ffffff;stroke-width:3.59999967;stroke-miterlimit:4;stroke-dasharray:none;stroke-opacity:1"
         d="m 2463.6256,771.38154 c 0.9511,-7.29398 -13.7909,-7.38552 -5.7349,-12.523 3.8346,-6.017 -4.044,-20.92759 -0.6333,-16.45511 0.022,-7.90433 7.9491,-15.87276 6.7488,-16.38475 -8.5812,-13.79079 30.3305,-2.90321 13.7644,-5.40672 10.2789,-4.56186 1.815,8.58785 13.8606,4.7992 4.8393,-1.17835 21.1245,6.38189 16.6668,1.0995 9.881,-2.15341 8.1391,-22.37615 5.5117,-18.86161 3.2294,-7.78162 -11.127,-6.69985 -14.3609,-14.9941 4.6578,-6.41502 11.2794,-24.4267 9.9909,-17.63877 1.0498,-12.23212 22.3915,-23.20493 16.9097,-16.89278 9.3316,-4.98892 26.7549,8.51196 23.5948,3.50483 1.9015,5.46667 16.3789,10.69827 13.7965,-1.33242 8.4194,-2.40166 33.94,-2.45199 17.8771,-0.13801 2.2232,-3.13444 2.0909,-7.11164 12.1551,-3.76572 3.1233,-3.78959 20.3892,-13.99406 21.0138,-0.93506 -3.8825,6.68034 0.9568,7.87712 3.9386,18.30514 -1.2588,8.38572 8.0399,5.23451 10.6827,13.40308 4.0963,-4.33222 -0.098,11.78215 2.1188,9.39756 2.6057,-0.23378 -8.424,11.71604 -3.9253,14.34027 -7.9307,8.3388 8.0133,-0.53259 4.0812,2.41955 4.5626,8.83666 1.6726,13.9696 3.4659,22.83915 -7.2495,3.4233 8.3618,11.85433 2.9344,8.98307 -3.964,0.2555 -4.8044,12.97695 -10.7928,19.69793 7.5175,4.29291 14.7469,-16.33134 27.1111,-12.46314 8.4587,-3.35999 19.4115,-14.61969 27.5838,-5.11098 2.898,4.06579 11.8918,18.06649 15.553,12.93815 -9.1593,5.44072 -5.8893,24.89911 7.0793,18.33341 10.7861,-1.83925 -12.7097,17.67278 -9.6153,14.38337 -6.9865,11.32946 12.8419,3.26355 3.7739,12.62821 5.4652,1.62368 10.6663,22.26369 6.6571,16.71854 11.9413,1.02242 10.9223,15.56388 17.6892,23.16286 -8.0802,5.03855 8.9711,20.24876 4.2045,15.07389 7.8209,-7.00372 7.3156,11.1364 16.3183,6.83542 -5.4463,2.19403 -3.3659,5.6017 -6.79,12.70477 -0.7918,8.01563 8.7009,9.90403 14.6859,6.84414 6.7442,7.02318 5.0497,16.04725 15.2087,18.67316 5.3683,7.27738 -30.7555,8.01952 -23.5718,10.9354 -19.5365,-1.83165 -1.1164,19.79357 -9.7791,23.66649 -12.7453,8.18783 1.929,15.2244 -12.6378,23.45429 -7.9799,-5.24546 2.1136,-12.77612 -6.3728,-9.85332 -7.0752,-3.50722 -6.4296,-6.82016 -13.6326,-6.02355 -2.1165,-4.60052 -2.6822,-14.73344 -5.6247,-11.39514 -6.678,0.49647 -8.6864,-8.84987 -15.5668,-13.76438 -4.9611,-7.71723 0.2531,-13.9112 -0.5405,-14.30084 -2.3765,-11.57497 -21.2289,5.89021 -18.6888,0.13755 -4.1567,-7.82878 -16.9156,6.23547 -17.1206,-5.60754 6.822,-7.73621 -15.9273,-7.37532 -11.073,-11.34805 -2.9733,-4.37074 -12.0848,-3.30304 -16.7085,-5.16921 -8.7906,-1.65116 -7.8349,3.13765 -14.1628,6.23294 -8.2661,-2.19249 -25.7381,-12.77887 -13.0858,-8.90971 -5.0859,7.07271 -13.2164,1.84704 -15.4975,-6.01011 -11.2897,-3.02219 2.209,-16.98578 -7.9189,-22.00972 -5.1825,-3.21383 -13.3867,-4.97632 -17.1096,-3.93881 5.4607,-8.58894 -2.5948,-12.34661 1.4475,-19.78645 -7.1343,-7.94542 -12.8582,4.83675 -20.035,-0.33405 -9.9401,7.22599 -9.4647,-11.38554 -20.578,-3.45089 -12.4234,-0.68992 -13.3553,13.54386 -23.4639,17.07871 -7.7341,-0.64702 -7.9387,-4.67573 -15.1257,-10.09633 -3.9207,-11.8899 -6.0828,-9.32649 -14.7089,-8.86294 -2.6374,-2.09827 -10.8505,-0.84474 -13.4892,-8.90971 -6.7745,0.53371 -13.4012,3.10265 -17.0249,-9.98262 -0.7561,-8.82981 -13.0147,-24.89823 -3.2554,-29.49256 -0.9053,10.94016 11.981,9.777 19.5462,4.75747 10.3275,4.63714 7.9875,-17.97333 19.4315,-7.90007 3.7239,2.8421 7.4168,0.68207 3.2233,-3.29988 z"
         id="polygon145"
         inkscape:connector-curvature="0" /><path
         style="fill:#dedede;fill-opacity:1;stroke:#ffffff;stroke-width:3.59999967;stroke-miterlimit:4;stroke-dasharray:none;stroke-opacity:1"
         d="m 2487.5276,851.28054 c -1.8241,-7.52308 6.5403,-12.98588 10.2915,-18.40706 8.786,-8.45819 24.5216,-6.77619 22.4321,-1.853 8.1319,2.86525 14.7468,3.22632 21.1056,-2.21596 9.7079,0.53294 7.1518,21.02496 7.464,16.31001 -4.232,11.45415 -1.2903,6.08424 7.7901,7.30081 14.0725,-0.79178 15.0716,24.96316 12.7648,18.29169 -0.1022,6.40253 -7.5005,14.38433 -9.1197,23.75708 -5.3499,1.20794 -12.6937,-10.15226 -10.9583,1.70565 -7.6499,10.06556 -13.4944,6.91722 -12.9437,5.82304 -5.1357,2.08396 -2.7149,9.68179 -10.4902,7.84047 -4.3009,-4.7692 -18.053,-11.64213 -8.2581,-14.22289 1.3661,-5.11277 -0.1262,-8.20286 -6.9602,-5.27742 3.1098,-4.36765 -13.5045,-13.32869 -11.8661,-9.28522 -4.8575,4.31077 -19.6685,13.60202 -19.4907,0.94269 -3.1632,-6.90966 -7.68,-13.99509 -15.9519,-10.91385 6.52,-7.32283 14.8289,-6.42236 13.7133,-3.3162 2.0146,-2.83918 14.9107,-21.74099 10.9039,-14.83151 z"
         id="polygon147"
         inkscape:connector-curvature="0" /><path
         style="fill:#dedede;fill-opacity:1;stroke:#ffffff;stroke-width:3.59999967;stroke-miterlimit:4;stroke-dasharray:none;stroke-opacity:1"
         d="m 2334.0639,950.10808 c -5.162,-5.35835 -27.4477,-1.66395 -21.6055,-19.36813 5.1167,-13.28538 -24.9614,-7.80071 -9.0224,-25.05486 21.7945,4.11419 15.9681,-20.40026 1.0403,-16.77811 2.2139,-20.34103 32.4663,-6.23418 34.5134,-25.89466 10.5528,-18.11591 24.6995,8.12865 29.6212,-7.06838 1.621,-16.65856 17.2423,-21.12504 30.3557,-27.51369 12.5865,0.0553 27.1021,-2.76295 33.6769,-9.81347 6.3817,-2.39604 9.4823,-2.31594 13.9984,4.38085 6.5693,2.56412 6.724,3.2178 15.0603,3.56712 4.8814,-6.36357 6.5894,10.9961 12.3119,12.56753 3.2976,7.94043 15.6868,1.00457 13.9502,13.81044 -4.4164,6.34705 -14.8977,13.69915 -11.5894,13.93228 -0.1215,5.37435 -7.0132,-3.56004 -13.0325,4.21385 8.457,-3.13768 12.6811,4.23447 15.948,10.91293 -0.012,12.90222 -8.4035,12.77104 -16.5503,11.98666 -9.5903,2.32954 8.6527,19.884 -7.9557,18.44666 -5.2955,-4.67983 -7.9652,-7.29607 -15.5072,-7.24227 3.0255,10.78263 7.3793,16.02009 -3.4974,17.59019 -1.5027,5.51112 9.3192,9.67069 17.1729,11.33063 7.951,1.08343 7.9804,7.70764 5.0346,16.29547 -9.6964,5.70548 5.6122,11.70117 -1.0692,15.5466 -4.5222,3.63033 -6.8361,8.80782 -13.0097,0.0995 -12.9606,-3.5606 -7.1614,15.49333 -19.7902,12.40828 -9.1622,2.23693 1.9623,12.55748 -7.9882,14.76583 -6.1311,11.45857 19.2163,4.88711 9.0694,14.21857 -7.0621,6.7477 -8.8444,3.5679 -16.6303,2.1832 -8.3437,-1.8055 -8.7101,11.4272 -16.6305,2.9738 -0.4973,-11.4626 -5.4998,-1.6338 -10.5694,-0.7145 -3.9781,-8.4173 -15.1728,0.1925 -15.9431,-10.5171 -1.0917,-9.64796 11.0619,-17.11941 1.0089,-22.07201 -13.8961,-0.32441 1.9906,-11.07134 -8.6766,-14.64708 -2.1456,-5.26671 -15.2606,-7.21928 -8.6898,-16.69488 -7.7955,-3.65947 -12.9621,13.59027 -15.0047,2.14875 z"
         id="path149"
         inkscape:connector-curvature="0" /><path
         style="fill:#dedede;fill-opacity:1;stroke:#ffffff;stroke-width:3.59999967;stroke-miterlimit:4;stroke-dasharray:none;stroke-opacity:1"
         d="m 2223.2083,1095.215 c -6.6383,2.3876 -6.1989,-16.836 -16.9501,-12.3045 -13.6803,0.072 10.5429,-14.4226 11.3563,-21.8561 -5.8508,-6.8071 -7.0032,-33.5215 -17.1963,-21.2999 -20.4751,-5.3991 -3.9835,-23.5026 8.1867,-27.6086 -9.24,-15.4199 20.831,-14.39351 16.2999,-30.85887 11.8456,-9.72835 10.683,14.76788 12.8812,22.44517 -10.7024,15.9231 22.0769,22.481 19.9039,4.031 5.3253,0.4276 41.1281,-3.0766 10.5349,-9.78101 6.9075,-8.69254 9.0941,-31.50513 21.6154,-12.46819 -2.4032,-23.60141 21.4248,-3.36475 28.3814,-17.82064 12.1932,-0.94659 11.1263,-30.83351 17.912,-13.09195 12.9207,-14.53991 8.3106,0.64875 17.6531,4.38067 1.0454,5.5635 12.7438,8.40821 6.5022,15.05725 -0.2297,6.33538 18.784,7.44441 7.0673,16.26914 -1.9685,7.55446 -3.3962,20.70113 6.6609,17.11643 5.7604,1.7495 10.4968,7.2973 14.6251,-0.5093 -1.2363,1.8098 12.3172,7.5857 8.2449,12.9916 -3.8846,6.8627 -13.8309,3.8497 -18.1633,12.8126 2.3406,6.9578 -5.4221,10.2053 5.4432,16.6984 4.9553,8.0533 13.6098,18.928 24.9175,24.7014 16.4993,6.23 10.3672,19.7483 -4.3544,18.1667 -12.9056,3.5643 -2.6363,26.6942 -15.8426,23.9856 -6.7502,11.7748 -19.1685,11.0867 -21.5351,22.2514 4.724,12.2046 -14.4402,11.4985 -13.8245,23.4957 3.4446,16.3543 -8.8813,13.3401 -8.7991,29.4995 8.8818,10.5512 -7.0115,29.644 -14.2803,11.0402 0.9613,-11.2562 4.6897,-21.1335 -10.586,-26.9433 -3.4415,-5.6747 10.7531,-17.1481 -12.5093,-15.1523 -10.0573,-5.089 -1.947,-27.9354 -14.5959,-26.5366 -12.5209,3.51 -22.8247,0.8042 -33.9803,-3.102 -9.0732,2.1745 -17.1947,-4.4523 -24.2542,-10.102 -10.4379,-0.4967 -2.9492,-15.9196 -6.6822,-21.1981 -2.7672,-0.2977 -2.3442,-3.7831 -4.6323,-4.3094 z"
         id="path151"
         inkscape:connector-curvature="0" /><path
         style="fill:#dedede;fill-opacity:1;stroke:#ffffff;stroke-width:3.59999967;stroke-miterlimit:4;stroke-dasharray:none;stroke-opacity:1"
         d="m 2400.4759,1012.9515 c 4.3221,-9.3445 17.6897,1.3461 17.4503,-1.7836 9.3676,-0.2376 13.6535,-12.24444 1.7645,-10.6205 -8.0802,-5.01052 -0.9328,-18.31351 0.8398,-15.14756 -5.1674,-10.60422 16.2048,-3.19543 12.8612,-14.80062 5.5853,-9.17238 23.4312,4.2936 17.8868,1.08667 2.1202,-5.17811 13.1083,-9.06616 2.7646,-14.60974 1.9645,-5.78008 5.4953,-9.59522 6.6802,-17.73336 -3.468,-5.6704 -12.4862,-5.0091 -21.6319,-10.4723 -10.2264,-5.79769 6.355,-14.84201 4.768,-11.45809 -7.1475,-11.64815 -5.3996,-11.32683 3.9523,-12.29258 -0.7486,10.22402 19.2735,9.20531 13.4026,-0.50436 -7.7435,-15.43101 15.0697,-9.32851 11.6961,-9.4911 4.0193,-12.91119 12.0827,-2.70161 20.6191,-10.79463 5.1321,-3.23506 7.611,-6.19929 12.994,-0.49656 4.6321,6.79957 15.1596,10.11544 11.4448,7.27467 -0.4202,6.83125 -7.094,6.19132 1.7557,13.86984 2.88,5.0251 15.9798,7.91283 12.5814,-1.32508 6.8892,-5.08356 9.5212,4.58025 14.177,-4.5759 4.5257,-7.40329 2.7588,-10.55631 11.3343,-4.99315 6.0561,-3.93257 10.9297,-21.83923 9.9776,-18.46316 7.4609,-0.0973 9.7638,17.61603 17.565,9.6745 10.022,-5.98432 5.1524,6.38943 14.2962,8.47688 16.7343,-8.81775 -11.5034,-2.64889 12.1188,-7.88128 7.1954,0.87751 13.4841,1.91731 19.9492,4.35994 2.2211,1.1609 17.0603,0.10693 12.6961,10.9354 -5.2748,11.10637 15.3092,6.58783 12.2375,5.20864 4.7391,5.71327 12.2318,-10.92866 19.0648,-3.39754 5.7069,7.91874 0.8627,9.40875 1.7881,17.15275 8.4278,6.06303 11.6963,19.16551 14.7644,14.99777 1.4808,2.98543 5.2166,3.37021 5.3783,10.60069 5.3082,3.43688 14.6402,9.02644 12.2421,5.20405 11.4245,4.39067 4.7704,1.60735 9.0143,8.91338 2.7387,10.48941 -12.5415,21.12375 -20.5136,9.73411 -6.7611,-7.0678 -22.4629,-30.56381 -15.498,-7.31777 -4.8626,9.84882 -22.8649,9.11535 -16.8089,23.42512 -10.023,13.82643 -24.1704,-18.64487 -27.5471,6.52915 -6.1277,9.32462 -6.9608,23.49152 -13.1129,34.15632 -13.1852,5.5643 -26.972,0.1583 -24.8824,-1.8146 -7.2992,17.058 -30.4145,15.5095 -28.9605,6.8148 -2.5211,9.723 -4.3572,19.1211 -2.8117,28.8994 -9.3277,6.1528 -10.7159,19.6277 -24.1439,19.6198 -9.4133,3.3328 -20.2354,-12.9903 -30.9217,-16.7172 -13.1951,-12.2255 -13.2311,5.9932 -24.8919,1.536 -11.8089,3.0345 -20.4887,14.6593 -23.4022,24.709 -8.236,-13.5155 -17.0579,-3.6577 -28.6251,-8.3448 -14.3849,11.9628 -16.0149,5.9508 -25.0687,-5.2879 -10.4494,-6.261 -22.8047,-15.3185 -25.5018,-25.3158 -6.8136,-10.6007 -23.418,-9.0627 -6.0097,-15.838 -3.7434,-9.5221 15.7506,-19.3348 14.6548,-13.5127 3.5647,-1.5166 4.2295,-4.9449 5.6121,-8.189 z"
         id="polygon153"
         inkscape:connector-curvature="0" /></g><ellipse
       ry="564.22034"
       rx="552.06726"
       style="fill:none;stroke:#de2c68;stroke-width:26.95156288;stroke-miterlimit:4;stroke-dasharray:none;stroke-opacity:1"
       cx="2765.8232"
       cy="755.04382"
       stroke-miterlimit="4"
       id="circle4846" /><ellipse
       ry="523.94031"
       rx="511.42264"
       style="fill:none;stroke:#de2c68;stroke-width:26.95156097;stroke-miterlimit:4;stroke-dasharray:none;stroke-opacity:1"
       cx="1855.0836"
       cy="1019.2316"
       stroke-miterlimit="4"
       id="circle4844" /><ellipse
       ry="732.88849"
       rx="722.28632"
       style="fill:none;stroke:#de2c68;stroke-width:145.81285095;stroke-miterlimit:4;stroke-dasharray:none;stroke-opacity:1"
       cx="2763.468"
       cy="755.04108"
       stroke-miterlimit="4"
       id="circle4848" /><polygon
       style="fill:#ffcc33;fill-opacity:1"
       points="26,56 31,56 37,50 31,44 26,44 30,48 22,48 22,52 30,52 "
       transform="matrix(22.802064,0,0,21.717571,1024.8487,-188.72171)"
       id="polygon4850" /><polygon
       style="fill:#ffcc33;fill-opacity:1"
       points="88,53 88,47 75,47 81,41 73,41 64,50 73,59 81,59 75,53 "
       transform="matrix(17.983553,0,0,18.70177,1661.7108,-204.24757)"
       id="polygon4852" /></g><defs
     id="defs248" /></svg>
