<svg xmlns="http://www.w3.org/2000/svg" enable-background="new 1229.76 -75.637 2267.717 1814.174" height="1211" viewBox="1229.76 -75.637 1569.9823 1135.3805" width="1675" version="1.1" y="0px" x="0px">
<g transform="matrix(.7045 0 0 .7045 292.6 -39.88)">
<g transform="translate(-15.49 -70.02)" stroke="#fff" stroke-width="3.6">
<g fill="#dedede">
<path d="m3067 704.7c6.467-18.35 30.71-22.36 36.18-35.78 8.146-21.97-14.26-27.48-20.85-35.86 4.444-24.77-22.83-60.39-36.02-54.86-27.39 30.21-19.23-34.81-4.18-42.73-4.05-15.19-15.2-31.29-19.55-46.33-19.41-14.17 23.83-30.89 40.15-27.9 7.363-22.46 32.03 4.886 47 4.083 20.05 35.41 98.42 24.83 81.83 83.94 4.175 35.43 40.38 67.57 15.65 105.6-5.346 42.86-15.38 78.5-30.18 118.1-19.77 22.16-23.8 64.16-45.37 75.94-24.07-5.533-63.14-16.51-37.93-48.41 0.2372-19.17-44.57 16.32-21.19-19.74 10.93-30.98-48.21-34.63-31.26-63.52 6.501-4.505 32.08 0.9705 25.71-12.51z"/>
<path d="m2819 627.3c-18.33-21.93 3.47-48.43 18.26-53.89 34.93-2.913 69.84-22.93 70.05-62.49 13.25-56.54 67.23-17.42 97.48-26.4 12.09-25.96 15 11.91 24.58 18.81 5.513 21.95 21.29 31.47 1.834 50.44-15.18 22.3 9.81 51.87 19.65 17.19 14.69 21.89 27.52 27.08 33.84 55.89-0.2128 14.67 41.36 32.7 11.93 47.57-22.71 14.9-21.46 36.71-51.64 43.27-14.31-2.112 4.911 34.83-23.69 26.75-22.66-1.216-42.43-23.86-60.43-22.2-18.83-19.23-25 18.45-38.42-6.071-23.65 8.001-30.46 8.78-54.63 15.69-8.847-8.994-32.29 5.09-19.6-18.33-0.3059-39.41-32.9-16.42-46.94-44.14 12.66-12.99 1.848-27.93 17.72-42.1z"/>
<path d="m2736 735.8c5.577 12.22 27.53 11.79 34.99 18.8 6.847 17.41 34.55 5.969 49.46 24.08 24.48-5.933 45.01-20.5 50.99-47.94 22.87-8.925 34.91-5.678 54.14-11.9 9.652 15.12 27.75-15.87 41.91 9.294 39.59-22.05-32.5 53.77 17.68 41.54-19.24 16.28 37.96 23.38 22.87 18.98 17.45 43.88-54.81 8.514-56.33 45.96-34.81 21.34-67.61 23-100.8 39.28 6.325 47.53-45.26 21.7-69.69 36.42-24.82-9.327-45.74-25.74-43.62-44.58-26.29-10.68-22.89-52-44.38-67.95 16.13-18.87 12.57-13.9-1.117-25.52 5.663-15.83-8.024-43.46 26.43-33.09 5.327-3.646 12.88 1.673 17.44-3.38z"/>
<path d="m2748 716.9c27.88 3.193 34.85-2.378 43.31-23.36 15.99-9.302-6.205-28.98 24.19-11.29 7.833 12.75 36.63-6.08 21.82 15.37 17.18 20.04 3.027 41.31 28.72 30.53 9.798 30.95-25.97 47.13-50.03 49.54-13.51-21.24-46.84-3.457-47.13-27.61-30.04 4.753-26.52-17.01-20.89-33.17z"/>
<path d="m2614 605.6c-2.779-25.1-14.76-56.88 23.34-43.63 30.76-11.82 64.54-28.79 84.97 9.417 31.3 17.79 84.35-3.507 104.7 13.2-27.58 13.16-5.162 40.68-14.79 57.1-8.144 12.97-20.61 8.829-3.305 21.85-24.58 6.939 1.345 36.19-23.81 32.72-2.593 27.33-17.87 25.22-38.77 24.38-4.502 29.79-53.42 9.369-62 28.75-18.9-23.49-72.37 44.17-48.56-4.652-3.916-23.82-14.52-30.2-4.251-49.38-17.65-21.82-23.78-52.34-11.4-77.89-5.102-1.19-4.845-6.513-6.108-11.87z"/>
<path d="m2285 495.1c12.21-30.33 40.25-6.128 63.69-25.76 21.96 4.222 17.44-33.46 47.3-15.84 26.83 0.7335 46.61-3.425 64.3-21.5 27.07 14.53 46.77-28.35 72.72 1.672 25.73-7.647 41.85 22 70.1 30.9 18.59 34.5 9.534 80.95 1.419 113.3 9.017-16.97 13.11 38.51 11.19 55.14-6.302 26.16-28.75 24.36-48.12 26.07-11.19 20.45-31.24-12.5-49.19-3.478 20.03-23.76-28.6-38.2-4.44-57.53 6.614-15.52 11.68-14.79 1.01-31.57 28.66-14.57-44.26-52.34-62.48-25.24-24.29-9.155-20.2 18.97-34.74 32.23-27.91 22.54-61.03 6.489-42.91-17.2 6.313-32.92-30.11 9.048-51.68 2.391-34.66-9.138-11.54 38.89-38.99 41.07-3.2-32.29-13.92-58.61 2.034-87.03l-1.536-9.199z"/>
<path d="m2300 578.9c0.3563-33.56 57.56-21.11 69.99-31.88 18.14 18.39-7.78 1.545 0.9657 23.6 0.7585 16.76 43.93 36.01 11.13 53.42-0.8566 36.21-23.11-8.781-42.61 4.857-7.115-10.82-27.41 49.24-41.79 9.471 20.48-10.76-13.18-24.11 4.958-38.9-6.275-3.791-7.987-15.87-2.648-20.57z"/>
<path d="m2304 646.7c21.29 21.83 23.84-41.27 49.63-17.9 16.47-2.033 28.38 26.94 30.18-8.307 33.04-16-23.82-40.48 23.95-44.02 22.81-9.816 19.89-24.34 32.69-39.23 27.34-9.53 65.27-5.374 84.96 20.35-13.43 5.277-5.329 18.19-2.712 29.68-15.43 12.44-22.68 34-0.3109 48.22-2.099 27-4.337 28.12-21.49 56.24 27.29 13.64 6.388 49.61-18.46 28.68-27.98-11.26-21.14 25.81-25.38 43.25 20.83 15.38-23.06 19.73-34.15 20.51-5.77-9.186-33.52 10.25-35.97-18.94-17.28-45.61-95-14.28-101.4-65.96-3.818-20.23-10.16-22.7-6.19-49.63-25.33-19.25-3.08-64.23 24.36-49.28-19.53 18.21 13.82 21.32-2.907 36.96-2.201 8.238 6.896 4.661 3.261 9.37z"/>
</g>
<path d="m2464 771.4c-18.85-17.98 2.021-68.16 20.41-48.66 26.25 22.43 45.96-19.91 15.41-30.07 8.331-29.61 33.72-47.51 59.08-25.13 23.08-13.84 24.29-7.095 53.16-17.96-2.603 24.63 31.61 35.81 14.91 59.96 7.454 6.748 16.89 39.26 0.7048 55.32 19.45-21.22 78.07-27.73 65.49 9.033 18.34 8.096 12.21 6.309 1.14 24.48 14.73 14.62 21.17 45.48 35.98 60.61 22.79 7.451-3.271 30.27 25.43 33.44 33.57 29.19-38.91 11.74-21.94 47.76-10.42 29.14-10.34 16.56-32.64 7.577-5.966-15.61-25.99-25.85-26.01-43.51-28.1 16.11-32.32-15.36-59.31-17.93-24.16 4.814-29.15 2.603-42.75-8.687-7.976-8.966-0.7385-32.23-25.03-25.95 11.44-31.6-29.38-18.86-46.65-21.69-22.33 33.79-44.67-17.3-73.09-15.5-7.839-19.45-18.53-44.55 6.682-28.98 10.48-6.156 28.23-11.25 29.03-14.11z" fill="#009ee0"/>
<g fill="#dedede">
<path d="m2488 851.3c-1.824-7.523 6.54-12.99 10.29-18.41 8.786-8.458 24.52-6.776 22.43-1.853 8.132 2.865 14.75 3.226 21.11-2.216 9.708 0.5329 7.152 21.02 7.464 16.31-4.232 11.45-1.29 6.084 7.79 7.301 14.07-0.7918 15.07 24.96 12.76 18.29-0.1022 6.403-7.5 14.38-9.12 23.76-5.35 1.208-12.69-10.15-10.96 1.706-7.65 10.07-13.49 6.917-12.94 5.823-5.136 2.084-2.715 9.682-10.49 7.84-4.301-4.769-18.05-11.64-8.258-14.22 1.366-5.113-0.1262-8.203-6.96-5.277 3.11-4.368-13.5-13.33-11.87-9.285-4.858 4.311-19.67 13.6-19.49 0.9427-3.163-6.91-7.68-14-15.95-10.91 6.52-7.323 14.83-6.422 13.71-3.316 2.015-2.839 14.91-21.74 10.9-14.83z"/>
<path d="m2334 950.1c-26.33-1.524-20.58-27.13-34.61-38.94 12.58-1.119 29.06-21.18 5.019-22.26 11.37-14.82 34.32-20.34 47.23-32.09 24.55 9.898 31.78-41.98 66.36-30.63 23.82-20.54 70.16 8.971 65.77 31.58-13.31 18.1-24.33 4.943-4.535 24.24-2.812 17.68-27.28 7.861-19.79 30.15-15.82-5.658-21.32-10.96-18.16 8.738-17.29 10.94 38.15 13.38 13.33 33.82 11.18 23.87-37.78 6.535-34.38 35.6-10.7 8.488 22.55 24.07-11.72 19.33-16.07 4.936-53.88 3.457-39.34-28.36-13.34-8.348-18.54-43.23-35.17-31.17z"/>
<path d="m2223 1095c-15.4-13.28-29.05-14.69-5.594-34.16 2.804-29.23-47.83-22.13-13.7-46.76 6.721-13.44 35.12-58.85 33.87-10.56-1.429 31.08 28.48 0.027 42.45-1.333-33.93-5.855 7.402-25.25 9.85-23.83 24.33-1.029 38.75-27.3 52.94-29.94 25.01 14.79 20.68 44.77 30.99 58.8 29.66-1.389 21.81 15.6 5.017 29.93-0.63 26.55 68.67 46.4 19.63 60.57-12.46 34.07-56.52 54.98-51.7 97.87-10.79 37.85-17.22-17.64-27.24-25.21 3.852-16.86-29.28-7.623-20.77-33.81-30.6-3.181-73.22-2.213-75.75-41.55z"/>
<path d="m2400 1013c11.52-3.414 38.67-3.291 15.69-17.33 0.262-33.49 48.36-16.06 41.51-46.53 16.33-18.39-41.58-18.89-13.82-31.68-12.63-24.87 27.13 8.496 18.54-22.54 25.34-11.61 55.94-18.84 60.98 13.32 19.62-0.3779 35.8-23.45 49.21-29.98 22.74 24.81 42.2-4.1 72.63 19.45-4.988 28.43 44.55-16.4 32.29 22.5 7.3 24.19 58.7 31.07 31.6 54.14-18.54-0.4381-27.08-40.96-31.74-6.206-15.77 9.663-11.49 30.62-34.51 14.46-6.506 28.43-22.25 50.28-45.71 47.58-20.39 12.09-35-4.852-28.37 30.17-25.21 51.27-63.9-28.72-94.99 14.16-5.898 25.19-32.55-3.11-51.52 12.7-30.21-31.02-72.33-48.27-21.78-74.2z"/>
</g>
</g>
<g stroke="#de2c68" fill="none">
<ellipse rx="552.1" ry="564.2" cy="755" cx="2766" stroke-width="26.95"/>
<ellipse rx="511.4" ry="523.9" cy="1019" cx="1855" stroke-width="26.95"/>
<ellipse rx="722.3" ry="732.9" cy="755" cx="2763" stroke-width="145.8"/>
</g>
<polygon transform="matrix(22.8 0 0 21.72 1025 -188.7)" points="31 56 37 50 31 44 26 44 30 48 22 48 22 52 30 52 26 56" fill="#fc3"/>
<polygon transform="matrix(17.98 0 0 18.7 1662 -204.2)" points="88 47 75 47 81 41 73 41 64 50 73 59 81 59 75 53 88 53" fill="#fc3"/>
</g>
</svg>
