<?xml version="1.0" encoding="UTF-8" standalone="no"?>
<!-- Created with Inkscape (http://www.inkscape.org/) -->

<svg
   xmlns:dc="http://purl.org/dc/elements/1.1/"
   xmlns:cc="http://creativecommons.org/ns#"
   xmlns:rdf="http://www.w3.org/1999/02/22-rdf-syntax-ns#"
   xmlns:svg="http://www.w3.org/2000/svg"
   xmlns="http://www.w3.org/2000/svg"
   xmlns:sodipodi="http://sodipodi.sourceforge.net/DTD/sodipodi-0.dtd"
   xmlns:inkscape="http://www.inkscape.org/namespaces/inkscape"
   width="66.61293mm"
   height="59.609802mm"
   viewBox="0 0 66.61293 59.609802"
   version="1.1"
   id="svg5519"
   inkscape:version="0.91+devel r"
   sodipodi:docname="ffms-wifi.svg">
  <defs
     id="defs5513" />
  <sodipodi:namedview
     id="base"
     pagecolor="#ffffff"
     bordercolor="#666666"
     borderopacity="1.0"
     inkscape:pageopacity="0.0"
     inkscape:pageshadow="2"
     inkscape:zoom="0.98994949"
     inkscape:cx="159.38258"
     inkscape:cy="34.24875"
     inkscape:document-units="mm"
     inkscape:current-layer="layer1"
     showgrid="false"
     fit-margin-top="0"
     fit-margin-left="0"
     fit-margin-right="0"
     fit-margin-bottom="0"
     inkscape:window-width="1032"
     inkscape:window-height="588"
     inkscape:window-x="571"
     inkscape:window-y="280"
     inkscape:window-maximized="0" />
  <metadata
     id="metadata5516">
    <rdf:RDF>
      <cc:Work
         rdf:about="">
        <dc:format>image/svg+xml</dc:format>
        <dc:type
           rdf:resource="http://purl.org/dc/dcmitype/StillImage" />
        <dc:title></dc:title>
      </cc:Work>
    </rdf:RDF>
  </metadata>
  <g
     inkscape:label="Ebene 1"
     inkscape:groupmode="layer"
     id="layer1"
     transform="translate(-95.205438,-76.695098)">
    <g
       id="g6173">
      <polygon
         points="1830.881,730.97 1829.982,730.112 1828.211,730.124 1828.211,729.26 1827.322,729.265 1825.541,728.338 1823.761,728.349 1823.751,727.488 1822.852,726.628 1822.841,724.815 1823.732,723.944 1823.692,720.33 1829.881,718.549 1828.961,715.878 1831.602,714.058 1830.701,712.262 1835.102,709.553 1834.171,704.206 1833.272,702.483 1833.241,700.68 1834.121,698.861 1834.982,696.178 1837.631,695.297 1835.841,693.507 1834.072,693.517 1832.281,692.665 1831.402,691.808 1829.602,689.14 1825.121,684.704 1827.772,682.87 1828.621,680.188 1828.572,674.845 1829.442,672.164 1831.182,668.608 1832.932,665.918 1833.791,664.108 1835.541,661.42 1833.741,658.767 1836.391,657.011 1838.152,656.058 1839.911,654.308 1840.791,654.291 1841.661,652.486 1839.881,651.633 1839.862,649.831 1844.281,647.988 1844.241,645.31 1842.482,645.334 1842.491,647.135 1840.711,645.343 1840.641,638.26 1841.491,634.638 1841.471,632.899 1843.232,631.087 1843.221,630.222 1845.001,630.201 1846.772,631.064 1850.322,631.906 1852.121,633.697 1855.671,634.537 1859.221,635.456 1861.891,636.3 1864.541,635.405 1865.411,634.461 1867.192,633.587 1870.732,634.415 1872.511,635.343 1875.171,636.188 1877.852,637.972 1880.501,636.154 1882.261,634.329 1884.011,633.456 1885.781,633.444 1888.451,634.291 1886.701,636.102 1885.831,637.913 1885.841,639.652 1884.982,641.469 1885.871,643.267 1885.891,644.132 1887.682,645.921 1889.461,646.785 1890.352,647.643 1902.741,645.81 1902.721,644.009 1904.511,644.863 1911.591,644.802 1914.241,643.912 1915.131,643.917 1915.991,642.097 1915.991,641.236 1917.751,640.346 1921.301,640.327 1922.192,641.182 1924.852,642.041 1926.641,642.955 1928.402,642.006 1929.301,642.94 1934.612,642.891 1937.322,648.219 1939.091,648.208 1938.192,646.415 1942.612,646.379 1946.141,643.68 1950.562,642.779 1952.312,640.963 1947.841,635.651 1947.822,633.833 1954.841,625.768 1953.921,623.096 1952.091,616.903 1949.432,617.783 1948.522,615.125 1946.751,615.132 1944.942,611.601 1949.381,611.577 1951.112,607.071 1951.102,605.342 1953.721,601.711 1949.291,601.752 1950.141,597.329 1951.011,595.518 1950.102,594.652 1943.921,596.439 1942.102,591.11 1940.331,591.12 1938.531,588.455 1935.862,587.606 1935.852,585.805 1930.511,584.114 1923.421,584.16 1922.511,580.559 1921.602,577.888 1919.791,574.369 1921.572,574.346 1922.442,572.537 1924.192,569.848 1925.062,568.978 1927.711,568.086 1926.781,563.613 1929.432,562.718 1929.391,558.252 1931.141,556.424 1931.131,554.697 1934.652,552.865 1937.312,551.968 1935.501,548.376 1939.031,548.353 1939.031,546.613 1940.772,543.926 1938.991,543.012 1941.641,541.242 1941.581,535.899 1945.112,534.073 1944.182,528.733 1947.701,526.899 1946.791,524.227 1947.641,520.681 1947.602,517.138 1950.261,516.18 1950.232,512.642 1953.781,513.481 1955.501,508.129 1958.152,508.099 1966.152,509.851 1971.482,510.68 1971.432,505.322 1975.852,505.295 1974.942,501.756 1975.812,500.885 1978.461,499.056 1981.102,499.04 1981.991,498.171 1984.652,498.141 1986.411,496.329 1998.781,492.693 2001.442,493.543 2008.541,494.349 2013.881,496.119 2020.081,496.077 2020.121,500.556 2022.761,499.6 2023.661,500.534 2021.932,504.952 2026.341,504.045 2029.921,506.7 2029.951,510.229 2033.491,510.208 2035.281,511.135 2037.062,512.865 2038.852,513.779 2039.741,515.512 2039.772,517.315 2040.682,519.983 2045.991,519.939 2048.661,520.786 2051.312,519.905 2053.081,519.88 2056.621,518.994 2059.261,517.165 2061.011,514.487 2060.951,508.266 2060.041,505.594 2060.011,503.794 2061.781,502.909 2062.652,501.1 2063.551,501.09 2067.102,502.871 2070.661,503.713 2072.431,503.699 2075.081,502.808 2075.971,503.67 2080.362,500.095 2082.131,498.285 2083.001,497.404 2084.791,499.13 2085.701,501.786 2088.381,503.575 2089.281,505.379 2091.051,506.239 2091.951,506.233 2096.352,504.385 2099.001,503.493 2101.661,503.478 2103.442,504.331 2105.221,504.317 2105.211,502.578 2103.421,500.79 2101.612,498.135 2100.711,496.336 2099.791,492.801 2101.562,492.791 2103.352,493.643 2104.221,491.896 2105.991,492.751 2110.421,492.72 2111.341,495.379 2114.881,495.36 2115.741,492.675 2119.301,494.454 2122.841,494.432 2125.511,495.28 2128.171,494.386 2129.031,492.577 2129.011,489.035 2131.681,490.757 2131.631,485.405 2140.482,485.345 2151.112,484.388 2149.311,481.733 2155.481,479.006 2158.141,478.126 2163.471,479.817 2168.772,478.045 2168.822,483.387 2170.621,485.119 2169.741,487.788 2171.581,494.055 2175.161,496.712 2172.512,498.469 2172.522,499.409 2173.432,502.07 2164.602,504.814 2163.711,504.822 2164.621,508.355 2167.311,512.804 2170.012,515.463 2176.211,515.417 2176.241,518.095 2177.131,519.829 2177.171,523.432 2178.991,527.825 2179.022,530.503 2179.932,533.164 2180.852,537.637 2179.981,538.521 2180.041,545.667 2181.822,545.652 2187.121,544.742 2189.781,544.723 2189.811,547.391 2190.692,548.262 2192.481,549.115 2192.512,551.79 2196.061,552.698 2196.942,552.692 2196.942,553.555 2197.852,555.362 2198.762,557.094 2199.651,557.078 2203.231,562.396 2204.092,559.717 2205.871,558.84 2208.512,558.823 2209.411,559.68 2209.421,560.622 2208.561,563.3 2208.572,565.031 2209.491,568.638 2211.281,569.494 2212.192,571.29 2212.201,573.966 2210.442,574.839 2209.572,575.724 2209.572,576.663 2210.471,578.399 2208.721,579.343 2208.731,580.208 2207.842,581.077 2207.852,582.892 2208.751,583.751 2214.072,583.704 2214.081,585.519 2213.211,586.391 2211.442,586.401 2209.671,587.35 2207.921,589.096 2207.961,593.581 2206.192,593.59 2207.991,597.122 2209.801,600.725 2207.151,601.608 2208.991,609.615 2205.461,610.513 2206.401,614.991 2201.092,617.688 2199.291,614.168 2197.541,615.925 2194.881,615.936 2192.231,616.894 2192.342,629.323 2195.012,630.245 2194.981,626.626 2195.852,624.893 2197.621,624.868 2198.501,623.939 2198.481,623.061 2200.251,623.049 2202.051,623.915 2203.811,623.89 2203.791,621.214 2202.891,620.356 2203.772,619.488 2208.192,619.445 2209.092,620.301 2209.112,622.119 2210.031,624.777 2210.921,626.509 2211.822,628.309 2211.862,631.85 2212.762,632.782 2213.661,633.642 2213.682,635.44 2214.561,636.313 2211.921,638.128 2213.711,639.856 2215.501,641.649 2216.401,643.446 2215.561,647.868 2213.781,647.017 2213.842,653.223 2212.961,655.033 2212.981,655.91 2213.881,657.705 2213.901,659.506 2214.791,661.239 2215.711,663.899 2216.621,666.574 2217.522,667.502 2215.751,669.257 2214.891,671.061 2214.901,672.866 2214.022,673.749 2213.141,673.753 2212.251,672.881 2210.471,672.892 2208.701,671.978 2206.932,671.994 2207.842,674.663 2205.182,676.481 2206.112,680.016 2207.041,684.491 2215.891,682.622 2215.911,685.299 2222.121,686.186 2223.012,687.918 2222.151,688.849 2220.371,688.874 2215.031,687.103 2215.961,690.641 2214.211,693.322 2217.781,695.971 2216.022,697.79 2218.711,700.448 2213.421,704.029 2212.561,705.844 2209.932,709.403 2206.432,713.918 2204.692,718.394 2204.751,724.618 2203.012,727.292 2198.602,730.01 2198.612,731.81 2202.221,737.996 2207.501,733.483 2215.411,726.338 2224.192,718.246 2225.932,714.631 2227.682,712.88 2230.311,709.247 2239.171,709.178 2241.831,708.297 2248.881,705.558 2254.192,704.665 2257.741,704.628 2263.041,703.658 2266.581,702.758 2269.221,700.927 2271.862,698.245 2273.612,695.554 2275.352,693.801 2277.112,691.978 2281.522,690.149 2284.192,690.13 2286.831,689.242 2290.381,688.338 2293.012,687.384 2294.772,685.633 2299.201,685.604 2307.171,684.608 2309.862,688.199 2312.531,689.049 2314.331,691.703 2316.102,691.689 2317.901,693.481 2317.921,696.159 2322.362,698.8 2327.682,698.75 2327.711,701.428 2331.251,701.409 2333.942,704.054 2335.731,705.785 2338.362,704.029 2340.171,706.682 2342.842,708.404 2346.401,709.305 2348.171,710.173 2349.981,712.825 2350.881,715.485 2351.772,716.354 2353.572,719.009 2355.342,718.131 2356.251,720.795 2351.822,721.699 2350.961,724.381 2349.192,724.394 2343.961,732.452 2341.342,737.825 2339.612,742.315 2339.701,750.335 2343.301,757.456 2345.981,760.118 2346.881,761.839 2349.551,763.627 2363.741,763.508 2364.621,762.639 2367.262,761.684 2371.692,761.654 2372.551,758.111 2376.112,759.888 2373.481,762.57 2375.262,763.424 2373.541,768.793 2368.272,774.179 2368.291,776.86 2365.651,778.678 2362.112,778.7 2355.051,782.3 2354.182,783.169 2354.201,784.981 2351.551,787.677 2349.811,790.355 2348.961,793.914 2346.291,793.054 2344.581,799.286 2346.362,800.21 2343.721,802.906 2342.001,807.339 2345.541,808.239 2348.221,809.088 2348.231,809.964 2353.522,807.25 2355.301,809.027 2360.621,808.994 2361.522,809.852 2361.531,811.667 2357.991,811.69 2356.231,812.565 2357.171,818.858 2354.522,820.596 2355.421,821.531 2354.551,823.278 2357.182,821.519 2358.991,824.171 2358.121,825.919 2359.921,828.585 2361.701,829.511 2365.251,830.352 2365.272,832.156 2364.401,834.838 2362.701,841.055 2363.592,842.852 2364.491,844.586 2363.661,849.949 2365.442,850.864 2367.231,853.533 2367.272,856.197 2369.041,857.059 2371.701,857.028 2373.481,857.895 2375.262,857.884 2377.041,859.678 2377.942,859.659 2378.842,861.461 2379.731,863.197 2387.731,864.931 2392.241,872.92 2392.251,874.733 2393.161,877.388 2394.061,879.129 2394.092,883.603 2395.022,886.265 2398.621,892.461 2398.641,895.124 2407.602,905.758 2407.621,907.577 2406.751,910.247 2405.022,912.929 2402.371,914.75 2397.942,914.794 2397.942,915.653 2399.751,918.311 2402.432,920.104 2400.711,926.339 2403.371,926.305 2406.041,927.161 2408.721,928.939 2408.741,932.485 2409.641,934.288 2412.311,936.061 2413.211,936.932 2414.121,939.591 2415.022,940.459 2416.791,940.453 2419.432,937.739 2420.301,937.739 2422.072,936.87 2430.051,936.799 2430.061,938.599 2429.201,940.347 2429.221,942.166 2431.881,943.012 2431.891,944.806 2432.801,946.603 2433.701,948.344 2434.592,949.276 2436.381,951.002 2438.161,951.918 2439.942,951.904 2440.842,953.625 2440.852,955.44 2444.401,955.413 2445.291,956.28 2447.061,956.249 2448.852,957.175 2451.491,956.222 2452.381,955.361 2454.182,958.013 2453.291,958.891 2450.641,959.845 2447.981,958.924 2445.331,958.956 2443.561,959.905 2440.932,962.582 2439.161,964.339 2440.961,966.125 2442.731,966.116 2444.531,968.769 2443.661,970.588 2442.781,971.461 2441.901,973.278 2441.932,975.01 2441.061,976.826 2440.192,979.498 2438.442,981.326 2437.572,983.07 2436.701,984.877 2436.731,987.555 2437.641,990.216 2437.641,991.086 2438.541,992.013 2440.322,992.877 2443.001,994.663 2442.131,996.407 2444.781,996.381 2445.682,997.31 2446.581,999.044 2449.272,1001.693 2451.932,1002.613 2453.711,1002.603 2456.362,1001.643 2459.012,1001.623 2460.781,1000.743 2461.661,999.861 2462.541,998.914 2464.301,998.906 2465.182,998.033 2466.072,998.033 2467.831,997.151 2469.602,997.997 2471.411,1000.663 2474.081,1002.443 2475.871,1004.163 2475.891,1005.973 2477.701,1010.423 2480.432,1017.503 2482.221,1019.293 2484.012,1021.073 2484.891,1021.073 2484.911,1022.823 2483.192,1028.183 2486.751,1029.963 2488.522,1030.813 2493.891,1034.383 2496.541,1034.353 2500.092,1036.073 2502.772,1038.723 2506.342,1040.503 2509.022,1042.283 2508.932,1042.453 2507.141,1043.473 2498.572,1050.763 2494.862,1053.933 2493.602,1057.293 2489.121,1058.783 2472.561,1064.173 2465.791,1062.053 2460.531,1063.773 2457.621,1061.443 2451.362,1062.573 2443.741,1061.183 2434.401,1066.573 2431.791,1072.433 2431.661,1072.723 2427.881,1075.623 2427.751,1076.493 2427.331,1079.813 2435.991,1091.853 2437.251,1096.203 2433.991,1109.713 2435.701,1114.613 2427.272,1113.983 2425.161,1115.103 2415.262,1131.513 2414.141,1133.353 2415.001,1136.073 2417.932,1138.133 2422.121,1136.863 2423.031,1142.233 2419.641,1150.703 2407.981,1155.953 2403.022,1164.843 2402.471,1165.343 2402.061,1165.133 2402.041,1162.473 2401.141,1160.733 2400.231,1158.943 2398.432,1157.153 2395.781,1156.303 2393.991,1155.433 2390.421,1151.863 2393.951,1150.963 2394.801,1147.423 2395.682,1145.593 2399.182,1141.103 2394.741,1141.143 2395.651,1142.933 2394.772,1143.813 2393.012,1144.753 2390.352,1144.773 2388.572,1143.853 2387.682,1143.863 2385.012,1142.133 2382.322,1139.493 2380.541,1138.563 2378.772,1137.713 2377.001,1137.723 2376.092,1135.923 2376.061,1132.383 2374.291,1132.393 2374.291,1133.253 2373.421,1134.203 2372.541,1135.093 2371.651,1135.093 2370.751,1133.303 2368.961,1131.573 2367.151,1127.973 2366.281,1129.783 2364.522,1130.673 2356.541,1130.733 2354.762,1129.873 2353.871,1129.013 2352.981,1128.083 2352.072,1126.363 2352.031,1121.003 2352.901,1119.193 2352.891,1118.313 2351.081,1115.663 2351.971,1114.723 2350.182,1112.993 2343.092,1113.053 2341.311,1112.113 2342.192,1111.253 2343.961,1110.363 2345.711,1108.553 2346.581,1107.683 2346.572,1105.863 2344.781,1105.013 2343.001,1104.093 2342.092,1101.423 2341.201,1101.433 2340.342,1103.243 2339.471,1104.123 2336.811,1105.083 2335.051,1105.953 2332.352,1101.493 2330.531,1097.093 2329.621,1094.433 2327.822,1090.843 2325.131,1088.183 2322.451,1084.663 2319.772,1082.883 2317.971,1080.223 2315.291,1077.573 2314.391,1075.833 2312.621,1075.843 2311.721,1074.913 2309.942,1073.203 2309.041,1072.273 2308.141,1071.393 2308.141,1070.533 2309.022,1070.533 2308.102,1067.853 2308.081,1065.193 2309.852,1065.183 2309.822,1061.563 2308.911,1058.913 2308.881,1056.223 2307.072,1052.693 2306.161,1049.163 2309.721,1050.003 2311.491,1050.853 2312.362,1049.123 2312.342,1046.443 2311.442,1044.653 2309.651,1042.863 2307.852,1041.123 2306.951,1039.333 2306.041,1036.663 2304.241,1033.123 2302.421,1028.663 2297.112,1028.713 2293.572,1029.603 2290.921,1029.623 2287.391,1031.453 2284.751,1033.283 2280.331,1035.983 2278.592,1038.673 2276.831,1038.683 2274.161,1039.583 2272.391,1039.593 2269.751,1040.483 2270.661,1043.143 2270.682,1044.953 2269.781,1044.953 2268.881,1043.153 2266.211,1041.443 2265.322,1040.513 2262.661,1040.533 2260.901,1041.473 2259.991,1038.813 2255.561,1038.843 2253.791,1039.733 2251.151,1041.553 2249.371,1040.633 2247.612,1042.453 2245.852,1043.323 2244.081,1044.273 2237.001,1044.333 2236.092,1042.543 2235.201,1041.683 2234.301,1040.753 2233.401,1039.013 2233.342,1032.723 2235.092,1030.983 2235.971,1029.173 2235.932,1024.693 2237.671,1021.143 2238.522,1017.593 2236.731,1016.663 2229.602,1011.373 2227.801,1008.713 2226.012,1006.983 2223.342,1006.083 2218.001,1003.433 2215.371,1006.123 2214.491,1007.953 2213.621,1008.813 2211.862,1009.763 2210.961,1008.843 2209.192,1007.973 2207.411,1007.133 2208.281,1005.323 2207.391,1005.323 2205.592,1002.663 2204.711,1002.673 2202.051,1003.553 2200.281,1002.713 2198.481,1000.043 2195.831,1000.933 2194.942,1000.943 2193.182,1001.893 2190.522,1001.903 2189.621,1000.973 2187.842,999.254 2186.942,998.325 2183.401,998.345 2181.641,999.293 2178.981,999.321 2178.061,995.711 2175.401,995.724 2172.751,996.699 2165.661,996.743 2164.772,995.814 2158.572,995.865 2156.801,996.809 2155.921,996.813 2155.942,999.493 2155.072,1000.363 2155.092,1003.913 2154.211,1003.923 2153.322,1003.053 2152.432,1003.063 2151.522,1002.203 2150.641,1001.273 2147.131,1004.903 2145.381,1007.593 2142.732,1009.353 2141.862,1010.293 2140.982,1010.303 2139.232,1012.063 2138.341,1013.003 2135.681,1012.083 2134.772,1010.353 2132.971,1006.753 2130.281,1004.093 2127.612,1003.243 2127.641,1005.053 2123.201,1005.093 2122.291,1002.413 2122.281,1000.613 2123.161,999.74 2123.121,996.128 2125.772,995.244 2121.312,991.733 2120.402,989.074 2113.322,990.861 2111.551,990.867 2108.022,991.836 2107.161,994.515 2107.181,997.194 2103.652,998.954 2101.891,998.972 2099.211,998.117 2096.562,998.134 2094.781,997.278 2092.121,997.301 2091.221,996.368 2089.431,993.717 2087.641,991.986 2085.862,991.061 2085.822,986.658 2084.022,984 2083.131,983.069 2079.522,977.753 2076.862,976.902 2073.291,974.242 2070.621,972.469 2068.831,969.805 2074.121,968.033 2072.352,967.104 2072.301,962.699 2067.841,960.049 2064.272,957.406 2066.902,953.79 2069.522,949.344 2070.371,945.728 2072.081,939.5 2072.062,935.953 2071.121,932.366 2068.471,932.378 2065.801,931.528 2062.251,929.75 2061.341,928.016 2059.531,924.423 2054.232,924.46 2052.461,925.41 2050.692,926.296 2048.022,924.509 2044.461,922.805 2041.772,921.008 2040.001,920.154 2037.341,920.184 2034.701,921.063 2032.932,921.952 2031.161,922.905 2029.391,922.915 2027.612,921.99 2025.862,924.679 2024.121,927.354 2021.442,925.642 2024.951,921.139 2024.932,919.343 2024.001,914.93 2024.891,914.921 2026.652,913.972 2026.602,908.628 2027.471,906.882 2029.211,904.194 2031.871,903.253 2032.741,902.372 2032.721,899.689 2029.182,900.592 2021.971,888.208 2023.732,885.535 2024.602,883.711 2028.141,883.688 2028.072,875.668 2024.522,875.69 2018.281,872.204 2016.541,873.956 2011.192,871.31 2010.322,873.993 2009.451,874.935 2001.471,874.999 1999.751,880.35 1997.991,881.245 1997.091,879.444 1993.541,878.605 1992.661,880.411 1989.991,879.494 1989.121,880.434 1983.781,876.866 1979.362,879.57 1979.391,882.25 1976.721,882.263 1974.041,878.741 1969.591,876.98 1965.161,876.143 1960.741,877.036 1958.932,874.383 1961.581,872.626 1960.692,871.694 1960.671,869.957 1961.541,868.145 1959.741,866.353 1955.291,863.719 1950.871,864.688 1947.352,867.39 1944.692,867.406 1936.741,871.007 1931.442,871.055 1927.911,871.938 1923.461,871.978 1919.982,878.28 1911.171,882.76 1907.682,889.077 1907.711,892.614 1906.831,892.625 1905.951,893.494 1905.062,893.5 1904.171,894.445 1903.312,895.326 1902.442,897.13 1900.682,898.881 1898.932,900.706 1897.182,903.39 1895.411,904.276 1893.661,906.087 1888.341,906.999 1884.761,902.614 1881.241,905.318 1878.562,901.733 1875.921,903.542 1874.152,905.374 1869.692,901.795 1872.312,897.362 1868.772,896.461 1866.982,895.591 1865.192,893.807 1864.301,893.808 1863.402,892.952 1863.391,891.151 1862.491,890.278 1862.482,888.474 1860.701,887.626 1857.141,885.847 1855.352,884.979 1852.682,883.212 1850.891,880.542 1848.192,876.155 1847.251,870.815 1846.331,867.215 1846.301,863.665 1844.522,862.81 1843.621,861.879 1841.852,861.027 1840.961,861.033 1838.312,863.724 1837.461,866.413 1834.801,866.424 1831.261,867.325 1830.402,868.27 1828.621,868.282 1826.831,867.372 1825.932,865.624 1823.272,865.649 1821.491,864.721 1819.721,863.872 1820.581,862.063 1821.451,860.32 1818.812,861.201 1817.051,862.086 1813.531,864.79 1813.541,866.59 1809.961,863.069 1807.281,860.42 1805.491,859.495 1804.612,858.637 1800.152,856.863 1799.272,856.882 1799.232,852.461 1797.461,852.474 1797.432,849.796 1796.522,848.002 1793.852,846.217 1791.182,844.505 1789.402,843.577 1786.732,842.731 1786.741,843.594 1784.982,844.544 1784.091,844.549 1784.121,848.092 1783.251,849.913 1781.482,849.922 1779.721,850.8 1768.652,847.431 1769.591,845.031 1756.721,824.445 1750.112,805.744 1743.322,777.642 1739.541,766.177 1742.581,764.658 1744.331,762.834 1745.211,761.965 1746.091,761.019 1746.961,760.138 1749.621,760.122 1748.761,761.925 1748.772,763.668 1747.921,767.288 1749.711,769.003 1751.491,769.934 1754.161,771.655 1757.741,775.238 1755.991,777.924 1758.652,778.776 1763.982,779.603 1770.182,778.688 1770.152,776.011 1783.451,775.913 1786.091,774.097 1790.491,771.387 1792.251,770.498 1797.572,770.466 1799.352,771.318 1801.131,771.304 1802.911,772.221 1804.682,772.209 1813.371,754.294 1814.261,753.416 1815.121,751.604 1815.991,750.736 1816.871,749.795 1819.522,747.1 1828.421,752.373 1832.852,752.342 1833.741,753.274 1834.631,753.268 1835.522,754.131 1837.301,754.119 1837.301,754.979 1839.982,756.768 1841.741,755.892 1844.402,754.938 1846.171,754.926 1846.121,750.508 1843.461,750.521 1842.551,747.867 1841.661,746.071 1838.961,743.407 1836.281,739.881 1837.141,738.074 1836.192,731.861 1832.652,730.96 "
         id="polygon145"
         style="fill:#009ee0;fill-opacity:1;stroke:#ffffff;stroke-width:7.85156727;stroke-miterlimit:4;stroke-dasharray:none;stroke-opacity:1"
         transform="matrix(0.08546641,0,0,0.08546641,-53.057375,36.302789)" />
      <path
         style="fill:#ffffff;stroke-width:0.01335725"
         inkscape:connector-curvature="0"
         d="m 132.15073,119.2357 q -0.26715,0 -1.24222,-0.98176 -0.97508,-0.98176 -0.97508,-1.2489 0,-0.42743 0.83482,-0.72129 0.83483,-0.29386 1.38248,-0.29386 0.54765,0 1.38248,0.29386 0.83482,0.29386 0.83482,0.72129 0,0.26714 -0.97508,1.2489 -0.97507,0.98176 -1.24222,0.98176 z m 3.60646,-3.61982 q -0.0267,0 -0.53429,-0.33393 -0.50758,-0.33393 -1.35576,-0.66786 -0.84818,-0.33393 -1.71641,-0.33393 -0.86823,0 -1.71641,0.33393 -0.84818,0.33393 -1.34908,0.66786 -0.50089,0.33393 -0.54097,0.33393 -0.24043,0 -1.2489,-1.00179 -1.00848,-1.0018 -1.00848,-1.24222 0,-0.17365 0.13358,-0.30722 1.04187,-1.02851 2.61803,-1.61623 1.57614,-0.58772 3.11223,-0.58772 1.53608,0 3.11223,0.58772 1.57616,0.58772 2.61803,1.61623 0.13358,0.13357 0.13358,0.30722 0,0.24042 -1.00848,1.24222 -1.00847,1.00179 -1.2489,1.00179 z m 3.64653,-3.63316 q -0.14693,0 -0.30722,-0.10687 -1.81658,-1.40251 -3.36603,-2.06369 -1.54943,-0.66118 -3.57974,-0.66118 -1.13537,0 -2.27741,0.29386 -1.14205,0.29385 -1.99023,0.70793 -0.84819,0.41407 -1.51605,0.82815 -0.66786,0.41407 -1.05522,0.70793 -0.38736,0.29387 -0.41408,0.29387 -0.22707,0 -1.22886,-1.0018 -1.00179,-1.0018 -1.00179,-1.24223 0,-0.16028 0.13356,-0.29385 1.76316,-1.76316 4.27432,-2.73824 2.51117,-0.97508 5.07576,-0.97508 2.56459,0 5.07576,0.97508 2.51116,0.97508 4.27431,2.73824 0.13357,0.13357 0.13357,0.29385 0,0.24043 -1.00179,1.24223 -1.00179,1.0018 -1.22886,1.0018 z m 3.61981,-3.61982 q -0.14692,0 -0.29386,-0.12021 -2.39094,-2.0971 -4.96222,-3.159 -2.57127,-1.0619 -5.61672,-1.0619 -3.04545,0 -5.61672,1.0619 -2.57128,1.0619 -4.96222,3.159 -0.14694,0.12021 -0.29386,0.12021 -0.22708,0 -1.23555,-1.00179 -1.00847,-1.0018 -1.00847,-1.24223 0,-0.17364 0.13357,-0.30722 2.49781,-2.48444 5.94398,-3.84688 3.44617,-1.36244 7.03927,-1.36244 3.5931,0 7.03927,1.36244 3.44617,1.36244 5.94398,3.84688 0.13357,0.13358 0.13357,0.30722 0,0.24043 -1.00847,1.24223 -1.00847,1.00179 -1.23555,1.00179 z"
         id="path6160" />
    </g>
  </g>
</svg>
