<?xml version="1.0" encoding="UTF-8" standalone="no"?>
<!-- Created with Inkscape (http://www.inkscape.org/) -->

<svg
   xmlns:dc="http://purl.org/dc/elements/1.1/"
   xmlns:cc="http://creativecommons.org/ns#"
   xmlns:rdf="http://www.w3.org/1999/02/22-rdf-syntax-ns#"
   xmlns:svg="http://www.w3.org/2000/svg"
   xmlns="http://www.w3.org/2000/svg"
   xmlns:sodipodi="http://sodipodi.sourceforge.net/DTD/sodipodi-0.dtd"
   xmlns:inkscape="http://www.inkscape.org/namespaces/inkscape"
   width="38.440887mm"
   height="55.410275mm"
   viewBox="0 0 38.440888 55.410273"
   version="1.1"
   id="svg4175"
   inkscape:version="0.91+devel r"
   sodipodi:docname="mesh-net-symbol.svg">
  <defs
     id="defs4169">
    <inkscape:path-effect
       effect="bspline"
       id="path-effect4848"
       is_visible="true"
       weight="33.3334"
       steps="2"
       helper_size="0"
       apply_no_weight="true"
       apply_with_weight="true"
       only_selected="false" />
    <inkscape:path-effect
       effect="bspline"
       id="path-effect4844"
       is_visible="true"
       weight="33.3334"
       steps="2"
       helper_size="0"
       apply_no_weight="true"
       apply_with_weight="true"
       only_selected="false" />
    <inkscape:path-effect
       effect="bspline"
       id="path-effect4840"
       is_visible="true"
       weight="33.3334"
       steps="2"
       helper_size="0"
       apply_no_weight="true"
       apply_with_weight="true"
       only_selected="false" />
    <inkscape:path-effect
       effect="bspline"
       id="path-effect4834"
       is_visible="true"
       weight="33.3334"
       steps="2"
       helper_size="0"
       apply_no_weight="true"
       apply_with_weight="true"
       only_selected="false" />
    <inkscape:path-effect
       effect="spiro"
       id="path-effect4830"
       is_visible="true" />
  </defs>
  <sodipodi:namedview
     id="base"
     pagecolor="#ffffff"
     bordercolor="#666666"
     borderopacity="1.0"
     inkscape:pageopacity="0.0"
     inkscape:pageshadow="2"
     inkscape:zoom="0.49497475"
     inkscape:cx="-135.54046"
     inkscape:cy="99.057167"
     inkscape:document-units="mm"
     inkscape:current-layer="layer1"
     showgrid="false"
     fit-margin-top="0"
     fit-margin-left="0"
     fit-margin-right="0"
     fit-margin-bottom="0"
     inkscape:window-width="1479"
     inkscape:window-height="768"
     inkscape:window-x="114"
     inkscape:window-y="151"
     inkscape:window-maximized="0" />
  <metadata
     id="metadata4172">
    <rdf:RDF>
      <cc:Work
         rdf:about="">
        <dc:format>image/svg+xml</dc:format>
        <dc:type
           rdf:resource="http://purl.org/dc/dcmitype/StillImage" />
        <dc:title></dc:title>
      </cc:Work>
    </rdf:RDF>
  </metadata>
  <g
     inkscape:label="Ebene 1"
     inkscape:groupmode="layer"
     id="layer1"
     transform="translate(-64.51213,-96.428805)">
    <g
       id="g4866"
       transform="matrix(0.42542868,0,0,0.42542868,48.110335,71.323803)">
      <g
         transform="matrix(0.32,0,0,0.32,9.766904,30.736785)"
         id="g4782">
        <ellipse
           style="opacity:0.98000004;fill:#009ee0;fill-opacity:1;fill-rule:nonzero;stroke:none;stroke-width:0.17299999;stroke-linecap:round;stroke-linejoin:miter;stroke-miterlimit:4;stroke-dasharray:0.17299999, 0.17299999;stroke-dashoffset:0;stroke-opacity:1"
           id="path4720"
           cx="127.75595"
           cy="126.91071"
           rx="37.797619"
           ry="38.55357" />
        <path
           id="path4769"
           d="m 128.43631,149.18784 q -0.60843,0 -2.82918,-2.23596 -2.22076,-2.23597 -2.22076,-2.84438 0,-0.97349 1.90134,-1.64276 1.90132,-0.66926 3.1486,-0.66926 1.24727,0 3.14859,0.66926 1.90134,0.66927 1.90134,1.64276 0,0.60841 -2.22076,2.84438 -2.22075,2.23596 -2.82917,2.23596 z m 8.21374,-8.24415 q -0.0608,0 -1.21685,-0.76054 -1.15601,-0.76053 -3.08776,-1.52106 -1.93175,-0.76052 -3.90913,-0.76052 -1.97739,0 -3.90914,0.76052 -1.93175,0.76053 -3.07255,1.52106 -1.14079,0.76054 -1.23204,0.76054 -0.5476,0 -2.84439,-2.2816 -2.29682,-2.28159 -2.29682,-2.82917 0,-0.39548 0.30422,-0.69969 2.37286,-2.34243 5.96256,-3.68098 3.58971,-1.33853 7.08816,-1.33853 3.49844,0 7.08815,1.33853 3.5897,1.33855 5.96256,3.68098 0.30422,0.30421 0.30422,0.69969 0,0.54758 -2.29682,2.82917 -2.29679,2.2816 -2.84437,2.2816 z m 8.305,-8.27459 q -0.33465,0 -0.69969,-0.24336 -4.1373,-3.19423 -7.66615,-4.70009 -3.52888,-1.50584 -8.1529,-1.50584 -2.58581,0 -5.18682,0.66925 -2.60102,0.66928 -4.53277,1.61233 -1.93175,0.94306 -3.45281,1.88613 -1.52107,0.94305 -2.40328,1.61231 -0.88222,0.66927 -0.94307,0.66927 -0.51715,0 -2.79876,-2.28158 -2.28158,-2.2816 -2.28158,-2.82918 0,-0.36507 0.30421,-0.66928 4.01561,-4.01559 9.73479,-6.23635 5.7192,-2.22075 11.56009,-2.22075 5.84088,0 11.56008,2.22075 5.7192,2.22076 9.73479,6.23635 0.30421,0.30421 0.30421,0.66928 0,0.54758 -2.28159,2.82918 -2.2816,2.28158 -2.79875,2.28158 z m 8.24415,-8.24414 q -0.33463,0 -0.66927,-0.2738 -5.4454,-4.77615 -11.30148,-7.19463 -5.8561,-2.41849 -12.79214,-2.41849 -6.93605,0 -12.79215,2.41849 -5.85608,2.41848 -11.30148,7.19463 -0.33464,0.2738 -0.66928,0.2738 -0.51716,0 -2.81396,-2.28161 -2.296801,-2.28158 -2.296801,-2.82917 0,-0.39547 0.30422,-0.69969 5.688751,-5.65835 13.537441,-8.76131 7.84869,-3.10298 16.03201,-3.10298 8.18331,0 16.03199,3.10298 7.84869,3.10296 13.53746,8.76131 0.30421,0.30422 0.30421,0.69969 0,0.54759 -2.29681,2.82917 -2.29679,2.28161 -2.81396,2.28161 z"
           inkscape:connector-curvature="0"
           style="fill:#ffffff;stroke-width:0.03042126" />
      </g>
      <g
         id="g4788"
         transform="matrix(0.32,0,0,0.32,27.139423,82.587073)">
        <ellipse
           ry="38.55357"
           rx="37.797619"
           cy="126.91071"
           cx="127.75595"
           id="ellipse4784"
           style="opacity:0.98000004;fill:#009ee0;fill-opacity:1;fill-rule:nonzero;stroke:none;stroke-width:0.17299999;stroke-linecap:round;stroke-linejoin:miter;stroke-miterlimit:4;stroke-dasharray:0.17299999, 0.17299999;stroke-dashoffset:0;stroke-opacity:1" />
        <path
           style="fill:#ffffff;stroke-width:0.03042126"
           inkscape:connector-curvature="0"
           d="m 128.43631,149.18784 q -0.60843,0 -2.82918,-2.23596 -2.22076,-2.23597 -2.22076,-2.84438 0,-0.97349 1.90134,-1.64276 1.90132,-0.66926 3.1486,-0.66926 1.24727,0 3.14859,0.66926 1.90134,0.66927 1.90134,1.64276 0,0.60841 -2.22076,2.84438 -2.22075,2.23596 -2.82917,2.23596 z m 8.21374,-8.24415 q -0.0608,0 -1.21685,-0.76054 -1.15601,-0.76053 -3.08776,-1.52106 -1.93175,-0.76052 -3.90913,-0.76052 -1.97739,0 -3.90914,0.76052 -1.93175,0.76053 -3.07255,1.52106 -1.14079,0.76054 -1.23204,0.76054 -0.5476,0 -2.84439,-2.2816 -2.29682,-2.28159 -2.29682,-2.82917 0,-0.39548 0.30422,-0.69969 2.37286,-2.34243 5.96256,-3.68098 3.58971,-1.33853 7.08816,-1.33853 3.49844,0 7.08815,1.33853 3.5897,1.33855 5.96256,3.68098 0.30422,0.30421 0.30422,0.69969 0,0.54758 -2.29682,2.82917 -2.29679,2.2816 -2.84437,2.2816 z m 8.305,-8.27459 q -0.33465,0 -0.69969,-0.24336 -4.1373,-3.19423 -7.66615,-4.70009 -3.52888,-1.50584 -8.1529,-1.50584 -2.58581,0 -5.18682,0.66925 -2.60102,0.66928 -4.53277,1.61233 -1.93175,0.94306 -3.45281,1.88613 -1.52107,0.94305 -2.40328,1.61231 -0.88222,0.66927 -0.94307,0.66927 -0.51715,0 -2.79876,-2.28158 -2.28158,-2.2816 -2.28158,-2.82918 0,-0.36507 0.30421,-0.66928 4.01561,-4.01559 9.73479,-6.23635 5.7192,-2.22075 11.56009,-2.22075 5.84088,0 11.56008,2.22075 5.7192,2.22076 9.73479,6.23635 0.30421,0.30421 0.30421,0.66928 0,0.54758 -2.28159,2.82918 -2.2816,2.28158 -2.79875,2.28158 z m 8.24415,-8.24414 q -0.33463,0 -0.66927,-0.2738 -5.4454,-4.77615 -11.30148,-7.19463 -5.8561,-2.41849 -12.79214,-2.41849 -6.93605,0 -12.79215,2.41849 -5.85608,2.41848 -11.30148,7.19463 -0.33464,0.2738 -0.66928,0.2738 -0.51716,0 -2.81396,-2.28161 -2.296801,-2.28158 -2.296801,-2.82917 0,-0.39547 0.30422,-0.69969 5.688751,-5.65835 13.537441,-8.76131 7.84869,-3.10298 16.03201,-3.10298 8.18331,0 16.03199,3.10298 7.84869,3.10296 13.53746,8.76131 0.30421,0.30422 0.30421,0.69969 0,0.54759 -2.29681,2.82917 -2.29679,2.28161 -2.81396,2.28161 z"
           id="path4786" />
      </g>
      <g
         transform="matrix(0.32,0,0,0.32,43.175595,136.30824)"
         id="g4794">
        <ellipse
           style="opacity:0.98000004;fill:#009ee0;fill-opacity:1;fill-rule:nonzero;stroke:none;stroke-width:0.17299999;stroke-linecap:round;stroke-linejoin:miter;stroke-miterlimit:4;stroke-dasharray:0.17299999, 0.17299999;stroke-dashoffset:0;stroke-opacity:1"
           id="ellipse4790"
           cx="127.75595"
           cy="126.91071"
           rx="37.797619"
           ry="38.55357" />
        <path
           id="path4792"
           d="m 128.43631,149.18784 q -0.60843,0 -2.82918,-2.23596 -2.22076,-2.23597 -2.22076,-2.84438 0,-0.97349 1.90134,-1.64276 1.90132,-0.66926 3.1486,-0.66926 1.24727,0 3.14859,0.66926 1.90134,0.66927 1.90134,1.64276 0,0.60841 -2.22076,2.84438 -2.22075,2.23596 -2.82917,2.23596 z m 8.21374,-8.24415 q -0.0608,0 -1.21685,-0.76054 -1.15601,-0.76053 -3.08776,-1.52106 -1.93175,-0.76052 -3.90913,-0.76052 -1.97739,0 -3.90914,0.76052 -1.93175,0.76053 -3.07255,1.52106 -1.14079,0.76054 -1.23204,0.76054 -0.5476,0 -2.84439,-2.2816 -2.29682,-2.28159 -2.29682,-2.82917 0,-0.39548 0.30422,-0.69969 2.37286,-2.34243 5.96256,-3.68098 3.58971,-1.33853 7.08816,-1.33853 3.49844,0 7.08815,1.33853 3.5897,1.33855 5.96256,3.68098 0.30422,0.30421 0.30422,0.69969 0,0.54758 -2.29682,2.82917 -2.29679,2.2816 -2.84437,2.2816 z m 8.305,-8.27459 q -0.33465,0 -0.69969,-0.24336 -4.1373,-3.19423 -7.66615,-4.70009 -3.52888,-1.50584 -8.1529,-1.50584 -2.58581,0 -5.18682,0.66925 -2.60102,0.66928 -4.53277,1.61233 -1.93175,0.94306 -3.45281,1.88613 -1.52107,0.94305 -2.40328,1.61231 -0.88222,0.66927 -0.94307,0.66927 -0.51715,0 -2.79876,-2.28158 -2.28158,-2.2816 -2.28158,-2.82918 0,-0.36507 0.30421,-0.66928 4.01561,-4.01559 9.73479,-6.23635 5.7192,-2.22075 11.56009,-2.22075 5.84088,0 11.56008,2.22075 5.7192,2.22076 9.73479,6.23635 0.30421,0.30421 0.30421,0.66928 0,0.54758 -2.28159,2.82918 -2.2816,2.28158 -2.79875,2.28158 z m 8.24415,-8.24414 q -0.33463,0 -0.66927,-0.2738 -5.4454,-4.77615 -11.30148,-7.19463 -5.8561,-2.41849 -12.79214,-2.41849 -6.93605,0 -12.79215,2.41849 -5.85608,2.41848 -11.30148,7.19463 -0.33464,0.2738 -0.66928,0.2738 -0.51716,0 -2.81396,-2.28161 -2.296801,-2.28158 -2.296801,-2.82917 0,-0.39547 0.30422,-0.69969 5.688751,-5.65835 13.537441,-8.76131 7.84869,-3.10298 16.03201,-3.10298 8.18331,0 16.03199,3.10298 7.84869,3.10296 13.53746,8.76131 0.30421,0.30422 0.30421,0.69969 0,0.54759 -2.29681,2.82917 -2.29679,2.28161 -2.81396,2.28161 z"
           inkscape:connector-curvature="0"
           style="fill:#ffffff;stroke-width:0.03042126" />
      </g>
      <g
         id="g4800"
         transform="matrix(0.32,0,0,0.32,75.934431,63.263075)">
        <ellipse
           ry="38.55357"
           rx="37.797619"
           cy="126.91071"
           cx="127.75595"
           id="ellipse4796"
           style="opacity:0.98000004;fill:#009ee0;fill-opacity:1;fill-rule:nonzero;stroke:none;stroke-width:0.17299999;stroke-linecap:round;stroke-linejoin:miter;stroke-miterlimit:4;stroke-dasharray:0.17299999, 0.17299999;stroke-dashoffset:0;stroke-opacity:1" />
        <path
           style="fill:#ffffff;stroke-width:0.03042126"
           inkscape:connector-curvature="0"
           d="m 128.43631,149.18784 q -0.60843,0 -2.82918,-2.23596 -2.22076,-2.23597 -2.22076,-2.84438 0,-0.97349 1.90134,-1.64276 1.90132,-0.66926 3.1486,-0.66926 1.24727,0 3.14859,0.66926 1.90134,0.66927 1.90134,1.64276 0,0.60841 -2.22076,2.84438 -2.22075,2.23596 -2.82917,2.23596 z m 8.21374,-8.24415 q -0.0608,0 -1.21685,-0.76054 -1.15601,-0.76053 -3.08776,-1.52106 -1.93175,-0.76052 -3.90913,-0.76052 -1.97739,0 -3.90914,0.76052 -1.93175,0.76053 -3.07255,1.52106 -1.14079,0.76054 -1.23204,0.76054 -0.5476,0 -2.84439,-2.2816 -2.29682,-2.28159 -2.29682,-2.82917 0,-0.39548 0.30422,-0.69969 2.37286,-2.34243 5.96256,-3.68098 3.58971,-1.33853 7.08816,-1.33853 3.49844,0 7.08815,1.33853 3.5897,1.33855 5.96256,3.68098 0.30422,0.30421 0.30422,0.69969 0,0.54758 -2.29682,2.82917 -2.29679,2.2816 -2.84437,2.2816 z m 8.305,-8.27459 q -0.33465,0 -0.69969,-0.24336 -4.1373,-3.19423 -7.66615,-4.70009 -3.52888,-1.50584 -8.1529,-1.50584 -2.58581,0 -5.18682,0.66925 -2.60102,0.66928 -4.53277,1.61233 -1.93175,0.94306 -3.45281,1.88613 -1.52107,0.94305 -2.40328,1.61231 -0.88222,0.66927 -0.94307,0.66927 -0.51715,0 -2.79876,-2.28158 -2.28158,-2.2816 -2.28158,-2.82918 0,-0.36507 0.30421,-0.66928 4.01561,-4.01559 9.73479,-6.23635 5.7192,-2.22075 11.56009,-2.22075 5.84088,0 11.56008,2.22075 5.7192,2.22076 9.73479,6.23635 0.30421,0.30421 0.30421,0.66928 0,0.54758 -2.28159,2.82918 -2.2816,2.28158 -2.79875,2.28158 z m 8.24415,-8.24414 q -0.33463,0 -0.66927,-0.2738 -5.4454,-4.77615 -11.30148,-7.19463 -5.8561,-2.41849 -12.79214,-2.41849 -6.93605,0 -12.79215,2.41849 -5.85608,2.41848 -11.30148,7.19463 -0.33464,0.2738 -0.66928,0.2738 -0.51716,0 -2.81396,-2.28161 -2.296801,-2.28158 -2.296801,-2.82917 0,-0.39547 0.30422,-0.69969 5.688751,-5.65835 13.537441,-8.76131 7.84869,-3.10298 16.03201,-3.10298 8.18331,0 16.03199,3.10298 7.84869,3.10296 13.53746,8.76131 0.30421,0.30422 0.30421,0.69969 0,0.54759 -2.29681,2.82917 -2.29679,2.28161 -2.81396,2.28161 z"
           id="path4798" />
      </g>
      <path
         inkscape:connector-curvature="0"
         id="path4802"
         d="M 68.035714,81.175594 96.761905,94.026785"
         style="fill:none;fill-rule:evenodd;stroke:#000000;stroke-width:1;stroke-linecap:round;stroke-linejoin:round;stroke-miterlimit:4;stroke-dasharray:none;stroke-opacity:1" />
      <path
         sodipodi:nodetypes="cc"
         inkscape:connector-curvature="0"
         inkscape:original-d="m 56.507439,87.034226 7.559525,21.544644"
         inkscape:path-effect="#path-effect4840"
         id="path4838"
         d="m 56.507439,87.034226 c 0,0 7.559525,21.544644 7.559525,21.544644"
         style="fill:none;fill-rule:evenodd;stroke:#000000;stroke-width:1;stroke-linecap:round;stroke-linejoin:miter;stroke-miterlimit:4;stroke-dasharray:none;stroke-opacity:1" />
      <path
         inkscape:connector-curvature="0"
         inkscape:original-d="m 72.38244,140.89583 6.992559,20.5997 m 3.590775,-44.79017 17.575896,-5.10268"
         inkscape:path-effect="#path-effect4844"
         id="path4842"
         d="m 72.38244,140.89583 c 0,0 6.992559,20.5997 6.992559,20.5997 m 3.590775,-44.79017 c 0,0 17.575896,-5.10268 17.575896,-5.10268"
         style="fill:none;fill-rule:evenodd;stroke:#000000;stroke-width:1;stroke-linecap:round;stroke-linejoin:miter;stroke-miterlimit:4;stroke-dasharray:none;stroke-opacity:1" />
      <path
         inkscape:connector-curvature="0"
         inkscape:original-d="M 113.58184,121.80803 94.683034,162.25149"
         inkscape:path-effect="#path-effect4848"
         id="path4846"
         d="m 113.58184,121.80803 c 0,0 -18.898806,40.44346 -18.898806,40.44346"
         style="fill:none;fill-rule:evenodd;stroke:#000000;stroke-width:1;stroke-linecap:round;stroke-linejoin:round;stroke-miterlimit:4;stroke-dasharray:none;stroke-opacity:1" />
    </g>
  </g>
</svg>
