<svg xmlns="http://www.w3.org/2000/svg" height="297mm" viewBox="0 0 744.09448819 1052.3622047" width="210mm" version="1.1">
<g transform="matrix(.707 .707 -.707 .707 279 -68.6)">
<g transform="translate(-2.24)" fill="#3b5998">
<rect opacity=".93" height="103" width="751" y="95.2" x="8" fill="#3b5998"/>
</g>
<g transform="translate(-.751)">
<text style="word-spacing:0px;letter-spacing:0px" font-family="&apos;Source Sans Pro&apos;" xml:space="preserve" font-size="55px" line-height="125%" y="166.06281" x="247.87642" font-weight="600" fill="#ffffff"><tspan y="166.06281" x="247.87642">Wir auf Facebook</tspan></text>
<circle cy="147" cx="164" r="53" fill="#fff"/>
<g transform="matrix(.0564 0 0 .0564 49.7 119)">
<g transform="matrix(.704 0 0 .704 293 -39.9)">
<g stroke="#fff" stroke-width="3.6" fill="#dedede">
<g stroke-width="3.6">
<path d="m3050 635c7.67-3.05-3.38-16.1 11.7-9.89 1.93-3.11 19.1-12 10.9-9.89-4.07-6.5 9.05-15.2 12.1-7.85-0.417-6.07 5.11-9.94 5.11-18.8-2.82-1.35-10.3-4.14-4.55-10.2-0.012-6.84-14.1-1.86-11.5-13-6.38 8.71-11-1.77-4.56-9.77-11.4-7.22-2.1-16.4-13.6-24.8 1.89-6.89-19.7-4.54-11.5-10.5-6.32-9.34-13.2-14.6-10.7-18.7-5.94 8.03-4.41 19.6-12.5 15.2-11.4 10.4-20.8-10-12.7-10.9 7.97-11.6 2.89-22.3 12.3-32.8-5.99-0.564 6.96-0.857 5.59-10.2-0.95-8.57-17.4-37.1-15.3-25.2 4.94-11-2.9-18.4-11.6-20.4 3.2-26.6 40.8-22.3 36.4-22.8 17.2-21.3 27.7-2.1 52.9-3.24 7.19 12.3 12.9 23.6 30.5 22.6 10.3 7.39 20.4 18.2 34.5 15.9 17.5 4.94 25.6 23.4 19.1 40 8.52 14.7-1.31 30.6 13.5 47.1 15.9 15.1 18.8 40.8 4.03 58.6-2.2 24.8-4.76 45.3-10.1 69.8-12.6 7.6 2.14 20.3-11.4 28.5-2.12 25.5-14.2 43.9-28.3 63.5-11.9 12.8-6.59 27.1-14.4 43.5-22.8 0.944-28.9-9.83-51.2-16.6-19.3-3.13 16.9-45.2-4.6-39.7-28.8 18.9-18.4-8.58-12.3-23-4.6-21.8-31.8-26.1-26.5-22.6-8.61-8.65-1.02-20-12.4-27.2 5.1-10.7 35.7-0.231 31.1-16.6z"/>
<path d="m2800 557c-12.7-4.7 0.971-10.5-9.94-20.4 9.29-17.8 12.6-20.9 18.1-21.4-8.94-15.2 2.46-11 16.7-13.1 30.1-5.66 63.1-20.5 61.8-57.9 11.4-30.2 31.1-43.6 63.5-33.2 22.6 25.3 59.7 10.2 49.6-2.29-12.2 14.5 13.6 6.78 9.93 19.1 2.15 15.1-3.93 23.1 10.8 24.8 7.69 2.07-4.66 20.5-1.04 18.4-4.15-1.02-4.62 28-5.92 18-9.06 9.29-6.26 18.5-2.18 27.8 9.85 4.43 19.3-7.52 16.6-5.82-1.56-11.5 2.05 10.5 5.26-2.09 4.78 11.7 17.2 16.2 16.4 11.3 3.71 4.09 14.3 33.4 11.2 24 0.833 5.6-0.785 27 3.45 20.8 2.52 9.34 9.09-7.23 8.19 5.67 8.48 3.5 13.6 4.7 8.25 13.8 12.4-0.324 5.62 11 2.59 16.3 3.75 11.2-9.37-3.28-13.3 8.29 4.21 9.28-13.1 18.9-10 11.9 9.89 5.21-20.5-2.18-7.23 9.86-8.45 3.4-4.42 17.8-21 13.2-6.38 1.96-22.3 4.44-8.83 11.5 2.84 20.1-52.3 13-36.9 15.8-11.4-8.51-39.8-26.3-29.7-19.4-9.79 8.5-21-8.9-16.7-1.9-7.65-5.13-24.3-4.92-19.5 3.82-7.1 9.36-10.8-9.81-18-7.66-5.22 10.7-21.1 9.31-26 2.26 4.01 12.6-13.8 8.79-17.4 8.71-4.55 3.85-12.9 6.55-14.6-2.34-3.91 2.26-2.58 11.8-9.7 5.37-12.4-3.06-12.8-2.37-4.57-11.8 2-8.6-11.8-16.2-13.2-24.8 11.8-13.4-13-8.25-13.5-4.38-4.45-10.3-31.8-11.4-16.1-24.8 13.3-3.36-17.8-10.8-0.533-14.3 9.1-4.44 1.55-22.4 5.57-12.7-2.24-1.81 3.85-5.08 8.01-10.7z"/>
<path d="m2720 666c9.35-5.42 19.4 11 12.7 12.2 3.86 6.36 20.4 0.722 21.6 2.69-1.27 8.75 14.8 16.9 10.7 15 12.6-8.29 22.6 3.38 26.9 7.59 5.6 6.66 15.9 7.93 23.1-1.41 15.2 6.62 20.8-13.6 19.4-9.95 4.24-6.3 19.7-7.05 18.1-21.4-4.89-7.85 8.34-14 12.9-11.9 7.92-1.47 14-21.4 14.5-9.92 6.07 11.2 21.2 4.82 28-3.09 4.2 12.6 15.6 13.1 15.1 5.22 7.01-9.99 24.1 1.65 25.7 8.39 9.8-12.9 30.4-2.54 10.3 5.35-6.68 12.7-18.1 42.4 6.8 32.2-12.2 17.8 29.4 13.7 29.2 33.6-1.35 14.4-50.6 5.21-39.2 13.1-19 7.91-23.1 28.4-48.5 34-16.9 17.5-34.9 10.6-51.4 14.5-28.1 7.22-16.6 33-33.6 41.8-13.4 7.02-37.3-8.61-47.3 6.98-15.8 0.654-34.2-10.1-31-8.67-3.27-6.37-7.06-19.4-18-13.4-8.62-3.67-3.92-17-0.59-19.6 6.6-0.539-11.3-2.74-8.23-10.1-9.63 4.23-18.4-9.04-10.3-14.2-5.89-10.8-10.3-20.3-20.1-25.6 3.41-10.5-8.4-12.6-1.39-18.8-22.5 1.92 12-20.7 5.08-21.7-23.8 11.7-7.84-28.9-9.13-20.8-11.7-5.4-8-18.1 3.89-18.8 9.98-7.79 25.1 5.18 34.9-3.12z"/>
<path d="m2730 647c8.57-6.87 18.9 6.61 25.2 1.04 13-6.89 3.34-2.68 10.4-13.6-1.67-18.5 18.1-2.01 16.5-16.1-6.67-5.54-6.25-23 6.01-9.02 12.1 4.69 19.2 11.8 33 5.88 9.73 6.48-11.2 10.9 0.947 13.9 7.99 11.4 14.1 20.6 3.13 29 8.14-1.53 14.9 10.4 18.7 1.48-3.26-9.76 12.9 6.43 6.62 13 1.89 13-14 13.1-17.3 19.3-0.749 12.1-28.1 7.41-19.4 9.95-6.92 11.1-19.4 5.31-22.7 2.62-6.2-8.89-16.7-16.7-29.3-7.13-2.83-8.88-11.8-8.44-8.29-18.3-10.2 5.42-20.4 0.418-25.2-3.49-8.85-6.54 2.25-20.4 1.73-28.6z"/>
<path d="m2600 536c0.54-12.7-0.527-20.1-3.09-24.5 9.6-3.48-15.4-10.8-0.318-14.8 17.4-12.7 40-3.9 67-15.2 10.5-26.4 71.2 19 56.1 22.1 24.3 6.9 55.7 8.53 82.6 4.75 8.68-15.5 17.7 21.4 1.43 8.47 1.21 13.1-16.7 21.2-2.14 31.5-13.3 3.69 12.8 8.55-2.31 13.1 3.04 4.39-9.59 7.45 0.912 10.2 3.47 7.28-22.7 9.21-9.61 14.8 4.94 7.01 5.81 6.89-2.32 12.7-0.426 10.1-15.4 1.68-5.55 14 6.57 7.01-0.957 17.4-10.9 11.1-2.28 8.34-4.25 16-7.56 17.2 4.64 12.7-27.4 1.87-18.2 5.44-16.1-6.14-13.1 8.36-17.7 17.7-11.2 6.85-26.7 1.94-38.6 3.16-14.2-0.986-12.5 20.9-22.2 9.98-13.1-10.2-28 9.33-42.2 9.7-32 30.6 14.5-30.6-5-12.6 7.63 1.37-11.2-5.22 0.333-8.18-1.04-7.81 0.996-28.3-9.52-19.5 4.8-14 1.48 4.72 7.55-18.4-1.34-2.56 1.11-14-6.63-15.5-9.89-2.38-7.03-16-14.8-22 7.34-3.66-1.08-27.3 0.191-23.3 6.38-1 7.45-23.1 5.94-17.2 0.198-5.07-3.31-9.62-3.41-14.7z"/>
<path d="m2270 425c11.4-31.2 29.5-2.71 52.5-23.3 32.6 9.34 19.8-25.7 46.4-19.1 26.7-0.837 53.8 4.55 50.4 1.03 13.4-18 25.7-23.8 48.6-17.5 11.4-16.5 37.7-6.4 30.9-11.4 15.7 0.634 25.9 23.9 39.4 6.26 14 18.7 40.7 23.5 50.8 40.5 12.3 22.5 12.1 46.5 8.09 72.8-2.91 11.3 6.25 34.9-1.35 30.6 6.81 4.73-3.54 9.56 3.79 13.5-3.43 12.3 4.44 28.4 1.58 37.6 5.25 11-0.418 23.4-3.92 15.2 16.2 13.5-56.7 11.5-21.4 14.9-12.1-4.79-2.33 6.09-13.8 5.01-4.11-4.88-15.7-2.26-15 6.24-15.2 0.331-16.6-19.1-35.8-9.14-15 3.09-14.5-7.93-7.38-7.7 7.38-7.97 7.58-18.5-0.99-19.6-0.6-6.64-18.9-12.4-10.4-22 11.3-4.75 14.3-24.6 9.57-19.7 10.2 0.817-11.4-12.7-0.937-13.1-9.58-16.4-1.48-22.9 6.36-14.8 8.14-7.37-4.3-5.92-9.5-16.7-7.62-6.07-18.1-4.61-28.5-9.99-7.82-13.9-45.4 0.0917-32.5 2.7-7.11 5.63-22.7-3.35-22.2 12.8 7.99 1.07-2.29 6.59 0.105 11.9-12.7-9.17-4.89 16.1-18.2 12-3.3 8.59-36.7 19.1-27.1 11.2-16.4 7.58-17.7-18.2-13.5-15 5.38-5.28-11.2-18.9 5.56-13.9 7.93-5.51-6.62-11.6-14.4-15.4 2.36 11.7-27.7 8.18-21.8 12.9-11.1 9.44-36.2-4.92-35.6 12.5-3.28-4.25-14.1 17.5-5.96 13.9 0.588 10.4-25.9 23.9-14.8 21.8-3.09-17.2 1.3-38.9-9.19-53-1.98-19.4 20.6-28.8 10-52.6l0.345-1.35z"/>
<path d="m2280 509c8.36-10.1 0.86-17.1 4.3-18 18.1-5.53 42.1-6.27 38.6-6 13.3 5.85 40.7-6.47 28.9-11.3 1.99 2.15 13.7 14.7 2.78 11.1-14.8 0.231 4.18 14.1-4.3 16.8 2.05 13.1 32.6 35.5 22.2 25.6 6.39 2.7 4.7 28.7 2.62 18.8-19.2-3.27-10.7 22.6-18 25.5-10-8.14-16.9-16.6-33-12-9.05-11.5-9.42-7.09-13.4 5-5.08 0.756-12.1 19.9-9.61 16-21.9 7.02-17-4.09-20.5-15.4-0.049-10.1 16.8-9.63-5.02-15.9 7.04-7.57-3.8-13.6 8.77-18.5-7.09-1.82-9.87-19.7-4.28-21.6z"/>
<path d="m2290 577c-5.08 10.9 28.6 4.48 20.6-8.74 6.24-1.33 11-5.74 8.8-15.6 8.72 3.65 17.9 9.55 33 5.45 1.17 15.3 18 17.7 15 0.713-3.54-12.4 11.8-30 13.2-19.7 3.81-10.5-19.8-27.4-10.7-19.9-0.128-8.19 22.9-10.5 26.3-11.2 11.9-1.34 26.1-18.1 16.5-17.3 6.28 3.22 4.13-8.23 6.01-9.86-8.51-5.55 6.64-15.8 11.7-10.7 10.4-1.65 45.3-17 34-11.3 5.75 11.7 25.9 8.14 33.9 16.1 6.81 7.24 11 9.72 14.3 13.8 1.75 10.5-15.9 1.01-10.8 14.8 2.79 3.22 17.2 12.7 4.2 13.9-11.9 4.46-0.576 19.6-12.4 21.8-7.92 9.24 11.1 28.5 10.4 22 10.6 1.08 4.79 13.2 2.63 20.8-4.64 0.721-6.3 12.1 0.102 11.4-13.5-0.112-8.65 18.7-18.1 24.6-10.9 11.8 22.1 12.7 8.32 22 9.02 7.79-0.387 22.4-10.8 13.2-7.51 4.59-17.6 2.91-17.9-2.75-6.67 2.37-25.3-5.93-17.4 6.26-6.47 4.35-8.71 18.8-4.66 23.3-0.808 9.32-8.81 12.3 1.4 18 12.4 17.7-15.2-5.48-14.9 15.6-12.2 1.72-24.4 4.51-27.3-4.7-11.4 7.22-36.4 5.62-27.3-12.2-16.9-12.7-22.1-32.4-47.9-27.8-17.6-3.84-26.2-7.97-44.6-12-2.93-13-16.9-17.7-13-36.2-21.9-4.17 3.22-28.7-10.5-44.8-4.04-9.23-17.5-41.4 4.7-41.1 8.23-5.8 20.8-16.2 22.4-0.656-15.6-2.53 1.73 18.7-1.66 16.4 16.8 10.5-5.54 3.3-0.878 16.3-0.632 1.82 3.79 6.68 3.3 10.2z"/>
<path fill="#009ee0" d="m2450 701c-9.77-9.12-7.31-10.3-3.47-21.6-6.1-4.52 2.1-22.3 3.83-23.7-5.98-13.6 20.1-3.19 19.9-4.23 2.21 10.3 20.5-3.79 24 3.9 11.7-1.66 1.78-35.3 5.48-22.5-10.8-3.63-16.5-12.8-6.71-22.4 5.36-7.05 5.69-21.8 18.5-19.8 9.16-10.8 25.3-3.21 29.7 6.74 11.7 1.95 6.78-11.6 18.2-9.12 5.05 2.16 13 4.6 9.72-3.35 11.4 6.41 23.9-13.9 31.3-2.29-1.57 9.77 1.56 10.5 4.69 23.3 4.44 7.34 18.3 8.67 13.2 20.7 0.994 1.12-16.7 12.7-7.58 15.2-1.41 12.3 9.12-7.1 10.2 8.9-1.65 4.77 3.84 18-4.31 18.4 10.7 5.79 6.22 6.34-0.221 19.2 0.864 8.03 26.2-9.27 29.6-8.01 14-15.1 30.1 0.852 39.9 9.11-21 11.4 6.21 24.6 7.9 19.2-3.29 8.09-24.2 21.4-5.49 22.5-5.99 4.37 2.94 11.7 3.44 20.8 10.2 1.81 20.5 22.8 14.1 28.1 2.82 11.8 14.2 6.19 18.8 17 10.2-0.0504-1.99 4.03-1.91 13.5 2.69 13.7 20.9-0.489 22.1 17.4 15.2 6.85 7.1 19.8-11.2 18.8-27-4.22-0.955 24.3-20.8 31.1 9.37 5.73-9.91 21.5-9.77 8.92 5.23-5.47-10.3-3.87-12.3-10.5-7.34 5.27-8.71-8.56-9.42-9.3-4.23-1.73-17.1-12.9-16.8-19.5 0.505-5.8 1.24-20.3-11.5-14.6-7.24 6.44-14.5 4.02-23.5 2.63 7.03-12.1-6.85-15.4-11.9-15.4-11.9-5.4-23.6-5.1-32.9 3.1-7.02-5.47-6.2-13.5-16.7-6.4-11.3-7.36-17.4-15.5-12.4-28.5-3.83-9.01-23.9-3.82-21.6-7.62 3.64-8.29-9.62-23.1-3.85-20.8-9.18 2.24-23.3 7.09-28.1-4.7-18.6-0.675-24.1 26.4-39.2 17.5-1.59-4.62-10.8-11.9-13.2-18.7-8.29 5.46-10.7 0.093-19.1-1.9-3.17-13.1-16.5 5.67-19.5-14.9-7.12-12-9.33-41.6 0.892-20.9 11.5-1.18 23-1.72 27.9-14.5 3.07 1.7 17.2 8.29 10.2-0.479z"/>
<path d="m2470 781c-0.331-13.1 21.3-31.6 31.1-21.9 7.28 9.01 19.4-1.7 30.5 1.39-1.3 8.8-5.35 32.9-1.81 23.7 9.5-8.07 28.3 3.32 20 15 4.12 4.16-4.97 21.2-9.52 24.6-10.6-9.28-7.58 6.21-17 10.7-7.63-10.4-8.81 13.6-18.7 2.2-9.52-6.78-4.62-19.3-5.41-14.3 3.05-7.68-8.14-17.7-8.21-8.1-9.83-12.8-19.1 10.5-28.4 1.44-1.27-11.6-12.7-17.7-14.4-17.1 13.1 0.632 16-4.43 13.4-3.78 0.274-2.6 9.45-7.49 8.39-14z"/>
</g>
<path d="m2320 880c-22.3-0.303-49.1-41.1-34.3-34.1 32.5-15.8-3.64-26.6 16.2-36 17.5-12.4 67.7-23.5 52.7-24.1 3.78-30.7 43.7-23.2 60.5-35.5 7.58-4.74 12.4-4.9 18.7 3.33 5.25 2.04 10.2 3.32 17.9 1.49 3.96 15.6 15.2 17 22.2 22.3 1.32 11.6-9.47 13.5-9.96 21.3 0.757-1.64-5.96 4.56-11 1.71 10.5-2.03 17.7 20.8 3.88 24.5-9.6-4.35-22.3 8.19-8 13.1-10.1 13.4-13.2-7.89-22-2.29-3.15 5.69 7.05 15.5-5.93 18 3.03 11.1 34.8 6.57 22.6 25.2-8.18 7.38-17.8 18.7-5.11 18-1.05 10.7-18.4-11.3-20.2 7.51-7.32 3.86-10.8 25.1-12.4 15.6-17.1 10.8 20.1 9.37 3.03 19.6-7 6.02-19.2-8.01-23.5 6.31-10.6-5.45-7.53-11.4-16.3-6.4-4.25 0.399-21.7-8.69-17.1-5.6-0.21-13.5 11.3-24.7-5.96-28.2 9.79-14.3-18.8-14-10.8-28.1-7.85-4.54-12.4 14.3-15 2.14z"/>
<path d="m2210 1030c-5.86 1.7-9.43-21.1-19.9-9.89 10.3-9.32 19.7-49.7-2.9-45.6-25.5-16.8 24.5-70.7 22.3-53 22.4-25.3 7.89 45.8 18.2 30.8 22.4-10.6 42.9-7.5 32.2-27 8.21-20 21-7.88 42.5-21 17.2-16.3 13.7-19.9 28.5-21 4.65 1.24 21.2 19.5 13.6 16.2 7.78 6.86-2.31 13.7 12.4 18.3-2.35 5.53-10.3 31 7.54 24.9 5.31 11.7 14-10.4 14.3 4.78 16.2 6.66-7.25 11.8-13.2 20.1-6.83 8.83 12.9 33.9 9.58 24 14.6 13.1 50.5 34.5 12.7 37.5-1.05 24.2-23.2 27.8-33.8 42.4-5.39 19.1-23.8 38.2-19.4 39.1 4.26 17.7-12.5 53.1-15.7 18.9-14.6-18.1-0.887-32.9-27.5-34.8 1.7-32.1-18.9-22.2-40.7-29.2-12.1 3.43-29-6.73-34-14.5-4.24-9.06 3.7-15.3-6.68-21z"/>
<path stroke-width="3.6" d="m2380 943c7.66-9.57 21.2 6.4 26.3-8.38-0.908-3.73-21.4-7.97-5.44-15.5-7.38-13.9 14-7.88 14.4-21 7.32-7.96 15.3 9.71 18.3-0.14 9.56-5.1-4.97-11.5 4.68-21.3 10.4-18.6-30.9-9.95-21.8-27.6 17.6 9.06-8.47-20.8 8-12.7 5.02-0.492 13.9 14.7 18.3-0.535-11.6-10.6 4.61-14.8 10.5-11.5 3.78-9.98 20.4-6.26 27.5-13.7 9.19 4.58 10.6 10.5 16.7 9.68-0.529 7.7-7.41 8.25 3.4 15.9 9.15 9.95 10.4-3.5 17.4-4.6 8.86 9.47 8.75-20.6 17.4-7.49 10.2 2.77 7.59-30.9 19.4-12.4 3.07 14 20.3-7.54 17.1 8.45 5.48 4.14 13.2 1.62 16.2-4.23 13.6 0.283 22.4 4.75 32.6 7.11 6.44 4.21-2.23 21.6 11.9 12.6 7.58 7.55 21.3-14.8 26 4.71-8.13 4.88 6.36 21.8 12.8 24.8 2.6 2.62 4.14 5.45 7.42 12.6 8.13-3.47 11.4 9.45 19.6 4.75 0.141 7.65-1.62 30.5-20.1 18.6-21.1-32.4-10.4-7.77-32.6 3.32-0.195 32.6-27.3-9.14-33.7 23.8 5.72 16.1-14.4 43.4-27 25.6-13.2 18.1-39.8-8.87-35.9 19.3-1.23 13.8-23.5 43.6-14.2 33.1-20.8 22.8-45.9-38.7-58.4-8.94-14.2-21.4-29.9 32.5-38.7 16.3-17.5-9.67-39.4 17.4-47.2-7.95-17.1-8.78-27.2-25.8-35.1-36 0.466-9.54 25-23.2 18.5-18.5 3.45-1.55 4.4-4.89 5.64-8.2z"/>
</g>
<g stroke="#de2c68" fill="none">
<path stroke-width="27" d="m3320 755c15.5 359-372 661-715 539-350-99-504-565-292-858 188-309 679-327 888-32.1 77.5 99.3 120 225 120 351z"/>
<path stroke-width="27" d="m2370 1020c14.5 333-344 614-663 501-325-92.4-467-525-271-796 173-287 629-304 823-29.8 71.8 92.3 111 209 111 326z"/>
<path stroke-width="146" d="m3490 755c20 465-490 855-940 705-460-130-660-738-380-1120 240-400 880-424 1160-41 100 129 160 292 160 456z"/>
</g>
<path fill="#fc3" d="m1620 1030c38.8-2.58 81.7 5.13 118-3.79 44.3-42.2 88.6-84.3 133-127-45.6-43.4-91.2-86.9-137-130h-114l91.2 86.9h-182c8.14 26.3-18 86.9 16.5 86.9h166m1530-156v-112h-234l108-112h-144c-54 56.1-108 112-162 168 54 56.1 108 112 162 168h144l-108-112"/>
</g>
</g>
</g>
</g>
</svg>
